<svg xmlns="http://www.w3.org/2000/svg" viewBox="0 0 1400 1000"><path fill="#efeff4" d="M967.348 549.991a267.177 267.177 0 0 0-38.959-179.65l.57-.36c-33.256-53.12-85.334-94.157-144.874-112.962a265.612 265.612 0 0 0-92.629-12.92 262.354 262.354 0 0 0-91.123 19.463 268.351 268.351 0 0 0-79.206 49.612 267.335 267.335 0 0 0-72.305 291.947H604a134.142 134.142 0 1 1 194.417 0h155.188a280.378 280.378 0 0 0 13.82-55.12Z" class="colorefeff4 svgShape"/><path fill="#ffffff" d="M708.744 378.763A134.135 134.135 0 0 0 604 605.12h194.418a134.135 134.135 0 0 0-89.674-226.358Z" class="colorfff svgShape"/><path fill="#d1d1df" d="M978.346 605.12h46.954a340.178 340.178 0 0 0 9.678-45.873l-7.904-1.102-36.588-4.995a291.136 291.136 0 0 1-12.14 51.97Z" class="colord1d1df svgShape"/><path fill="#d1d1df" d="M953.605 605.12h24.741a291.136 291.136 0 0 0 12.14-51.97l-23.062-3.148a280.378 280.378 0 0 1-13.819 55.119ZM415.51 573.726l-43.944 9.392q2.352 11.095 5.488 22.002h46.996a289.867 289.867 0 0 1-8.54-31.394Z" class="colord1d1df svgShape"/><path fill="#d1d1df" d="m438.241 568.868-22.732 4.858a289.867 289.867 0 0 0 8.541 31.394h24.772a271.215 271.215 0 0 1-10.58-36.252ZM409.575 496.283a290.98 290.98 0 0 1 33.538-120.471l-39.694-21.057a335.693 335.693 0 0 0-25.772 63.768q-42.687-5.468-86.249-7.7a423.201 423.201 0 0 0-12.235 87.714q42.479 9.772 85.065 16.194a335.853 335.853 0 0 0 7.338 68.387l43.943-9.392a292.367 292.367 0 0 1-5.934-77.443Z" class="colord1d1df svgShape"/><path fill="#d1d1df" d="M434.965 475.558a274.677 274.677 0 0 1 28.684-88.852l-20.536-10.894a293.002 293.002 0 0 0-27.604 197.915l22.732-4.859a274.676 274.676 0 0 1-3.276-93.31ZM591.538 241.915l-16.868-41.52a339.235 339.235 0 0 0-60.777 32.221c-19.57-21.296-39.768-41.537-61.015-61.35a425.796 425.796 0 0 0-65.913 59.3q26.275 34.786 54.788 67.078a332.643 332.643 0 0 0-38.334 57.111l39.694 21.057a293.225 293.225 0 0 1 148.425-133.897Z" class="colord1d1df svgShape"/><path fill="#d1d1df" d="M521.127 313.174a268.351 268.351 0 0 1 79.206-49.612l-8.795-21.647a293.225 293.225 0 0 0-148.425 133.897l20.536 10.893a272.629 272.629 0 0 1 57.478-73.53Z" class="colord1d1df svgShape"/><path fill="#d1d1df" d="M717.619 221.06a292.504 292.504 0 0 1 73.642 13.707l13.75-42.638a339.838 339.838 0 0 0-67.28-14.345c-1.292-28.805-3.68-57.637-7.211-86.263a421.906 421.906 0 0 0-88.708 3.109q-2.264 43.306-1.115 86.54a335.902 335.902 0 0 0-66.027 19.226l16.868 41.519a290.937 290.937 0 0 1 126.08-20.854Z" class="colord1d1df svgShape"/><path fill="#d1d1df" d="M691.456 244.099a265.612 265.612 0 0 1 92.629 12.92l7.176-22.252a293.078 293.078 0 0 0-199.723 7.148l8.795 21.647a262.354 262.354 0 0 1 91.123-19.464ZM948.7 357.522l37.347-23.569c.053.084.103.169.155.253l.574-.36a340.243 340.243 0 0 0-42.301-54.25c17.45-22.813 34.257-46.555 49.924-70.732a424.095 424.095 0 0 0-69.96-54.608q-29.529 31.652-56.494 65.585a334.688 334.688 0 0 0-62.933-27.712l-13.75 42.638A292.47 292.47 0 0 1 948.7 357.522Z" class="colord1d1df svgShape"/><path fill="#d1d1df" d="m928.958 369.981 19.742-12.459a292.47 292.47 0 0 0-157.439-122.755l-7.176 22.252c59.54 18.805 111.618 59.842 144.873 112.962ZM992.84 529.104q-.682 12.122-2.339 23.94l36.573 5.1 7.828 1.07a337.665 337.665 0 0 0 2.355-68.767q41.934-9.486 83.58-22.333a413.775 413.775 0 0 0-18.801-86.834q-43.206 5.538-85.354 14.27a333.16 333.16 0 0 0-30.48-61.345l-37.414 23.46a290.751 290.751 0 0 1 44.053 171.439Z" class="colord1d1df svgShape"/><path fill="#d1d1df" d="m928.958 369.981-.569.36a267.177 267.177 0 0 1 38.96 179.65l.075.01.027-.171 23.05 3.214q1.636-11.818 2.34-23.94a290.751 290.751 0 0 0-44.053-171.438l-19.775 12.4-.055-.085ZM990.486 553.15l36.588 4.995-36.572-5.1-.016.105Z" class="colord1d1df svgShape"/><path fill="#d1d1df" d="m967.424 550.002 23.062 3.148.015-.106-23.05-3.214-.027.172ZM948.7 357.522l.088.144 37.415-23.46c-.053-.084-.103-.17-.156-.253Z" class="colord1d1df svgShape"/><path fill="#d1d1df" d="m929.013 370.066 19.775-12.4c-.03-.047-.058-.096-.088-.144l-19.742 12.46.055.084ZM693.672 646.624a133.838 133.838 0 0 0 104.745-41.503H604a133.668 133.668 0 0 0 89.672 41.503Z" class="colord1d1df svgShape"/><path fill="#efeff4" d="M1300 859.237H110.828c-5.98 0-10.828-1.85-10.828-4.13v-.083c0-2.281 4.848-4.13 10.828-4.13H1300Z" class="colorefeff4 svgShape"/><path fill="#113251" d="M211.693 688.435h30.374v47.16h-30.374zM219.553 746.519h14.654v62.347h-14.654z" class="color113251 svgShape"/><rect width="103.646" height="71.14" x="175.057" y="630.312" fill="#efeff4" rx="29.844" class="colorefeff4 svgShape"/><path fill="#efeff4" d="M185.133 722.5h83.495a10.076 10.076 0 0 1 10.075 10.077v3.866a10.076 10.076 0 0 1-10.075 10.076h-83.495a10.076 10.076 0 0 1-10.076-10.076v-3.866a10.076 10.076 0 0 1 10.076-10.076Z" class="colorefeff4 svgShape"/><path fill="#113251" d="M276.376 841.371h-6.004a29.537 29.537 0 0 0-29.504-29.501h-29.309a29.534 29.534 0 0 0-29.501 29.501h-6.005a35.546 35.546 0 0 1 35.506-35.505h29.309a35.547 35.547 0 0 1 35.508 35.505Z" class="color113251 svgShape"/><path fill="#113251" d="M223.878 808.868h6.004v33.97h-6.004z" class="color113251 svgShape"/><circle cx="179.054" cy="842.838" r="7.86" fill="#ff9f33" transform="rotate(-45 179.054 842.838)" class="colorff9f33 svgShape"/><circle cx="273.374" cy="842.838" r="7.86" fill="#ff9f33" transform="rotate(-76.717 273.374 842.838)" class="colorff9f33 svgShape"/><circle cx="226.88" cy="842.838" r="7.86" fill="#ff9f33" transform="rotate(-76.717 226.88 842.838)" class="colorff9f33 svgShape"/><rect width="209.486" height="125.985" x="465.861" y="453.743" fill="#d1d1df" rx="4.4" class="colord1d1df svgShape"/><rect width="196.171" height="107.882" x="472.519" y="460.568" fill="#ffffff" rx="4.196" class="colorfff svgShape"/><path fill="#113251" d="M553.141 579.728h34.926v48.249h-34.926z" class="color113251 svgShape"/><path fill="#113251" d="M534.494 627.57h76.828v6.492h-76.828z" class="color113251 svgShape"/><path fill="#d1d1df" d="M572.644 488.931H650v5.056h-77.356zM572.644 504.634H650v5.056h-77.356zM572.644 535.134H650v5.056h-77.356zM572.644 520.337h44.402v5.056h-44.402zM628.96 520.337H650v5.056h-21.04z" class="colord1d1df svgShape"/><path fill="#113251" d="M488.46 488.931h75.956v51.259H488.46z" class="color113251 svgShape"/><path fill="#d1d1df" d="M729.093 453.743H929.78a4.4 4.4 0 0 1 4.4 4.4v117.185a4.4 4.4 0 0 1-4.4 4.4H729.093a4.4 4.4 0 0 1-4.4-4.4V458.143a4.4 4.4 0 0 1 4.4-4.4Z" class="colord1d1df svgShape"/><rect width="196.171" height="107.882" x="731.351" y="460.568" fill="#ffffff" rx="4.196" class="colorfff svgShape"/><path fill="#113251" d="M811.974 579.728H846.9v48.249h-34.926z" class="color113251 svgShape"/><path fill="#113251" d="M793.327 627.57h76.828v6.492h-76.828z" class="color113251 svgShape"/><path fill="#3a61df" d="M752.133 488.931h154.608v5.056H752.133zM752.133 504.634h154.608v5.056H752.133zM752.133 535.134h154.608v5.056H752.133zM752.133 520.337h88.743v5.056h-88.743zM864.689 520.337h42.051v5.056h-42.051z" class="color3a61df svgShape"/><path fill="#113251" d="M1231.746 688.435h10.97v47.16h-10.97zM1190.126 746.519h14.654v62.347h-14.654z" class="color113251 svgShape"/><path fill="#efeff4" d="M1155.706 722.5h83.495a10.076 10.076 0 0 1 10.075 10.077v3.866a10.076 10.076 0 0 1-10.075 10.076h-83.495a10.076 10.076 0 0 1-10.075-10.076v-3.866a10.076 10.076 0 0 1 10.075-10.076Z" class="colorefeff4 svgShape"/><path fill="#113251" d="M1246.95 841.371h-6.005a29.537 29.537 0 0 0-29.504-29.501h-29.309a29.534 29.534 0 0 0-29.501 29.501h-6.005a35.546 35.546 0 0 1 35.506-35.505h29.309a35.547 35.547 0 0 1 35.509 35.505Z" class="color113251 svgShape"/><path fill="#113251" d="M1194.451 808.868h6.004v33.97h-6.004z" class="color113251 svgShape"/><circle cx="1149.627" cy="842.838" r="7.86" fill="#ff9f33" transform="rotate(-76.717 1149.627 842.838)" class="colorff9f33 svgShape"/><circle cx="1243.948" cy="842.838" r="7.86" fill="#ff9f33" transform="rotate(-22.5 1243.947 842.837)" class="colorff9f33 svgShape"/><circle cx="1197.453" cy="842.838" r="7.86" fill="#ff9f33" transform="rotate(-76.717 1197.454 842.838)" class="colorff9f33 svgShape"/><path fill="#efeff4" d="M1237.23 701.452a7.583 7.583 0 0 1-7.583-7.583v-55.974a7.583 7.583 0 0 1 15.167 0v55.974a7.583 7.583 0 0 1-7.583 7.583Z" class="colorefeff4 svgShape"/><path fill="#113251" d="M1167.469 506.451h9.735v17.695h-12.779l3.044-17.695z" class="color113251 svgShape"/><path fill="#ffd2b3" d="m1068.9 702.107-46.197 137.555h10.204l63.143-137.555h-27.15z" class="colorffd2b3 svgShape"/><path fill="#ff4f67" d="M1003.942 850.698h9.538l13.885-4.49-4.348-6.894-19.075 9.176v2.208z" class="colorff4f67 svgShape"/><path fill="#ff4f67" d="M1025.985 850.698h7.233v-11.384h-10.201l4.348 6.894-1.38 4.49z" class="colorff4f67 svgShape"/><path fill="#ffd2b3" d="m1106.32 702.667-51.035 136.995h10.205l69.227-133.711-28.397-3.284z" class="colorffd2b3 svgShape"/><path fill="#ff4f67" d="M1036.525 850.698h9.537l13.886-4.49-4.348-6.894-19.075 9.176v2.208z" class="colorff4f67 svgShape"/><path fill="#ff4f67" d="M1058.567 850.698h7.233v-11.384h-10.2l4.348 6.894-1.381 4.49zM1222.026 660.441h-65.742l-23.368-113.793a19.232 19.232 0 0 1 19.02-16.317h56.479a19.244 19.244 0 0 1 19.02 16.317ZM1124.617 725.06l-55.717-22.953 5.935-8.976a66.294 66.294 0 0 1 48.834-29.415l33.408-3.275h64.949s33.034 62.486-49.342 62.486Z" class="colorff4f67 svgShape"/><ellipse cx="1181.695" cy="484.213" fill="#113251" rx="16.478" ry="13.595" class="color113251 svgShape"/><path fill="#113251" d="M1207.05 524.146h-25.426v-33.759l16.221-8.883 9.205 42.642z" class="color113251 svgShape"/><path fill="#ffd7cf" d="M1189.425 497.134a2.412 2.412 0 1 1-2.412-2.412 2.412 2.412 0 0 1 2.412 2.412ZM1175.283 501.053h9.761l7.271 29.278h-24.846l7.814-29.278z" class="colorffd7cf svgShape"/><path fill="#ffd7cf" d="M1166.035 482.512h13.39a7.909 7.909 0 0 1 7.908 7.91v21.774h-25.726V486.94a4.428 4.428 0 0 1 4.428-4.428Z" transform="rotate(180 1174.47 497.354)" class="colorffd7cf svgShape"/><path fill="#113251" d="M1165.363 475.055h16.382a10.656 10.656 0 0 1 10.657 10.657v4.675h-27.039a5.328 5.328 0 0 1-5.328-5.328v-4.676a5.328 5.328 0 0 1 5.328-5.328Z" class="color113251 svgShape"/><path fill="#ff4f67" d="m1163.347 630.928-66.387-27.886 1.827-7.125 63.17 15.503 29.032-56.31 28.049 2.385-39.194 67.321a21.704 21.704 0 0 1-2.549 2.846 14.481 14.481 0 0 1-13.948 3.266Z" class="colorff4f67 svgShape"/><path fill="#ffd7cf" d="m1098.787 595.917-7.293-5.63a8.158 8.158 0 0 0-6.52.49l-6.297 3.338a.46.46 0 0 0 .182.864l8.586.628a2.383 2.383 0 0 1 2.023 1.453 6.052 6.052 0 0 0 4.397 3.588l3.095 2.394Z" class="colorffd7cf svgShape"/><path fill="#ff4f67" d="m1117.495 625.78-55.393 1.917-1.839-8.232 50.358-11.707 23.446-65.322 26.166-2.966-28.328 75.097q-.193.605-.42 1.195a15.793 15.793 0 0 1-13.99 10.017Z" class="colorff4f67 svgShape"/><path fill="#ffd7cf" d="m1060.263 619.465-8.926-.526a8.159 8.159 0 0 0-5.547 3.462l-4.026 5.88a.46.46 0 0 0 .562.68l7.896-3.43a2.383 2.383 0 0 1 2.466.347 6.052 6.052 0 0 0 5.56 1.135l3.854.684Z" class="colorffd7cf svgShape"/><path fill="#ff9f33" d="M1187.8 494.701a1.5 1.5 0 0 1-1.499-1.448c-.246-7.057-2.234-12.166-5.91-15.184-4.781-3.928-10.95-2.98-11.014-2.971a1.5 1.5 0 0 1-.492-2.96 18.029 18.029 0 0 1 13.378 3.586c4.39 3.586 6.758 9.449 7.036 17.425a1.5 1.5 0 0 1-1.447 1.551l-.053.001Z" class="colorff9f33 svgShape"/><path fill="#113251" d="M1177.767 508.451h-9.634a1 1 0 0 1 0-2h9.033l8.583-5.668a1 1 0 0 1 1.102 1.67Z" class="color113251 svgShape"/><circle cx="1187.8" cy="494.722" r="9" fill="#ffffff" class="colorfff svgShape"/><circle cx="1187.8" cy="494.722" r="4.971" fill="#ff9f33" class="colorff9f33 svgShape"/><path fill="#ffffff" d="M1169.467 509.451h-1.917a2 2 0 0 1 0-4h1.917a2 2 0 0 1 0 4Z" class="colorfff svgShape"/><rect width="7.125" height="125.985" x="407.425" y="453.743" fill="#ffffff" rx="3.345" class="colorfff svgShape"/><path fill="#113251" d="M426.643 633.743H391.3a2 2 0 0 1 0-4h35.343a7.136 7.136 0 0 0 6.642-9.746l-19.277-49.049v-29.044a2 2 0 0 1 4 0v28.286l19 48.344a11.136 11.136 0 0 1-10.365 15.209ZM332.883 629.743h41v4h-41z" class="color113251 svgShape"/><path fill="#ff9f33" d="M297.01 624.951h6.5a7.5 7.5 0 0 1 7.5 7.5v1.288h-21.5v-1.288a7.5 7.5 0 0 1 7.5-7.5Z" class="colorff9f33 svgShape"/><rect width="7.125" height="125.985" x="984.731" y="453.743" fill="#ffffff" rx="3.345" transform="rotate(180 988.293 516.736)" class="colorfff svgShape"/><path fill="#113251" d="M1007.98 633.743h-35.343a11.136 11.136 0 0 1-10.364-15.209l19-48.344v-28.286a2 2 0 0 1 4 0v29.044l-19.278 49.05a7.136 7.136 0 0 0 6.642 9.745h35.343a2 2 0 0 1 0 4ZM1025.397 629.743h41v4h-41z" class="color113251 svgShape"/><path fill="#3a61df" d="M1088.27 624.951h21.5v1.288a7.5 7.5 0 0 1-7.5 7.5h-6.5a7.5 7.5 0 0 1-7.5-7.5v-1.288Z" transform="rotate(180 1099.02 629.345)" class="color3a61df svgShape"/><path fill="#ff9f33" d="m200.326 500 2.558-.888a9.57 9.57 0 0 0 5.902-12.18l-2.879-8.29-11.6 4.027ZM177.65 516.172l13.392-4.65-5.983-17.23-10.773 3.74a44.99 44.99 0 0 1 3.367 17.768Z" class="colorff9f33 svgShape"/><path fill="#ff4f67" d="m179.362 673.428 60.436 8.426 90.786 11.29c6.155 1.301 15.004 6.159 15.004 18.87l19.2 120.804-9.088 4.022-32.066-111.824-115.886-.363a31.868 31.868 0 0 1-30.376-35.967Z" class="colorff4f67 svgShape"/><path fill="#113251" d="m340.524 850.894-9.287-.306-9.189-3.302.267-8.089 9.139 4.8 9.215 2.496-.145 4.401z" class="color113251 svgShape"/><path fill="#113251" d="m319.06 850.187-7.043-.232.365-11.085 9.933.327-.267 8.089-2.988 2.901zM386.271 835.439l-8.498 3.76-9.71 1.02-3.275-7.401 10.316.351 9.385-1.756 1.782 4.026zM366.632 844.13l-6.444 2.852-4.488-10.142 9.088-4.022 3.275 7.401-1.431 3.911z" class="color113251 svgShape"/><path fill="#ffd7cf" d="m352.726 542.406 7.241-7.706a9.894 9.894 0 0 1 7.28-3.142l8.643.043a.557.557 0 0 1 .29 1.03l-8.87 5.507a2.89 2.89 0 0 0-1.356 2.698 7.34 7.34 0 0 1-2.705 6.329l-3.083 2.487Z" class="colorffd7cf svgShape"/><path fill="#3a61df" d="m169.453 693.144 78.753-8.99 2.719-113.936a33.169 33.169 0 0 0-36.927-33.452l-43.122 4.922a33.169 33.169 0 0 0-27.287 44.623l20.469 54.466Z" class="color3a61df svgShape"/><path fill="#3a61df" d="m360.388 550.07-7.662-7.664-76.044 33.348-35.649-29.657-14.819 37.202 29.88 17.664a23.687 23.687 0 0 0 24.75-.393Z" class="color3a61df svgShape"/><path fill="#ffd7cf" d="m283.686 619.619 10.376-2.04a9.894 9.894 0 0 1 7.747 1.692l6.996 5.073a.557.557 0 0 1-.364 1.007l-10.417-.698a2.89 2.89 0 0 0-2.675 1.402 7.34 7.34 0 0 1-5.887 3.564l-3.955.224Z" class="colorffd7cf svgShape"/><path fill="#3a61df" d="m285.444 630.312-1.758-10.693-81.226-17.238-11.674-44.878-33.729 21.586 13.98 31.771a23.687 23.687 0 0 0 20.338 14.11Z" class="color3a61df svgShape"/><path fill="#ffd7cf" d="M181.885 487.255h28.641v24.28a8.768 8.768 0 0 1-8.768 8.768h-14.964a4.909 4.909 0 0 1-4.909-4.909v-28.139Z" transform="rotate(-19.149 196.206 503.779)" class="colorffd7cf svgShape"/><path fill="#ffffff" d="m206.841 537.609 5.664 33.463-28.885-30.812 12.799-1.461 10.422-1.19z" class="colorfff svgShape"/><path fill="#ffd7cf" d="m187.653 513.927 12.968-4.564 6.22 28.246-5.955 6.727-17.266-4.076 4.033-26.333z" class="colorffd7cf svgShape"/><path fill="#ff9f33" d="m174.286 498.032 23.992-8.33a13.29 13.29 0 0 0 8.196-16.915l-26.153 9.08a11.003 11.003 0 0 0-6.785 14.004Z" class="colorff9f33 svgShape"/><path fill="#ffd7cf" d="M180.466 507.71a2.844 2.844 0 1 0 1.754-3.62 2.844 2.844 0 0 0-1.754 3.62Z" class="colorffd7cf svgShape"/><path fill="#ff4f67" d="m242.901 704.804 90.908 7.178-11.494 127.215-9.933-.327-3.742-102.096-104.005-12.399 38.266-19.571z" class="colorff4f67 svgShape"/><path fill="#113251" d="M181.88 504.395a1.5 1.5 0 0 1-1.378-.909c-3.147-7.334-3.503-13.647-1.059-18.762a18.03 18.03 0 0 1 10.576-8.943 1.5 1.5 0 0 1 .815 2.887c-.06.017-6.046 1.79-8.699 7.38-2.038 4.297-1.66 9.766 1.124 16.255a1.501 1.501 0 0 1-1.378 2.092ZM197.74 513.766l-10.774-1.556a1 1 0 1 1 .286-1.98l10.18 1.471 8.171-3.849a1 1 0 0 1 .853 1.81Z" class="color113251 svgShape"/><path fill="#3a61df" d="M174.386 508.105a9 9 0 1 0 4.308-11.977 9 9 0 0 0-4.308 11.977Z" class="color3a61df svgShape"/><path fill="#ffffff" d="M177.793 506.5a5.234 5.234 0 1 0 2.505-6.964 5.234 5.234 0 0 0-2.505 6.964ZM205.675 511.135l1.734-.817a2 2 0 0 0-1.704-3.619l-1.734.817a2 2 0 0 0 1.704 3.619Z" class="colorfff svgShape"/><path fill="#d1d1df" d="M272.72 650.444h14.355v200.449H272.72zM1113.659 650.444h14.355v200.449h-14.355z" class="colord1d1df svgShape"/><path fill="#d1d1df" d="M229.776 633.779h941.182v27.625H229.776z" class="colord1d1df svgShape"/><path fill="#ffd7cf" d="M556.705 490.58H583.9v21.288a10.093 10.093 0 0 1-10.093 10.093h-11.453a5.65 5.65 0 0 1-5.65-5.65v-25.73Z" class="colorffd7cf svgShape"/><path fill="#ffd7cf" d="m574.988 511.608-12.726 2.908-6.64 24.41h22.193l-2.827-27.318zM566.718 506.27a3.816 3.816 0 1 1-3.816-3.816 3.816 3.816 0 0 1 3.816 3.817Z" class="colorffd7cf svgShape"/><path fill="#3a61df" d="M567.864 477.46h3.96a13.07 13.07 0 0 1 13.07 13.07v19.802a13.07 13.07 0 0 1-13.07 13.07h-3.96a13.07 13.07 0 0 1-13.07-13.07V490.53a13.07 13.07 0 0 1 13.07-13.07Z" class="color3a61df svgShape"/><path fill="#ff9f33" d="m472.632 629.334-.266-.24a17.045 17.045 0 0 1-.712-24.6l58.403-57.737 16.17 21.779-49.048 59.049a17.046 17.046 0 0 1-24.547 1.75ZM660.379 629.334l.266-.24a17.046 17.046 0 0 0 .712-24.6l-58.403-57.737-16.17 21.779 49.047 59.049a17.046 17.046 0 0 0 24.548 1.75Z" class="colorff9f33 svgShape"/><path fill="#ffd7cf" d="m518.5 723.623 11.171 119.215h9.245l11.951-111.823-32.367-7.392z" class="colorffd7cf svgShape"/><path fill="#113251" d="M529.672 842.838h9.251v8.343h-9.251z" class="color113251 svgShape"/><path fill="#ffd7cf" d="m606.337 723.623-10.631 119.215h-9.245L573.97 731.015l32.367-7.392z" class="colorffd7cf svgShape"/><path fill="#113251" d="M586.492 842.838h9.229v8.343h-9.229z" class="color113251 svgShape"/><path fill="#ff9f33" d="M610.59 734.432c16.081-51.082 11.564-107.696 4.536-156.212 0 0-7.04-29.034-15.327-34.55a29.642 29.642 0 0 0-16.456-4.745h-33.498a28.754 28.754 0 0 0-23.284 11.882l-.224.309c-3.566 4.915-5.487 16.905-5.487 16.905-14.31 54.301-19.147 111.157-5.29 166.41Z" class="colorff9f33 svgShape"/><path fill="#3a61df" d="M569.99 605.12h-.291a13.234 13.234 0 0 1-13.186-14.363l8.06-94.092h10.544l8.058 94.092a13.234 13.234 0 0 1-13.185 14.363Z" class="color3a61df svgShape"/><path fill="#ff9f33" d="M587.543 491.028h-3a12.582 12.582 0 0 0-12.567-12.568h-4.263a12.582 12.582 0 0 0-12.568 12.568h-3a15.585 15.585 0 0 1 15.568-15.568h4.263a15.585 15.585 0 0 1 15.567 15.568Z" class="colorff9f33 svgShape"/><path fill="#ff9f33" d="M549.94 487.678h3.525v13.019h-3.526a3.244 3.244 0 0 1-3.243-3.244v-6.531a3.244 3.244 0 0 1 3.243-3.244Z" class="colorff9f33 svgShape"/><path fill="#ff4f67" d="M552.957 503.515a1.838 1.838 0 0 1-1.838-1.837v-14.981a1.838 1.838 0 1 1 3.675 0v14.98a1.838 1.838 0 0 1-1.837 1.838Z" class="colorff4f67 svgShape"/><path fill="#ff9f33" d="M589.472 488.049H593v13.018h-3.527a3.244 3.244 0 0 1-3.243-3.243v-6.532a3.244 3.244 0 0 1 3.243-3.243Z" transform="rotate(180 589.614 494.558)" class="colorff9f33 svgShape"/><path fill="#ff4f67" d="M586.738 503.886a1.838 1.838 0 0 0 1.837-1.838v-14.98a1.838 1.838 0 1 0-3.675 0v14.98a1.838 1.838 0 0 0 1.838 1.838ZM548.401 688.435h30.374v47.16h-30.374zM556.261 746.519h14.654v62.347h-14.654z" class="colorff4f67 svgShape"/><rect width="103.646" height="71.14" x="511.765" y="630.312" fill="#113251" rx="29.844" class="color113251 svgShape"/><path fill="#113251" d="M521.84 722.5h83.495a10.076 10.076 0 0 1 10.076 10.077v3.866a10.076 10.076 0 0 1-10.076 10.076h-83.494a10.076 10.076 0 0 1-10.076-10.076v-3.866a10.076 10.076 0 0 1 10.076-10.076ZM613.084 841.371h-6.004a29.537 29.537 0 0 0-29.505-29.501h-29.308a29.534 29.534 0 0 0-29.502 29.501h-6.004a35.546 35.546 0 0 1 35.506-35.505h29.308a35.547 35.547 0 0 1 35.509 35.505Z" class="color113251 svgShape"/><path fill="#113251" d="M560.586 808.868h6.004v33.97h-6.004z" class="color113251 svgShape"/><circle cx="515.762" cy="842.838" r="7.86" fill="#d1d1df" transform="rotate(-45 515.762 842.838)" class="colord1d1df svgShape"/><circle cx="610.082" cy="842.838" r="7.86" fill="#d1d1df" transform="rotate(-76.717 610.082 842.838)" class="colord1d1df svgShape"/><circle cx="563.588" cy="842.838" r="7.86" fill="#d1d1df" transform="rotate(-76.717 563.588 842.838)" class="colord1d1df svgShape"/><path fill="#ff4f67" d="M855.45 740.657h-53.488a22.122 22.122 0 0 1-22.122-22.122v-14.857h97.732v14.857a22.122 22.122 0 0 1-22.121 22.122Z" class="colorff4f67 svgShape"/><path fill="#113251" d="M765.11 710.291h130.574L879.29 562.11a18.778 18.778 0 0 0-18.664-16.713h-60.458a18.778 18.778 0 0 0-18.664 16.713l-7.272 65.734Z" class="color113251 svgShape"/><path fill="#ffd7cf" d="m823.569 519.053 12.66-.102 6.243 26.445-14.094.001-11.976-.001 7.167-26.343z" class="colorffd7cf svgShape"/><path fill="#113251" d="m811.163 634.965 4.401-9.69L769.78 613.3l38.805-49.741-22.494-11.8-47.297 61.354a15.135 15.135 0 0 0 3.242 21.328ZM849.698 634.965l-4.402-9.69 45.785-11.974-38.806-49.741 22.495-11.8 47.297 61.354a15.135 15.135 0 0 1-3.243 21.328Z" class="color113251 svgShape"/><path fill="#ff9f33" d="M827.03 484.098h4.814a13.436 13.436 0 0 1 13.435 13.435v21.49a8.063 8.063 0 0 1-8.063 8.064h-15.558a8.063 8.063 0 0 1-8.064-8.063v-21.49a13.436 13.436 0 0 1 13.436-13.437Z" class="colorff9f33 svgShape"/><path fill="#ff4f67" d="m787.159 725.015 11.171 117.823h9.245l11.951-110.432-32.367-7.391z" class="colorff4f67 svgShape"/><path fill="#113251" d="M798.343 842.838h9.22v8.343h-9.22z" class="color113251 svgShape"/><path fill="#ff4f67" d="m874.996 725.015-10.631 117.823h-9.244l-12.492-110.432 32.367-7.391z" class="colorff4f67 svgShape"/><path fill="#113251" d="M855.125 842.838h9.23v8.343h-9.23zM847.826 498.29h-3a12.582 12.582 0 0 0-12.567-12.568h-4.263a12.582 12.582 0 0 0-12.568 12.568h-3a15.585 15.585 0 0 1 15.568-15.568h4.263a15.585 15.585 0 0 1 15.567 15.568Z" class="color113251 svgShape"/><path fill="#113251" d="M810.222 494.94h3.526v13.018h-3.526a3.244 3.244 0 0 1-3.244-3.243v-6.531a3.244 3.244 0 0 1 3.244-3.244Z" class="color113251 svgShape"/><path fill="#ff4f67" d="M813.24 510.777a1.838 1.838 0 0 1-1.838-1.837v-14.981a1.838 1.838 0 0 1 3.675 0v14.98a1.838 1.838 0 0 1-1.838 1.838Z" class="colorff4f67 svgShape"/><path fill="#113251" d="M849.755 495.31h3.526v13.02h-3.526a3.244 3.244 0 0 1-3.243-3.244v-6.532a3.244 3.244 0 0 1 3.243-3.243Z" transform="rotate(180 849.896 501.82)" class="color113251 svgShape"/><path fill="#ff4f67" d="M847.02 511.148a1.838 1.838 0 0 0 1.838-1.838v-14.98a1.838 1.838 0 1 0-3.675 0v14.98a1.838 1.838 0 0 0 1.837 1.838Z" class="colorff4f67 svgShape"/><path fill="#3a61df" d="M815.85 688.918h30.374v47.16H815.85zM823.71 747.002h14.654v62.347H823.71z" class="color3a61df svgShape"/><path fill="#ff9f33" d="M809.058 630.795h43.958a29.844 29.844 0 0 1 29.844 29.844v11.452a29.844 29.844 0 0 1-29.844 29.844h-43.958a29.844 29.844 0 0 1-29.844-29.844v-11.452a29.844 29.844 0 0 1 29.844-29.844Z" class="colorff9f33 svgShape"/><rect width="103.646" height="24.018" x="779.214" y="722.984" fill="#ff9f33" rx="10.076" class="colorff9f33 svgShape"/><path fill="#113251" d="M880.533 841.855h-6.004a29.537 29.537 0 0 0-29.504-29.502h-29.309a29.534 29.534 0 0 0-29.502 29.502h-6.004a35.546 35.546 0 0 1 35.506-35.506h29.308a35.547 35.547 0 0 1 35.51 35.506Z" class="color113251 svgShape"/><path fill="#113251" d="M828.035 809.351h6.004v33.97h-6.004z" class="color113251 svgShape"/><circle cx="783.211" cy="843.321" r="7.86" fill="#3a61df" class="color3a61df svgShape"/><circle cx="877.531" cy="843.321" r="7.86" fill="#3a61df" class="color3a61df svgShape"/><circle cx="831.037" cy="843.321" r="7.86" fill="#3a61df" class="color3a61df svgShape"/><circle cx="832.765" cy="268.469" r="74.698" fill="#ff9f33" transform="rotate(-45 832.765 268.469)" class="colorff9f33 svgShape"/><circle cx="832.765" cy="268.469" r="27.069" fill="#ffffff" transform="rotate(-36.011 832.765 268.469)" class="colorfff svgShape"/><path fill="#3a61df" d="M778.073 335.087q-5.595 9.47-10.515 19.473a105.737 105.737 0 0 0 19.456 11.734q6.551-9.006 12.32-18.376a86.294 86.294 0 0 0 16.835 5.12l3.357-17.11a68.323 68.323 0 0 1-40.248-24.292l-13.575 10.942a85.238 85.238 0 0 0 12.37 12.51Z" class="color3a61df svgShape"/><path fill="#3a61df" d="M748.06 284.34q-10.433 3.682-20.569 8.183a108.486 108.486 0 0 0 7.363 21.469 284.744 284.744 0 0 0 21.264-6.167 87.027 87.027 0 0 0 9.585 14.753l13.576-10.942a68.631 68.631 0 0 1-15.235-44.467l-17.432-.355a85.614 85.614 0 0 0 1.447 17.525Z" class="color3a61df svgShape"/><path fill="#3a61df" d="M757.673 226.178q-10.372-3.894-21.013-6.951a107.88 107.88 0 0 0-8.153 21.184 284.488 284.488 0 0 0 20.251 8.941 86.918 86.918 0 0 0-2.147 17.462l17.433.355a67.925 67.925 0 0 1 4.606-23.47 67.096 67.096 0 0 1 12.308-20.403L767.83 211.82a85.889 85.889 0 0 0-10.157 14.357Z" class="color3a61df svgShape"/><path fill="#3a61df" d="M802.43 187.805q-5.424-9.579-11.644-18.842a108.92 108.92 0 0 0-19.835 10.986 285.45 285.45 0 0 0 9.74 19.869 86.767 86.767 0 0 0-12.86 12.003l13.127 11.475a68.647 68.647 0 0 1 18.603-15.008 69.723 69.723 0 0 1 22.57-7.758l-2.697-17.226a85.072 85.072 0 0 0-17.004 4.501ZM861.376 187.179q1.999-10.823 3.184-21.915a108.224 108.224 0 0 0-22.225-4.361Q839.24 171.61 837 182.395a85.888 85.888 0 0 0-17.566.909l2.698 17.226a69.083 69.083 0 0 1 46.155 9.058l9.008-14.929a85.847 85.847 0 0 0-15.919-7.48ZM906.924 224.591a285.695 285.695 0 0 0 16.526-14.714 108.891 108.891 0 0 0-14.212-17.667q-9.253 6.218-17.9 13.043a85.076 85.076 0 0 0-14.043-10.594l-9.008 14.929a69.717 69.717 0 0 1 17.965 15.714 68.63 68.63 0 0 1 11.55 20.924l16.492-5.661a86.756 86.756 0 0 0-7.37-15.974Z" class="color3a61df svgShape"/><path fill="#3a61df" d="M917.766 282.52a284.41 284.41 0 0 0 22.129-.624 107.896 107.896 0 0 0 .458-22.695q-11.026-1.189-22.082-1.505a85.901 85.901 0 0 0-3.977-17.131l-16.492 5.661a67.095 67.095 0 0 1 3.685 23.543 67.925 67.925 0 0 1-4.607 23.47l16.274 6.259a86.906 86.906 0 0 0 4.612-16.978Z" class="color3a61df svgShape"/><path fill="#3a61df" d="M888.853 333.874a284.661 284.661 0 0 0 17.356 13.746 108.452 108.452 0 0 0 14.93-17.093q-7.665-7.987-15.949-15.35a85.59 85.59 0 0 0 7.964-15.68l-16.273-6.259a68.631 68.631 0 0 1-30.911 35.412l8.433 15.26a87.013 87.013 0 0 0 14.45-10.036ZM833.69 354.66q1.799 10.847 4.46 21.67a105.82 105.82 0 0 0 22.448-3.51q-.772-11.113-2.375-22.003a85.212 85.212 0 0 0 16.18-6.907l-8.433-15.26a68.327 68.327 0 0 1-46.444 7.278l-3.357 17.11a86.356 86.356 0 0 0 17.52 1.622Z" class="color3a61df svgShape"/><circle cx="601.464" cy="369.984" r="41.884" fill="#ff4f67" transform="rotate(-21.454 601.464 369.984)" class="colorff4f67 svgShape"/><circle cx="601.464" cy="369.984" r="19.614" fill="#ffffff" class="colorfff svgShape"/><path fill="#ff4f67" d="M570.797 407.337q-3.137 5.31-5.896 10.92a59.292 59.292 0 0 0 10.91 6.578q3.673-5.05 6.907-10.303a48.39 48.39 0 0 0 9.44 2.87l1.882-9.593a38.31 38.31 0 0 1-22.567-13.62l-7.612 6.134a47.799 47.799 0 0 0 6.936 7.014ZM553.968 378.882q-5.85 2.065-11.533 4.59a60.83 60.83 0 0 0 4.128 12.037c4.01-.992 8.015-2.16 11.924-3.458a48.792 48.792 0 0 0 5.374 8.272l7.612-6.135a38.483 38.483 0 0 1-8.542-24.933l-9.775-.2a48.004 48.004 0 0 0 .812 9.827Z" class="colorff4f67 svgShape"/><path fill="#ff4f67" d="M559.359 346.27q-5.816-2.183-11.783-3.897a60.49 60.49 0 0 0-4.572 11.878 159.57 159.57 0 0 0 11.356 5.014 48.73 48.73 0 0 0-1.204 9.79l9.775.2a38.088 38.088 0 0 1 2.582-13.16 37.623 37.623 0 0 1 6.902-11.44l-7.361-6.434a48.153 48.153 0 0 0-5.695 8.05ZM584.454 324.754q-3.041-5.37-6.529-10.564a61.07 61.07 0 0 0-11.121 6.16 160.107 160.107 0 0 0 5.46 11.14 48.642 48.642 0 0 0-7.21 6.73l7.36 6.434a38.489 38.489 0 0 1 10.431-8.414 39.096 39.096 0 0 1 12.656-4.35l-1.512-9.66a47.701 47.701 0 0 0-9.535 2.524Z" class="colorff4f67 svgShape"/><path fill="#ff4f67" d="M617.506 324.403q1.12-6.068 1.785-12.287a60.676 60.676 0 0 0-12.462-2.446q-1.735 6.004-2.991 12.05a48.164 48.164 0 0 0-9.85.51l1.513 9.66a38.736 38.736 0 0 1 25.88 5.078l5.051-8.37a48.138 48.138 0 0 0-8.926-4.195Z" class="colorff4f67 svgShape"/><path fill="#ff4f67" d="M643.045 345.38a160.251 160.251 0 0 0 9.267-8.25 61.06 61.06 0 0 0-7.969-9.906q-5.188 3.487-10.037 7.314a47.702 47.702 0 0 0-7.874-5.94l-5.05 8.37a39.093 39.093 0 0 1 10.072 8.811 38.484 38.484 0 0 1 6.477 11.733l9.247-3.174a48.641 48.641 0 0 0-4.133-8.957Z" class="colorff4f67 svgShape"/><path fill="#ff4f67" d="M649.125 377.862c4.134.043 8.281-.07 12.408-.35a60.5 60.5 0 0 0 .256-12.725q-6.182-.667-12.381-.844a48.168 48.168 0 0 0-2.23-9.605l-9.247 3.174a37.622 37.622 0 0 1 2.066 13.2 38.085 38.085 0 0 1-2.583 13.16l9.125 3.51a48.723 48.723 0 0 0 2.586-9.52ZM632.913 406.657a159.66 159.66 0 0 0 9.732 7.708 60.819 60.819 0 0 0 8.371-9.585q-4.298-4.478-8.943-8.607a47.991 47.991 0 0 0 4.466-8.791l-9.125-3.51a38.483 38.483 0 0 1-17.332 19.856l4.729 8.557a48.791 48.791 0 0 0 8.102-5.628ZM601.982 418.312q1.009 6.082 2.501 12.15a59.336 59.336 0 0 0 12.587-1.968q-.433-6.23-1.332-12.337a47.777 47.777 0 0 0 9.073-3.872l-4.73-8.557a38.312 38.312 0 0 1-26.04 4.081l-1.883 9.594a48.418 48.418 0 0 0 9.824.91Z" class="colorff4f67 svgShape"/></svg>