<svg xmlns="http://www.w3.org/2000/svg" data-name="Layer 1" viewBox="0 0 3555.56 2000"><path fill="#53d86a" d="M169.84,1698.81H3189.25s203.79-95.65,153.88-349.35-335.81-332.83-612.56-151.58c0,0,250-356.18,13-601.55-271.77-281.31-695.24,17-695.24,17S1892.86,316.12,1459.8,315c-426.49-1.12-622.41,352.71-429,772.47,0,0-174.68-149.73-386.78-70.71s-320.24,303.61-183,507.4C461,1524.14,248.86,1490.86,169.84,1698.81Z" class="colorfdeaee svgShape"/><path fill="#1f2180" d="M2003.17,1552.16c-98.21-10-224.48-111.18-386-309.46-139.44-171.18-282.93-386.93-409.53-577.28C1045.06,421,904.61,209.77,847.37,209.77h-.15c-6.93,0-12.39,3.32-16.71,10L826.15,217c5.27-8.16,12.34-12.32,21-12.38h.18c60,0,194.46,202.12,364.61,458,126.53,190.26,270,405.9,409.23,576.88,160.61,197.16,285.72,297.76,382.5,307.57Z" class="color1f4480 svgShape"/><path fill="#1f2180" d="M2036.52 1593.56H801.94c-112.13 0-206-56-279-166.48-42.61-64.47-77.75-147.09-104.46-245.56-22.85-84.28-39-177.62-47.95-277.43-9.64-107.32-8.33-192.29-5.53-244.68 3.62-67.8 12-121.61 23.13-147.62 15.3-35.92 34.86-54.71 58.13-55.86 24.43-1.21 52.06 16.81 82 53.53a411.51 411.51 0 0137.52 55.07L561.24 567c-.59-1.08-60.19-108.6-114.75-105.9-21.11 1-39.15 18.78-53.6 52.71C350 614.57 345.05 1148.54 527.26 1424.22c72 108.92 164.4 164.14 274.68 164.14H2036.52zM2028.73 1543c-1.28 0-31.6-.36-64.83-24.57-19.44-14.16-35.79-33.6-48.59-57.79-15.94-30.08-26.4-67.63-31.1-111.6-9.57-89.42-5.55-212.34-1.29-342.48 4.89-149.71 10.44-319.39-4.62-463-17.18-163.87-58.65-270.45-126.78-325.85-30-24.37-62.62-34-97-28.65-47 7.31-89.38 41.49-116.66 68.88a419.33 419.33 0 00-48.55 58.44l-4.34-2.84a424.26 424.26 0 0149.21-59.26c27.83-27.94 71.17-62.83 119.54-70.35 36-5.59 70 4.42 101.11 29.75C1824 270 1866.13 377.74 1883.47 543c15.09 144 9.54 313.83 4.64 463.7-4.25 130-8.26 252.7 1.26 341.76 10.45 97.67 47.81 143.93 77.32 165.55 31.89 23.35 61.75 23.76 62 23.76z" class="color1f4480 svgShape"/><path fill="#fee8d0" d="M1941.35,1652.3s474.47-66,599.28-272.23-297.36-87.32-297.36-87.32,180.88-110.34,175.46-209.83-208-9-208-9,414.22-220.68,419.65-365.39-209.83-66.93-209.83-66.93S2558,477,2487.46,399.18s-346.85,146.87-411.91,495.93c0,0-9.75-203.6-110.25-225.48-138.83-30.23-125.41,429.57,21.11,632.16,0,0-268.91-224.19-350.31-99.38S1783.14,1620.79,1941.35,1652.3Z" class="colorfed0da svgShape"/><path fill="#fed6ac" d="M1943.92,1652.7c41.8-270.1,147.81-535.87,229.39-711.27,88.41-190.09,168-317.92,168.75-319.19l-4.4-2.76c-.8,1.28-80.48,129.33-169,319.69-52,111.81-96.85,222.93-133.29,330.28-45.57,134.22-78,262.9-96.56,382.46Z" class="colorfeacbd svgShape"/><path fill="#fed6ac" d="M1974.6,1471.91l1-.06c151-8.46,326.91-57.32,328.67-57.81l-1.4-5c-1.75.49-176.34,49-326.58,57.57l-110.84-87.44-3.21,4.08Z" class="colorfeacbd svgShape"/><polygon fill="#fed6ac" points="2267.54 748.15 2381.46 697.33 2379.34 692.59 2270.78 741.02 2233.54 620.1 2228.57 621.63 2267.54 748.15" class="colorfeacbd svgShape"/><rect width="3273.7" height="5.19" x="98.79" y="1696.22" fill="#0f103e" class="color0f213e svgShape"/><path fill="#0f103e" d="M2461.3 215.86a15.25 15.25 0 1115.25-15.25A15.26 15.26 0 012461.3 215.86zm0-25.3a10.06 10.06 0 1010.06 10.05A10.06 10.06 0 002461.3 190.56zM3441.52 1225.22a15.25 15.25 0 1115.25-15.24A15.26 15.26 0 013441.52 1225.22zm0-25.3a10.06 10.06 0 1010.06 10.06A10.07 10.07 0 003441.52 1199.92zM278.77 1411.26A15.25 15.25 0 11294 1396 15.27 15.27 0 01278.77 1411.26zm0-25.3a10.06 10.06 0 1010.05 10A10.06 10.06 0 00278.77 1386zM185.74 725.48a52.35 52.35 0 1152.35-52.35A52.4 52.4 0 01185.74 725.48zm0-99.5a47.16 47.16 0 1047.16 47.15A47.2 47.2 0 00185.74 626zM3144.55 286.81a52.35 52.35 0 1152.34-52.34A52.4 52.4 0 013144.55 286.81zm0-99.5a47.16 47.16 0 1047.15 47.16A47.21 47.21 0 003144.55 187.31z" class="color0f213e svgShape"/><rect width="5.19" height="72.9" x="494.06" y="148.59" fill="#0f103e" class="color0f213e svgShape"/><rect width="72.9" height="5.19" x="460.21" y="182.44" fill="#0f103e" class="color0f213e svgShape"/><rect width="5.19" height="72.9" x="3273.65" y="758.46" fill="#0f103e" class="color0f213e svgShape"/><rect width="72.9" height="5.19" x="3239.8" y="792.31" fill="#0f103e" class="color0f213e svgShape"/><rect width="5.19" height="72.9" x="2122.17" y="236.77" fill="#0f103e" class="color0f213e svgShape"/><rect width="72.9" height="5.19" x="2088.32" y="270.63" fill="#0f103e" class="color0f213e svgShape"/><rect width="5.19" height="72.9" x="219.6" y="1086.39" fill="#0f103e" class="color0f213e svgShape"/><rect width="72.9" height="5.19" x="185.74" y="1120.24" fill="#0f103e" class="color0f213e svgShape"/><path fill="#0f103e" d="M2687.8,905.25,2732,720.84l5.05,1.21-40.5,169L2831.88,776.3l1.34.39a241.31,241.31,0,0,0,305.24-267.9c-19.84-131.54-143-222.42-274.55-202.58l-.77-5.13c134.39-20.27,260.18,72.56,280.45,206.94a246.55,246.55,0,0,1-310.47,274Z" class="color0f213e svgShape"/><circle cx="2899.43" cy="548.56" r="188.93" fill="#fecc98" transform="rotate(-45 2899.433 548.565)" class="colorfe98ae svgShape"/><rect width="64.2" height="201.16" x="2868.01" y="447.98" fill="#ffffff" class="colorfff svgShape"/><rect width="201.16" height="64.2" x="2799.53" y="516.46" fill="#ffffff" class="colorfff svgShape"/><rect width="5.19" height="814.61" x="1178.88" y="741.6" fill="#0f103e" class="color0f213e svgShape"/><path fill="#0f103e" d="M886.26,1698c0-78.31,133.33-141.79,297.81-141.79s297.82,63.48,297.82,141.79Z" class="color0f213e svgShape"/><path fill="#fecc98" d="M807.56,1239.45s-34.92,42.2-110.58,16-48-69.85-48-69.85-33.47-29.1-27.65-49.47c0,0-20.37-14.55-20.37-56.75,0,0-27.65-2.91-18.92-53.84,0,0-53.84,11.64-37.83-65.48,0,0-52.38-39.29-52.38-122.23S551.46,715.61,542.73,656s24.74-197.9,128-221.18c0,0,27.65-69.84,107.68-84.39s48-66.94,164.43-88.77,250.28,0,250.28,0,29.1-32,64-16,113.5,37.83,136.78,46.56,61.12,46.57,122.23,40.74,147,33.47,180.44,62.57,58.2,96,58.2,96,42.2-4.36,62.57,30.56,13.1,123.68,13.1,123.68,33.47,5.82,45.11,46.57,64,98.95,16,142.6c0,0,59.66,141.14-91.67,145.51,0,0-58.2,91.67-151.33,66.93,0,0-61.12,85.86-164.43,34.93,0,0-33.47,100.4-82.94,119.32s-112-7.28-129.51,14.55-55.29,52.06-116.4,47.86-161.52-33.31-161.52-33.31,0,61.11-93.13,103.31c0,0-68.39,164.43-112,195s-94.58,0-43.66-96,87.31-129.51,87.31-129.51S817.75,1300.56,807.56,1239.45Z" class="colorfe98ae svgShape"/><path fill="#fe9526" d="M745,1433c50.93-96,87.31-129.51,87.31-129.51s-14.55-2.91-24.74-64c0,0,119-3.64,167-133.51,0,0,104.77,30.56,168.06,27.29s91.68-27.29,91.68-27.29,70.93,37.11,103.67,18.56,146.24-42.2,146.24-42.2-33.47,100.4-82.94,119.32-112-7.28-129.51,14.55-55.29,52.06-116.4,47.86-161.52-33.31-161.52-33.31,0,61.11-93.13,103.31c0,0-68.39,164.43-112,195S694.07,1529,745,1433Z" class="coloree4e70 svgShape"/><path fill="#f5b571" d="M973.2 1108.17c-.75-.45-76.12-45.12-130.07-31.36-25.09 6.39-44-4.55-65.9-17.23-28.46-16.47-63.88-37-128.71-29.63l-.58-5.16c66.52-7.53 102.77 13.44 131.89 30.3 21.78 12.6 39 22.56 62 16.69 56.06-14.29 130.87 30 134 31.94zM695.47 1005.16c-.28-.29-27.62-28.81-41.81-50.59-13.49-20.69-59-31.52-59.5-31.63l-19-4.42 19.48-.7c.3 0 29.88-1.35 51.78-22.2 8.19-7.81 7.51-18.81 5.49-26.67-5.81-22.66-28.82-45.93-51.29-51.88-35.15-9.32-101.38 63.93-102.05 64.67l-3.86-3.47c2.8-3.12 69-76.33 107.24-66.22 24.5 6.48 48.66 30.91 55 55.61 3.34 13 .88 24.27-6.94 31.72-14.35 13.67-31.41 19.45-42.73 21.88 15.18 4.83 40.55 14.88 50.72 30.48 13.93 21.37 40.93 49.54 41.2 49.82z" class="colorf5718e svgShape"/><path fill="#f5b571" d="M738.67,1039.6c-22.3-31.94-20.88-59.26-15.75-76.55a80.4,80.4,0,0,1,14.74-28c-41.76-30.79-58.54-128.93-59.25-133.17l-1-5.95,5,3.37c54.83,36.89,130.16,26.44,140,24.88,35.78-53.72,47.58-99.46,51.17-128.45,3-24.43.88-41.36-.26-47.85-32.85,12.64-51.4-4.74-62.61-15.25-3.39-3.18-6.9-6.47-8.59-6.47-10.76,0-46.93-5.58-68.25-23.53-19.65-16.55-23.28-53.32-27.86-99.86q-.69-7-1.42-14.27c-5.13-50.25-32.64-51.13-33.81-51.14v-5.19c1.36,0,33.33.63,39,55.8q.75,7.31,1.43,14.29c4.47,45.37,8,81.21,26,96.4,20,16.82,55,22.31,64.9,22.31,3.75,0,7.27,3.3,12.14,7.87,11.31,10.59,28.38,26.6,60,13.07l2.79-1.19.75,2.93c.21.8,5,20,1,52.39-3.64,29.78-15.74,76.85-52.67,132l-.61.91-1.08.19c-.85.16-21.34,3.87-49.55,2.64-24.7-1.08-59.82-6.33-90.22-24.86,4.43,22.32,22.46,101.93,58.34,125.54l2.64,1.75-2.22,2.25a73.35,73.35,0,0,0-15.56,28.32c-6.88,23.49-1.8,47.67,15.1,71.87Z" class="colorf5718e svgShape"/><path fill="#f5b571" d="M605.94 793.29l4.23-5.43c.19-.24 19-24.51 35.55-51.36 28.39-46.18 26.57-61.6 22.95-66.68-15.75-22.11-59.46-5.79-59.9-5.62l-11.67 4.45 8.94-8.74c.74-.72 74.19-73.22 78.89-142.37l5.18.35c-2.53 37.27-24.3 74.94-42.12 100a390.37 390.37 0 01-31.31 38.46c14.94-3.87 43-8 56.22 10.49 7.86 11 .41 34.74-22.78 72.44-11.88 19.32-25 37.3-31.54 46.11 16.79-4.1 59.83-16.68 76.62-41 20.89-30.28 6.34-81.32 6.19-81.83l-3.76-12.93 8.3 10.6c.31.4 31.63 40.14 56 53.91 7 4 13.33 5 18.76 3 8.63-3.07 12.43-12.56 12.47-12.65l4.61-11.77.4 12.63c1 31.28 34.63 37.65 36.06 37.91l-.91 5.11c-.36-.06-33.36-6.23-39.41-35a25.5 25.5 0 01-11.48 8.7c-6.91 2.46-14.67 1.3-23-3.43-18.31-10.35-39.62-33.85-50.45-46.62 3.32 17.37 6.92 51.58-9.43 75.3C677.3 779.43 615.33 791.51 612.7 792zM1720.32 789.54c-36.85 0-77.13-11.06-79.68-11.77l1.4-5c.93.26 93 25.53 124.28.47 25.54-20.44 22.23-55.08-10.43-109-24-39.6-80-35.91-80.52-35.86l-6.34.47 4.19-4.78c.23-.26 22.75-26.28 12.71-47.37-5.31-11.15-25.18-21.45-42.71-30.53s-34.09-17.67-38.11-27.44c-7.23-17.56 20.65-55 29-65.68-45.7-24.12-84.4 13.75-84.8 14.15l-3.67-3.68a92.37 92.37 0 0127.72-17.75c15.6-6.44 39.71-10.94 66 4.25l2.64 1.52-1.93 2.36c-10.35 12.72-35.95 48.82-30.17 62.86 3.3 8 19.77 16.54 35.7 24.8 19.15 9.92 38.94 20.18 45 32.91 8.94 18.76-3.49 39.62-10 48.58a126.28 126.28 0 0127.2 3.21c23.72 5.52 41.88 17.72 52.52 35.29 21.56 35.62 46 86.37 9.22 115.78C1758.06 786.49 1739.66 789.54 1720.32 789.54z" class="colorf5718e svgShape"/><path fill="#f5b571" d="M1802.35 981.44l-4.8-2c15.89-38.13 17.2-65.39 3.88-81-20.67-24.28-70.58-12.69-71.08-12.57l-.78.18-.75-.28c-10.84-4.13-14.28-17.91-10.23-41a197.12 197.12 0 017-27c-12.69 4.09-46.4 14-75.33 14-13.89 0-26.66-2.28-35.49-8.58-17.68-12.63-25.5-42.63-26.93-66.5-1.37-22.83 2.34-52 16.87-65.22 26.14-23.87 102.31 15.39 105.54 17.08l-2.4 4.6c-.76-.39-76.16-39.28-99.64-17.84-10.86 9.91-16.82 33.88-15.19 61.07 1.73 28.93 11.23 52.91 24.77 62.58 29.11 20.79 110.31-7.48 111.13-7.77l5.25-1.85-2 5.22c-6 16-18 58.68-2.19 66 7.11-1.56 54-10.73 75.4 14.44C1820.07 912.28 1819.05 941.35 1802.35 981.44zM1830.17 839.1a29 29 0 01-13.59-3.09c-12.51-6.54-18.36-23.09-17.41-49.2l5.19.19c-.88 23.94 4 38.88 14.62 44.41 20.18 10.54 55.09-15.39 55.44-15.66l3.12 4.16C1876.28 820.85 1851.69 839.1 1830.17 839.1zM1822.14 699a14.61 14.61 0 01-8.36-2.35c-7.88-5.33-9.16-18.72-3.88-40.9-9.23-1.58-37.45-8.32-50.8-33.12l4.58-2.46C1778.14 647 1813 651 1813.37 651l3 .32-.74 2.9c-6.7 26.38-3.12 35.29 1.07 38.12 7.35 5 22.91-4.13 28.29-8.06l3.07 4.2C1846.25 689.79 1833.27 699 1822.14 699zM1464.33 470.68c-22.7-55.37-55.43-78-78.89-87.24-21.33-8.39-39.1-7.57-44.38-7.07-11.89 39.77-35.8 50.46-54.38 47.13-19.5-3.51-38.9-24.15-36.44-55.5 1.65-21 8.91-35.82 21.59-44 15.18-9.77 34.05-6.95 41.91-4.09 1.82.66 4.2 1.7 7.21 3 17.37 7.63 53.52 23.49 92.81 14.35 28.25-6.57 51.63 23.28 72.27 49.62 15.22 19.43 29.6 37.78 43.06 38.61 12.74.79 22.37-7.16 28.62-23.59a101.91 101.91 0 005.74-26.26l5.18.32c-.08 1.33-2.16 32.85-18.68 47.49a28.25 28.25 0 01-21.17 7.22c-15.8-1-30.87-20.21-46.84-40.58-20.64-26.35-42-53.59-67-47.77-41 9.53-78.18-6.8-96.07-14.65-2.92-1.29-5.24-2.3-6.9-2.9-7-2.56-23.85-5.09-37.32 3.57-11.24 7.24-17.71 20.7-19.22 40-2.22 28.32 14.92 46.89 32.17 50 16.62 3 38.2-7.29 49-45.1l.45-1.59 1.63-.26c.87-.14 21.74-3.35 48.42 7.07 24.5 9.57 58.62 33 82.08 90.21z" class="colorf5718e svgShape"/><path fill="#f5b571" d="M1371.28 518.42a28.65 28.65 0 01-7.33-1c-12.58-3.33-22.26-14.75-25.27-29.79-5.72-28.6 43.67-64.41 45.78-65.92l3 4.22c-.48.35-48.77 35.35-43.71 60.68 2.62 13.08 10.86 23 21.51 25.79 10.19 2.71 20.73-1.45 29.64-11.71l3.92 3.41C1390.75 513.45 1381 518.42 1371.28 518.42zM1536.37 688.21c-13.6 0-26.44-4.32-34.41-12.64a25 25 0 01-7.24-19.93c1.94-24.68 35.58-50.51 37-51.59l3.14 4.13c-.33.25-33.22 25.51-35 47.87a19.71 19.71 0 005.81 15.93c12.32 12.86 39.24 14.69 58.78 4 22.07-12.08 30.5-36.53 23.11-67.07-9.34-38.62-38.58-65.4-61.46-81.06a229.39 229.39 0 00-47.1-24.73L1431 533l-2.75-4.4 50.16-31.21 1.16.39A225.84 225.84 0 011529 523.48c23.68 16.19 53.94 43.94 63.68 84.2 8 33-1.37 59.56-25.66 72.86A64.4 64.4 0 011536.37 688.21zM1476.83 910.72l-2.74-4.41c39.76-24.76 45.1-56.85 19.71-118.41-10-24.35-12.08-44-6-58.38 5-11.81 13.64-15.44 14-15.59l2 4.81-1-2.4 1 2.4c-1.14.48-27.74 12.38-5.13 67.18C1520.51 839.05 1525.2 880.61 1476.83 910.72zM1600.86 955.81l-4.16-3.12c5.44-7.25 53.77-70.85 76.16-72a11.93 11.93 0 019.54 3.94c13.28 13.91 8.66 63.37 8.45 65.47l-5.16-.5c1.31-13.64 2.62-51.26-7-61.39a6.86 6.86 0 00-5.52-2.34C1656.21 886.75 1615.23 936.65 1600.86 955.81zM1718.62 580.92a16.58 16.58 0 01-6.29-1.14c-5-2.06-8.09-6.65-9.16-13.65-3.63-23.54 23.78-35 37.35-39.2a188.39 188.39 0 01-33.19-20.39c-26.67-20.64-41.63-45.4-43.25-71.61l5.19-.32c3.69 59.86 79.21 90.21 80 90.51l8.08 3.17-8.49 1.79c-.45.09-44.47 9.65-40.53 35.26.79 5.15 2.76 8.3 6 9.63 9.08 3.73 26.49-6.91 32.44-11.32l3.09 4.17C1749 568.43 1732 580.92 1718.62 580.92zM1235.8 438.38c-61-15.9-109-38.87-138.79-66.44-24-22.16-35.89-47.27-32.7-68.88 3-20.17 18.69-33.19 39.11-32.4 16.24.63 27.38 5.85 33.1 15.53 9.64 16.28.65 39.81-2.57 47.13l24.15 14.09-2.62 4.48-28.29-16.5 1.09-2.18c.13-.28 13.63-27.75 3.77-44.39-4.77-8.05-14.47-12.42-28.83-13-17.64-.67-31.2 10.56-33.77 28-2.94 19.9 8.39 43.34 31.08 64.32 29.19 27 76.42 49.54 136.58 65.22z" class="colorf5718e svgShape"/><path fill="#f5b571" d="M918.51 367.69l-.82-1.53a60.83 60.83 0 01-6.06-25.35c-.35-13.57 3.73-33.61 25.2-52.06 41.14-35.37 127.44 26.31 131.1 28.95l-3 4.21c-.86-.62-86.61-61.94-124.66-29.22-33.7 29-22 62-18.69 69.47L1022.3 352l.52 5.17zM1282.32 532.18c-12.93 0-28.92-2.91-47-12.15-46.45-23.7-76.81-46.89-83.91-52.51l-56.11 41.77-1.07-.17c-4.29-.66-105.17-16.71-123-50.21-8-15.05-2.78-35.59 12.77-50 11.17-10.32 26.51-16.22 43.19-16.62 20-.49 41.3 6.45 63.41 20.6l-2.8 4.38c-21.22-13.59-41.58-20.23-60.49-19.79-15.41.37-29.54 5.78-39.79 15.25-13.81 12.75-18.63 30.72-11.71 43.69C991.47 486 1083 502 1093.92 503.82l57.6-42.88 1.57 1.3c.31.26 32 26.34 84.55 53.16 26.79 13.67 48.51 12.79 62 9.64 14.64-3.42 23.1-10.16 23.18-10.23l3.28 4c-.37.3-9.28 7.46-25 11.19A81.34 81.34 0 011282.32 532.18z" class="colorf5718e svgShape"/><path fill="#f5b571" d="M1318.46 730.56l-4.67-2.26c59.3-122.5 29.53-230.9-91-331.39-32.9-27.44-39.86-63.05-39.9-88.09a147.21 147.21 0 017.85-48.13l4.86 1.85a144.39 144.39 0 00-7.52 46.44c.1 34.74 12.9 63 38 83.94 30.88 25.75 75 66.56 101 123.37C1357.75 583.3 1354.85 655.39 1318.46 730.56zM1387.89 791.76l-2.39-4.61c75.07-38.93 58.51-115.42 47.55-166-3.06-14.13-5.7-26.33-6-35.66-.37-11 3-19.23 9.92-24.54 17-13 49.54-3.19 50.92-2.76l-1.53 5c-.32-.09-31.35-9.46-46.24 1.93-5.54 4.24-8.19 11.05-7.88 20.24.3 8.86 2.9 20.85 5.9 34.73C1449.42 672.18 1466.49 751 1387.89 791.76zM1588.16 1047.06a94.25 94.25 0 01-41.83-9.73l-3-1.52 2.26-2.54c4.08-4.55 14.08-18.36 11.54-27.51-1.12-4-4.51-6.85-10.37-8.65-10.92-3.36-25.24.76-39.09 4.75-21.25 6.13-43.22 12.46-57.15-5.65-18.2-23.67-16-44.36-14.3-51.88-54.74-9.44-79.5-33.33-86.11-40.86-28.8 26-66.34 18.19-68 17.84l-.53-.12-.44-.31c-32.5-23.46-39.33-62.06-39.6-63.69l5.12-.87c.06.38 6.72 37.79 37.06 60 4.61.84 39.49 6.14 64.79-18.51l2.15-2.09 1.76 2.42c.23.31 23.6 31.3 87.44 41.53l3.1.5-1.07 3c-.33.92-7.9 23.12 12.71 49.91 11.78 15.31 31.12 9.73 51.59 3.83 14.58-4.2 29.66-8.54 42.06-4.72 7.58 2.33 12.24 6.44 13.84 12.22 3 10.81-6.1 24.13-10.48 29.72a89.16 89.16 0 0046.73 7.09l.89 5.11A68.22 68.22 0 011588.16 1047.06z" class="colorf5718e svgShape"/><path fill="#f5b571" d="M1486.78,1082.43l-5.18-.27,2.59.14-2.59-.14a68.54,68.54,0,0,0-5.6-27.65c-8.2-18.68-23.93-29.76-46.73-32.94-56.77-7.9-83.74-10.87-84-10.9l-2.2-.24-.11-2.21c0-.48-2.76-47.71-30.41-55.12-8.34-2.23-24.39-1-43,.36-46.31,3.47-109.73,8.22-129-33.6l-.95-2.06,1.91-1.22a95.6,95.6,0,0,0,22.13-20.83c12.25-16.46,13.6-32.54,4-47.8a29.58,29.58,0,0,0-19.8-13.75c-28.21-5.74-67.8,21.5-68.19,21.78l-1.67,1.16-1.53-1.35c-.29-.25-29.39-25.38-53.59-9.24-2.43,1.61-4.71,3.18-6.86,4.67-11.39,7.85-19.61,13.52-28.25,11.2-8.1-2.18-15.15-11-24.34-30.5l4.69-2.22c8.24,17.47,14.72,26,21,27.71s13.7-3.41,23.94-10.47c2.18-1.5,4.48-3.08,6.93-4.71,24-16,51.54,3.1,58.33,8.39,8-5.29,43.24-27.07,70.57-21.51a34.6,34.6,0,0,1,23.15,16.08c10.74,17,9.25,35.64-4.3,53.77a99.58,99.58,0,0,1-21.49,20.69c18.89,36.43,78.89,31.93,122.9,28.63,19-1.42,35.5-2.66,44.7-.19,27.93,7.48,33.2,47.62,34.08,57.66,7.43.85,34.15,4,82,10.68,30.88,4.3,44.71,22.05,50.86,36.18A72.1,72.1,0,0,1,1486.78,1082.43Z" class="colorf5718e svgShape"/><path fill="#f5b571" d="M993.29 840.74c-23.27 0-58.55-21.09-105.25-63a57.72 57.72 0 01-38.62 6.3l.92-5.11a52.39 52.39 0 0036.5-6.56l1.69-1.17 1.53 1.37c70.25 63.33 101.25 67.71 114.88 60.23 19.89-10.91 13.31-51.64 13.24-52.05l-.86-5.1 4.61 2.36c1 .49 23.68 11.69 39.59-11.53 15.31-22.31-11.91-71.52-15.67-78.09l-76.46-32.3L875 646.89l.51-5.17 95.2 9.32.37.15 78.4 33.13.44.73c1.4 2.35 34.11 57.88 15.92 84.41-14.13 20.6-33.42 17.56-41.93 14.88 1.24 11.63 2.59 42.6-16.43 53A29 29 0 01993.29 840.74zM1195.11 1040.67a191.37 191.37 0 01-33.68-3.11l.91-5.11c51.77 9.24 85.89-4.42 105.41-17.52 21-14.12 30-30.46 30.08-30.63l4.58 2.46c-.39.72-9.66 17.66-31.77 32.49C1255 1029.78 1230.21 1040.67 1195.11 1040.67z" class="colorf5718e svgShape"/><path fill="#f5b571" d="M1066 1128.59l-3.12-4.15c1.11-.83 27.68-20.38 88.38-29.21 2.94-8.56 17.19-54.71-.09-101.1L1038.54 955c6.16 15.23 21.11 58.61 6.38 90.54l-4.71-2.17c16.76-36.35-8.47-91.11-8.73-91.65l-2.61-5.58L1155.15 990l.43 1.13c20.49 53.43.84 105.19 0 107.37l-.55 1.41-1.5.22C1093.21 1108.66 1066.24 1128.4 1066 1128.59zM889.56 1031.4a64.35 64.35 0 01-18.73-3.11l1.52-5c16.2 4.94 28.75 3.49 37.27-4.34 24.77-22.72 10.51-91.16 10.36-91.85l-1-4.44 4.31 1.44c57.4 19.13 69 59 69.47 60.7l-5 1.38 2.51-.69-2.51.7c-.1-.38-10.88-37-61.88-55.69 2.88 16.19 10.53 70.89-12.79 92.28C906.9 1028.54 899 1031.4 889.56 1031.4zM840.82 1076.28c-1.88-1.57-46-39-46-72.92 0-26 29.3-40.39 44.94-46.22-14.17-3.46-40.07-12.07-53.46-30.8-7.46-10.43-10-22.56-7.44-36.05 1.78-9.51 7.07-17.19 15.73-22.82 36.85-24 123.44-3.92 127.11-3.06l-1.19 5.06c-.88-.21-88.1-20.42-123.09 2.35-7.52 4.9-11.93 11.26-13.46 19.43-2.25 12 0 22.83 6.56 32.07 17.36 24.27 59.35 30.6 59.77 30.67l12.69 1.83-12.4 3.25c-.51.13-50.56 13.58-50.56 44.29 0 31.5 43.73 68.57 44.18 68.94zM1650.86 1048.68l-4.48-2.61 37.72-64.78a123.69 123.69 0 01-38.37-.39c-21.88-3.72-51.81-15.65-71.14-51.17-9.69 2.92-49.74 12.95-85.82-7.9-27-15.61-45.06-44.74-53.65-86.62-10.08 6.69-41.35 25.38-74.71 24.14l-3.57-.13 1.23-3.36c.12-.32 11.58-32.26-5.83-49.53-12.63-12.51-44.79-21-126.31 9.77l-1.84-4.86c67.54-25.48 111.89-28.36 131.82-8.58 16.34 16.23 10.84 42.21 8.14 51.55 36.63-.23 71-25.23 71.31-25.49l3.33-2.45.76 4.06c8 42.43 25.44 71.7 51.92 87 38.47 22.23 83.19 7 83.63 6.81l2.13-.74 1 2c14.69 28.21 37.71 45.16 68.43 50.39a115.43 115.43 0 0042-.61l5.93-1.44zM1137.1 776.6c-1-1.76-25.52-43.37-11.36-71 6.75-13.15 21-20.74 42.47-22.57 22.53-1.92 40.74 3.55 54.13 16.26 25.48 24.19 24.41 65.57 24.35 67.32l-5.19-.17c0-.4 1-40.84-22.75-63.4-12.27-11.64-29.13-16.63-50.1-14.84-19.52 1.67-32.41 8.32-38.28 19.77-12.86 25 11 65.55 11.19 66zM1217.85 602.11c-20.83 0-31.61-8.29-43.9-17.74-14.68-11.3-33-25.35-76.24-30.61l.62-5.16c44.7 5.43 63.6 20 78.79 31.65 13.33 10.25 23.86 18.35 47.67 16.36 52-4.34 74.87-.14 75.82 0l-1 5.1c-.22 0-23.28-4.24-74.4 0C1222.63 602 1220.18 602.11 1217.85 602.11z" class="colorf5718e svgShape"/><path fill="#f5b571" d="M1181.49 685.76c-.31-1.57-7.21-38.86 17.88-87.44l4.61 2.39c-24.2 46.87-17.47 83.68-17.4 84zM800.62 599.83c-3.94-31.9 1.39-55.52 15.85-70.21 24.61-25 71-20 104.87-16.38 53.17 5.72 136.18 35.2 137 35.5l-1.74 4.89c-.83-.3-83.27-29.57-135.82-35.22C888 514.88 843 510 820.17 533.26 806.88 546.76 802 569 805.78 599.2z" class="colorf5718e svgShape"/><path fill="#f5b571" d="M911.86 615.73c-.25-.52-6.13-13-8.26-31.69a108.08 108.08 0 0115.25-69.58l4.42 2.73c-29.47 47.65-6.95 95.81-6.72 96.29zM1126.46 681l-5-1.38c.14-.53 14.48-53.47-2.41-77.21-4.91-6.92-11.85-10.57-21.2-11.18C1047.12 588 986 608.93 972.53 654.32l-5-1.47c14.2-48 77.91-70.22 130.64-66.79 10.86.7 19.3 5.2 25.1 13.35C1141.6 625.16 1127.09 678.75 1126.46 681zM932.34 484.89a94.41 94.41 0 01-21-2.39c-15.79-3.63-37.91-13.32-53.6-38.83l-2.44-4H860c.22 0 22.11-.22 38.61-17 12.84-13 19.17-32.48 18.82-57.78l5.19-.07c.37 26.78-6.48 47.48-20.37 61.55-13.5 13.66-29.86 17.22-37.68 18.14 28.58 41.86 76.37 34.64 76.86 34.56l.84 5.12A66.28 66.28 0 01932.34 484.89zM709.79 502.42l-2.85-4.34c80.2-52.67 117.85-31.54 119.41-30.62l-2.65 4.47L825 469.7l-1.32 2.24c-.09-.06-9.13-5.15-27.53-4C779.06 469 750.18 475.9 709.79 502.42zM813.7 415.23c0-.11-.55-11.29-8.35-23.58-10.46-16.49-28.33-27.12-53.13-31.58l.92-5.11c32.91 5.92 49 21.84 56.76 34.16 8.44 13.44 9 25.41 9 25.91l-5.19.19 2.6-.09z" class="colorf5718e svgShape"/><path fill="#f5b571" d="M767.16 428.38l-.27-5.18c66.08-3.4 80.4-43.42 80.53-43.83l4.92 1.67c-.15.46-3.92 11.28-16.42 22.56C824.53 413.88 803.36 426.52 767.16 428.38zM649 1188.21l-.06-5.2c99.57-1.17 122.69-56.88 122.91-57.45l1.25-3.17 62.23 47-3.13 4.14-57-43c-2.72 5.16-9.59 16.09-23.59 27.15C734.43 1171.24 702.65 1187.58 649 1188.21zM622.65 1138.36l-2.67-4.45c57.27-34.33 78.48-10.11 79.35-9.06l-4 3.33 2-1.66-2 1.67c-.05 0-4.81-5.45-15.92-7C669 1119.79 650.59 1121.61 622.65 1138.36zM891.35 1213.69l-4.92-1.65c20.33-60.6-10.22-91.65-10.53-92l3.65-3.7c.34.34 8.56 8.57 14.12 24.76C898.75 1155.94 902.48 1180.54 891.35 1213.69zM739.62 1084.23c-.12-.11-12.09-10.68-34.9-16.24-21.09-5.13-56-6.91-102.73 13.77l-2.1-4.75c48.22-21.35 84.48-19.39 106.4-14 24 5.92 36.29 16.88 36.81 17.34z" class="colorf5718e svgShape"/><path fill="#53d86a" d="M1257.77,714.43c36.19,21.58,79.39,20.09,99.48,59.3s21,81.31,0,102.35-42,27.74-42,27.74,15.25,9.56-16.32,34.43-27.74,45.92-62.17,39.22-51.65-22-73.65-25.82-44-5.74-60.26-41.13-18.18-71.74-3.83-111.92,36.35-64.08,60.26-79.39S1203.25,681.91,1257.77,714.43Z" class="colorfdeaee svgShape"/><path fill="#fee8d0" d="M1301.59,842.69l-2.73-4.41c7.1-4.4,24.74-18.3,21.13-29.64-4.84-15.23-19.42-25.61-25.74-26.18a145.59,145.59,0,0,0-18.24,0l-2.24.15-.47-2.19c-1.74-8.09-8.13-30.25-16.78-35.65-6.37-4-18-5-27.14-2.27-5.08,1.51-8.64,4-10,6.91a67.75,67.75,0,0,0-5.5,21.3l-.18,2.87-2.84-.47c-.16,0-16.53-2.61-29.88,4.73-7.62,4.19-13.21,10.8-15,17.68a14.47,14.47,0,0,0,1.54,11.64c5.77,9,13.45,11.07,13.53,11.09l-1.28,5c-.39-.1-9.68-2.52-16.62-13.31a19.78,19.78,0,0,1-2.2-15.72c2.09-8.25,8.63-16.09,17.48-21,11.66-6.41,24.88-6.13,30.5-5.63a71.58,71.58,0,0,1,5.71-20.45c2-4.38,6.62-7.73,13.25-9.69,10.54-3.12,23.73-1.92,31.37,2.85,10.51,6.57,16.82,29.54,18.59,36.79a135.42,135.42,0,0,1,16.85.13c8.71.79,24.81,12.78,30.22,29.77C1330.51,824.58,1302.78,842,1301.59,842.69Z" class="colorfed0da svgShape"/><path fill="#fee8d0" d="M1252.91 840.67l-1.41-5c12.47-3.52 25.72-10.07 25.37-14.52a1.17 1.17 0 00-.59-1.06c-3.22-2-14.22.7-21 3.29l-6.52 2.49 3.31-6.15c0-.09 4.9-9.29 2.68-16a9.13 9.13 0 00-5.09-5.5 7.84 7.84 0 00-6.27-.25c-7.32 2.62-14.11 14.16-16.1 18.38l-4.7-2.21c.33-.7 8.22-17.18 19.05-21.06a12.92 12.92 0 0110.24.45 14.19 14.19 0 017.8 8.58c1.64 5 .56 10.57-.75 14.58 6.18-1.86 15.5-3.88 20.12-1a6.35 6.35 0 013 5.06C1282.89 831.65 1257.92 839.26 1252.91 840.67zM1220.76 889.53a22.58 22.58 0 01-5.72-.74c-15.76-4.11-13.59-32.09-12.39-41.52h-25v-5.19h31.06l-.52 3c-1.68 9.73-3.49 35.62 8.14 38.66 14.57 3.8 27.25-13.2 27.38-13.37l4.19 3.06C1247.39 874.19 1236 889.53 1220.76 889.53z" class="colorfed0da svgShape"/><path fill="#fee8d0" d="M1246.22 935c-16.29 0-28.5-12.85-32.77-18-5.92 4.23-23.27 15.36-40.54 14.43-20.42-1.11-25.76-47.94-26.7-58.58-6-2.67-27.34-13.43-26-30.68.4-5 2.37-8.44 5.85-10.35 8.43-4.62 22.23 2.42 23.78 3.24l-2.43 4.59c-3.52-1.86-13.78-6.07-18.85-3.28-1.88 1-2.92 3.07-3.17 6.21-1.27 15.84 23.93 26 24.19 26.08l1.51.6.12 1.62c1.16 15.13 7.34 54.57 21.94 55.36 18.88 1 38.94-14.72 39.14-14.87l2.15-1.71 1.59 2.24c.16.23 16.46 22.81 37.35 16.93 20.62-5.8 16.81-52 16.76-52.51l5.18-.45c.18 2.08 4.21 51-20.54 58A31.45 31.45 0 011246.22 935zM1301.45 885.09l-1.3-5c6.6-1.71 10.72-4.43 12.24-8.11 1.9-4.6-.88-9.53-.91-9.58l4.47-2.64c.17.29 4.15 7.16 1.24 14.21C1315 879.21 1309.72 883 1301.45 885.09zM1158.63 754.15a8 8 0 01.69-7.19c2.69-4.45 9.47-7.07 20.16-7.8l.35 5.18c-11.52.78-15 3.6-16 5.21a2.93 2.93 0 00-.41 2.57z" class="colorfed0da svgShape"/><path fill="#1f2180" d="M1590.12 967.13a69.46 69.46 0 1169.46-69.46A69.53 69.53 0 011590.12 967.13zm0-133.72a64.27 64.27 0 1064.26 64.26A64.34 64.34 0 001590.12 833.41zM1666.67 711.84a69.46 69.46 0 1169.46-69.45A69.53 69.53 0 011666.67 711.84zm0-133.72a64.27 64.27 0 1064.27 64.27A64.34 64.34 0 001666.67 578.12zM1300.12 599.07a69.46 69.46 0 1169.46-69.46A69.54 69.54 0 011300.12 599.07zm0-133.72a64.27 64.27 0 1064.26 64.26A64.33 64.33 0 001300.12 465.35zM931 669a69.46 69.46 0 1169.45-69.45A69.54 69.54 0 01931 669zm0-133.72a64.27 64.27 0 1064.26 64.27A64.34 64.34 0 00931 535.25zM563.52 634.67A69.46 69.46 0 11633 565.22 69.53 69.53 0 01563.52 634.67zm0-133.72a64.27 64.27 0 1064.26 64.27A64.34 64.34 0 00563.52 501zM825 960.22a69.46 69.46 0 1169.45-69.45A69.53 69.53 0 01825 960.22zm0-133.72a64.27 64.27 0 1064.26 64.27A64.34 64.34 0 00825 826.5zM582 1095a69.46 69.46 0 1169.46-69.45A69.52 69.52 0 01582 1095zm0-133.72a64.27 64.27 0 1064.26 64.27A64.34 64.34 0 00582 961.28zM1122.78 1151.75a69.46 69.46 0 1169.46-69.45A69.52 69.52 0 011122.78 1151.75zm0-133.72a64.27 64.27 0 1064.27 64.27A64.34 64.34 0 001122.78 1018zM1050 342.68a69.46 69.46 0 1169.46-69.46A69.54 69.54 0 011050 342.68zM1050 209a64.27 64.27 0 1064.26 64.26A64.33 64.33 0 001050 209zM1487.1 384.43A69.46 69.46 0 111556.56 315 69.52 69.52 0 011487.1 384.43zm0-133.71A64.26 64.26 0 101551.36 315 64.33 64.33 0 001487.1 250.72z" class="color1f4480 svgShape"/><circle cx="1487.1" cy="314.98" r="36.16" fill="#1f2180" transform="rotate(-8.34 1487.235 314.987)" class="color1f4480 svgShape"/><circle cx="1300.12" cy="529.61" r="36.16" fill="#1f2180" class="color1f4480 svgShape"/><circle cx="1666.67" cy="642.39" r="36.16" fill="#1f2180" transform="rotate(-33.5 1666.692 642.394)" class="color1f4480 svgShape"/><circle cx="1590.12" cy="897.67" r="36.16" fill="#1f2180" class="color1f4480 svgShape"/><circle cx="1123.96" cy="1082.3" r="36.16" fill="#1f2180" class="color1f4480 svgShape"/><circle cx="825.03" cy="890.77" r="36.16" fill="#1f2180" class="color1f4480 svgShape"/><circle cx="930.95" cy="599.52" r="36.16" fill="#1f2180" class="color1f4480 svgShape"/><circle cx="1049.96" cy="273.22" r="36.16" fill="#1f2180" class="color1f4480 svgShape"/><circle cx="563.52" cy="565.77" r="36.16" fill="#1f2180" class="color1f4480 svgShape"/><circle cx="582.02" cy="1025.55" r="36.16" fill="#1f2180" class="color1f4480 svgShape"/><path fill="#1f2180" d="M2051.46,1556.19C1840.8,1486.84,1892,1172.71,1933.15,920.3c22-135.06,41-251.7,16.39-304.6-14.72-31.61-36.92-50.89-66-57.32-46.09-10.19-102,13.64-140.88,35.43a538.65,538.65,0,0,0-74.34,50.56l-3.35-4a544.73,544.73,0,0,1,75.07-51.08c39.64-22.25,96.9-46.56,144.61-36,30.72,6.79,54.12,27.05,69.56,60.2,25.31,54.35,6.18,171.72-16,307.62-40.82,250.46-91.63,562.17,114.82,630.13Z" class="color1f4480 svgShape"/><path fill="#1f2180" d="M2108.17,1578c-220.62,0-409.75-26-562.14-77.18-122.07-41-221-98.26-294-170.11-65.07-64-97.11-128-112.53-170.46-16.75-46.08-18-76.56-18.09-77.84l5.18-.19c0,.31,1.35,31.17,17.92,76.61,15.28,41.92,47,105.19,111.49,168.49,114,112,354.43,245.48,852.21,245.48Z" class="color1f4480 svgShape"/><path fill="#1f2180" d="M1984.42,1584.71c-310.28,0-577.17-29.29-793.26-87-173-46.25-314.09-110.77-419.27-191.77-93.74-72.19-141-144.39-164.23-192.25-25.21-52-28.12-86.45-28.23-87.89l5.18-.4c0,.34,3,35.18,27.93,86.47,23,47.36,70,118.82,163,190.35,164.6,126.52,507.93,277.35,1208.85,277.35Z" class="color1f4480 svgShape"/><path fill="#1f2180" d="M2017.61,1567.56c-133.47-2.4-270.57-66.3-419.16-195.34-127.94-111.11-242.63-251.08-343.82-374.58-102.15-124.67-190.38-232.35-258-265.88-39.78-19.74-73.54-21.65-100.34-5.69-63.4,37.77-68.64,163.53-68.69,164.79l-5.19-.19A374.45,374.45,0,0,1,833,821.27c8.62-34.12,26.15-79.1,60.67-99.66,28.41-16.92,63.84-15.07,105.31,5.5,68.6,34,157.15,142.1,259.69,267.24,101.06,123.34,215.6,263.13,343.21,373.95,147.62,128.21,283.65,191.69,415.84,194.06Z" class="color1f4480 svgShape"/><path fill="#1f2180" d="M2069.78,1556.32c-66.31-3.74-122.56-24-167.17-60.24-39.34-31.94-69.91-75.55-93.46-133.3-42.86-105.09-52.82-238.15-60.83-345.07-6.82-91.19-12.72-170-36.15-204.55-8.54-12.61-18.41-18.57-29.35-17.74-42.37,3.23-89.88,102.36-90.35,103.37l-4.69-2.23c2-4.2,49.29-102.86,94.64-106.32,12.93-1,24.39,5.74,34,20,24.2,35.74,30.15,115.14,37,207.08,16.38,218.66,38.8,518.12,316.58,533.81Z" class="color1f4480 svgShape"/><path fill="#1f2180" d="M1994.06 1558.78c-47.83-7.37-93-21-134.38-40.64a470.59 470.59 0 01-109.76-72.81c-61.57-54.41-113.49-126.41-158.71-220.11-83.22-172.43-126.83-383.1-169-586.83-38.51-186-74.88-361.74-137.66-475.14-15.5-28-35-42.45-58.06-42.95l-1.29 0c-77.58 0-172.08 152.75-173 154.3l-4.42-2.71a663.17 663.17 0 0158.46-78.78c45.81-52.5 86.32-78.7 120.39-78 25 .55 46 15.91 62.49 45.63 63.16 114.09 99.61 290.18 138.2 476.6 42.11 203.43 85.65 413.78 168.6 585.63 94.46 195.73 225 303.89 399 330.69zM928.68 600.78c-.4-.71-39.63-71.77-71.74-153.95-18.88-48.33-31.65-91-38-126.9-7.94-45.22-5.56-79.81 7.07-102.81l4.55 2.5c-21.73 39.58-11 117.5 31.17 225.32 32 81.86 71.05 152.61 71.44 153.32z" class="color1f4480 svgShape"/><path fill="#1f2180" d="M2035.43,1542.76c-37.35-17.32-65.51-46.72-83.69-87.39-16.31-36.47-25.14-82-27-139.28-3.46-105.87,18-235.94,38.78-361.74,17-102.86,34.54-209.22,37.59-299,3.4-100-11.88-169.13-46.72-211.41-39.09-47.44-97.57-72.44-173.8-74.3-61.33-1.49-134.17,11.87-216.52,39.72-140.46,47.51-261.36,121.7-262.57,122.44l-2.72-4.42c1.2-.74,122.54-75.2,263.55-122.91,83-28.06,156.43-41.53,218.35-40,77.82,1.89,137.62,27.52,177.72,76.19,19.16,23.25,32.27,53.3,40.07,91.86,6.92,34.21,9.48,74.46,7.83,123-3.07,90.09-20.65,196.62-37.66,299.65-20.73,125.54-42.16,255.36-38.71,360.72,3.86,117.65,39.09,190.31,107.71,222.13Z" class="color1f4480 svgShape"/><path fill="#e8b279" d="M3003.64,1646.73H1614.08a49.54,49.54,0,0,0,49.53,49.53h1290.5a49.54,49.54,0,0,0,49.53-49.53Z" class="colore8798f svgShape"/><path fill="#f7d1a8" d="M3158.33,978.31H2204.79a62.32,62.32,0,0,0-59.53,43.89l-193.37,624.53H3003.64l191.5-618.49A38.53,38.53,0,0,0,3158.33,978.31Z" class="colorf7a8b8 svgShape"/><path fill="#0f103e" d="M1980.07,1626l185-597.61a41.34,41.34,0,0,1,39.68-29.26h953.54a17.76,17.76,0,0,1,17,23l-187,603.85Z" class="color0f213e svgShape"/><rect width="94.17" height="11.08" x="1753.15" y="1635.65" fill="#ffffff" class="colorfff svgShape"/><rect width="94.17" height="11.08" x="1862.21" y="1635.65" fill="#ffffff" class="colorfff svgShape"/><rect width="94.17" height="11.08" x="2298.42" y="1635.65" fill="#ffffff" class="colorfff svgShape"/><rect width="94.17" height="11.08" x="2407.48" y="1635.65" fill="#ffffff" class="colorfff svgShape"/><rect width="94.17" height="11.08" x="2516.53" y="1635.65" fill="#ffffff" class="colorfff svgShape"/><rect width="94.17" height="11.08" x="2625.59" y="1635.65" fill="#ffffff" class="colorfff svgShape"/><rect width="94.17" height="11.08" x="2734.64" y="1635.65" fill="#ffffff" class="colorfff svgShape"/><rect width="94.17" height="11.08" x="2843.69" y="1635.65" fill="#ffffff" class="colorfff svgShape"/><rect width="541.9" height="5.19" x="2292.66" y="1295.7" fill="#1f2180" transform="rotate(-72.8 2563.494 1298.31)" class="color1f4480 svgShape"/><path fill="#1f2180" d="M2781.72,1538.49c-47.35,0-87.26-20.67-115.4-59.76-37.5-52.09-47.27-129-24.9-195.86,20.64-61.7,52.93-114.56,93.38-152.86,42.66-40.4,91.89-61.76,142.36-61.76,33.05,0,68.57,18.62,97.44,51.09,19.42,21.85,34.7,48.85,44.18,78.08a236.15,236.15,0,0,1,9.72,101.16c-7.59,64.47-32.56,123.06-70.29,165a220.55,220.55,0,0,1-74.3,54.35C2853.34,1531.56,2819,1538.49,2781.72,1538.49Zm95.44-465.31c-97.44,0-188.14,82.92-231.07,211.25-21.89,65.45-12.38,140.58,24.22,191.42,19,26.33,53.67,57.71,111.41,57.71,158.06,0,229.09-126.89,241.89-235.55,7.67-65.17-11.53-129.1-52.69-175.39C2943,1091.2,2908.81,1073.18,2877.16,1073.18Z" class="color1f4480 svgShape"/><path fill="#1f2180" d="M2781.72,1517.71c-51,0-81.75-27.8-98.55-51.12-16.34-22.69-27.09-51.36-31.1-82.88a213.94,213.94,0,0,1,9-94.25c19.56-58.48,50-108.4,88-144.37,38.74-36.68,83-56.07,128.08-56.07,26.73,0,57.35,16.5,81.91,44.12,17.54,19.72,31.35,44.17,39.95,70.69a215.46,215.46,0,0,1,8.85,92.32c-7.09,60.24-30.21,114.76-65.1,153.51C2902.12,1494.82,2847.94,1517.71,2781.72,1517.71ZM2877.16,1094c-43.77,0-86.89,18.92-124.69,54.72-37.4,35.41-67.37,84.64-86.68,142.35a209.07,209.07,0,0,0-8.83,92.07c3.9,30.71,14.35,58.59,30.21,80.62,16.12,22.39,45.61,49.08,94.55,49.08,64.76,0,117.71-22.35,157.39-66.43,34.21-38,56.89-91.55,63.87-150.78a210.67,210.67,0,0,0-8.64-90.23c-8.4-25.88-21.86-49.72-39-68.93C2931.75,1109.83,2902.5,1094,2877.16,1094Z" class="color1f4480 svgShape"/><rect width="436.22" height="4.93" x="2607.29" y="1300.91" fill="#1f2180" transform="rotate(-76.28 2825.338 1303.382)" class="color1f4480 svgShape"/><path fill="#1f2180" d="M2851.22 1507.37l-4.2-2.58L2864.1 1477c-12 .3-41.29-.42-46.92-14.18-6.76-16.53 28-42.89 32-45.84l2.94 4c-13.86 10.28-34.36 30.22-30.35 40 4.56 11.15 35.27 11.67 46.72 10.94l4.75-.31zM2917.35 1473.61l-3.21-3.74c.44-.38 10.92-9.83 4.79-26.56-6-16.47-40.93-9.58-41.28-9.51l-6.37 1.3 3.91-5.2c.3-.38 29.1-38.9 23.81-60.61a16.06 16.06 0 00-9.28-11.15 25.52 25.52 0 00-20.25-1.26c-18.34 6.53-30.35 31.68-30.47 31.94l-4.46-2.1c.52-1.11 13-27.26 33.28-34.48a30.28 30.28 0 0124 1.45 21 21 0 0111.95 14.44c4.7 19.32-13.39 48.48-21.24 59.94 11.28-1.36 35.22-2.24 41 13.55C2930.9 1461.64 2917.91 1473.13 2917.35 1473.61z" class="color1f4480 svgShape"/><rect width="4.93" height="44.48" x="2936.54" y="1393.05" fill="#1f2180" transform="rotate(-44.9 2938.82 1415.28)" class="color1f4480 svgShape"/><rect width="34.04" height="4.93" x="2907.34" y="1394.46" fill="#1f2180" transform="rotate(-64.72 2924.46 1396.912)" class="color1f4480 svgShape"/><path fill="#1f2180" d="M2819.42 1335.33l-2.62-4.17c1.28-.81 30.74-19 51.22-7 3.85-5.76 13.6-25-9.43-47.53l3.44-3.53c30.39 29.66 8.68 55.73 8.46 56l-1.47 1.71-1.83-1.31C2849.35 1316.79 2819.72 1335.14 2819.42 1335.33zM2947.38 1368v-3.77c.06-11.42-3.45-20.38-10.41-26.63-14.68-13.15-40.12-10.4-40.38-10.38l-.57-4.89c1.13-.13 27.87-3 44.22 11.59 7.28 6.52 11.3 15.46 12 26.62l42.72-18.43 1.95 4.52zM2936.08 1315.93l-.63-2.89c-6-28.12-36.62-35.67-36.93-35.74l1.13-4.79c1.34.31 31.82 7.85 39.88 36.5 5.91-3 20-11.2 23.29-23 1.72-6.21.11-12.72-4.78-19.35-20.07-27.18-68.56-6.34-69-6.13l-3.06 1.34-.38-3.32c0-.16-2.11-17-14.37-26.72-7.12-5.6-16.33-7.76-27.4-6.42l-.59-4.89c12.43-1.51 22.89 1 31.07 7.47 10.6 8.38 14.4 21 15.64 26.86 11.36-4.35 52.5-17.66 72.09 8.89 5.84 7.9 7.71 15.84 5.57 23.6-4.77 17.24-27.78 27-28.76 27.44z" class="color1f4480 svgShape"/><rect width="19.71" height="4.93" x="2837.83" y="1250.04" fill="#1f2180" class="color1f4480 svgShape"/><rect width="4.93" height="22.21" x="2808.07" y="1399.68" fill="#1f2180" transform="rotate(-82.13 2810.372 1410.838)" class="color1f4480 svgShape"/><rect width="47.52" height="4.93" x="2778.05" y="1491.28" fill="#1f2180" transform="rotate(-6.79 2800.849 1493.307)" class="color1f4480 svgShape"/><path fill="#1f2180" d="M2986.73 1242c-1.54-.19-38.05-4.66-46.85-21.24-2.8-5.27-2.59-11.11.64-17.34 3.61-7 9-11.37 15.92-13 18.13-4.38 40.72 11.5 41.67 12.17l-2.86 4c-.21-.16-21.71-15.26-37.67-11.4-5.57 1.35-9.72 4.79-12.68 10.52-2.48 4.78-2.7 9-.67 12.77 6.31 11.89 33.24 17.5 43.08 18.65zM2920.83 1190a23.39 23.39 0 01-8.81-1.73c-15.79-6.35-23.91-28-24.25-28.88l-.59-1.62 50.24-42.46 3.18 3.76-47.56 40.2c2.11 4.9 9.34 19.82 20.83 24.43 5.27 2.12 10.89 1.76 16.68-1.06 7.15-3.48 11.36-8 12.54-13.42 2.08-9.63-5.9-19.4-6-19.49l3.79-3.15c.39.47 9.58 11.66 7 23.65-1.5 7-6.62 12.65-15.2 16.84A27.12 27.12 0 012920.83 1190z" class="color1f4480 svgShape"/><rect width="28.88" height="4.93" x="2881.17" y="1106.52" fill="#1f2180" transform="rotate(-67.51 2895.675 1108.966)" class="color1f4480 svgShape"/><path fill="#1f2180" d="M2907.24,1222.48c-25-10.67-36.94-27.47-42.57-39.68-6.13-13.28-6.31-24-6.31-24.41l4.93-.05c0,1.64,1,40.45,45.88,59.61Z" class="color1f4480 svgShape"/><rect width="4.93" height="35.18" x="2988.65" y="1249.7" fill="#1f2180" transform="rotate(-64.34 2991.298 1267.254)" class="color1f4480 svgShape"/><rect width="46.71" height="4.93" x="2958.98" y="1313.17" fill="#1f2180" transform="rotate(-22.24 2981.778 1315.513)" class="color1f4480 svgShape"/><path fill="#1f2180" d="M2652.83,1358.38l0-4.93a139.87,139.87,0,0,0,40.05-7.22c26.71-9.29,41.93-25.54,45.23-48.29,1.12-7.72,1.35-17.51-3.91-20.32-11.48-6.13-42.6,18.34-53.63,28.28l-3.3-3.65c4.32-3.9,42.67-37.82,59.25-29,6.33,3.38,8.45,11.68,6.46,25.37-3.53,24.4-20.34,42.48-48.6,52.28A142.49,142.49,0,0,1,2652.83,1358.38Z" class="color1f4480 svgShape"/><rect width="51.81" height="4.93" x="2674.24" y="1250.98" fill="#1f2180" transform="rotate(-13.92 2699.281 1253.17)" class="color1f4480 svgShape"/><path fill="#1f2180" d="M2757.62 1242.22a27.52 27.52 0 01-3.56-.19l-2-.25-.14-2c-1.28-17.44-6.57-29.12-15.72-34.7-13-7.9-29.63-.94-29.79-.87l-1.94-4.53c.78-.33 19.18-8 34.29 1.2 10.19 6.21 16.2 18.44 17.89 36.4 4 .09 13.15-.4 20.14-6.26 5.7-4.78 8.85-12.19 9.35-22l4.92.25c-.58 11.27-4.32 19.87-11.14 25.57C2772.23 1241.24 2762.69 1242.22 2757.62 1242.22zM2766.66 1191.94l-.2-3.34c-.65-10.76-3.91-18.57-9.69-23.19-7.55-6.05-16.92-4.62-17-4.61l-.78-4.86c.47-.08 11.64-1.78 20.88 5.62 6.23 5 10 12.79 11.21 23.21 7.93-3.92 28.93-16.54 32.41-41.29l4.88.69c-4.69 33.39-37.18 46.06-38.56 46.58zM2778.22 1380.48c-24.42 0-44.71-14-45-14.24l-3.69-2.61 4.19-1.69c.25-.1 26.36-11.22 36.54-50 10-38.16-15.24-49.85-15.5-50l2-4.5c.29.13 29.31 13.56 18.26 55.72-8.47 32.33-27.11 46.44-35.39 51.29 10.36 6 41.36 20.7 68.5 1.87l2.81 4A56.28 56.28 0 012778.22 1380.48z" class="color1f4480 svgShape"/><rect width="4.93" height="28.08" x="2799.91" y="1324.5" fill="#1f2180" transform="rotate(-78.89 2802.555 1338.497)" class="color1f4480 svgShape"/><path fill="#1f2180" d="M2825.6 1312.92l-4.86-.8c6.34-38.79-20.92-49.7-22.08-50.15l1.75-4.6C2800.73 1257.49 2832.61 1270 2825.6 1312.92zM2806.61 1242l-1.39-4.72 36.23-10.65c.57-5.32 1.76-23.14-6.58-31.84-3.77-3.94-8.95-5.49-15.84-4.72l-.54-4.89c8.39-.93 15.1 1.15 19.94 6.2 11.51 12 7.86 36.5 7.7 37.54l-.24 1.54zM2831 1160.54l-2.3-4.35 33.21-17.54c-4.19-6.47-18.23-24.81-39.78-19l-1.27-4.76c29.24-7.83 46.5 23.27 46.67 23.58l1.19 2.19zM2667.05 1433.47l-.81-4.85c.47-.08 47.59-8.3 47.59-31.7 0-5.47-1.62-9.33-4.94-11.79-8.6-6.38-25.64-1.29-25.81-1.24l-1.44-4.71c.8-.24 19.57-5.86 30.17 2 4.61 3.41 6.94 8.71 6.94 15.76C2718.75 1424.46 2669.16 1433.12 2667.05 1433.47zM2759.81 1444.84a36.54 36.54 0 01-7.39-.67l-1.44-.34-12.15-46.28 4.76-1.25 11.39 43.34c6 .91 28.94 2.4 40.82-25.32l4.53 1.94C2789.67 1441.13 2770.37 1444.84 2759.81 1444.84zM2710.66 1493.17l-2-4.47 40.19-18.39c-1.66-7.18-5.33-12.68-10.92-16.36-14.36-9.45-36.94-4.29-37.17-4.24l-1.13-4.79c1-.24 24.84-5.71 41 4.91 7.25 4.76 11.78 12 13.46 21.48l.33 1.88z" class="color1f4480 svgShape"/><rect width="19.2" height="4.93" x="2745.47" y="1500.23" fill="#1f2180" transform="rotate(-68.85 2755.3 1502.67)" class="color1f4480 svgShape"/><circle cx="2975.25" cy="1304.07" r="39.59" fill="#1f2180" transform="rotate(-13.28 2975.854 1304.24)" class="color1f4480 svgShape"/><path fill="#1f2180" d="M2277.07,1538.49c-47.35,0-87.26-20.67-115.41-59.76-37.5-52.09-47.27-129-24.89-195.86,20.63-61.7,52.92-114.56,93.37-152.86,42.67-40.4,91.9-61.76,142.36-61.76,33.06,0,68.57,18.62,97.44,51.09,19.43,21.85,34.71,48.85,44.19,78.08a236.15,236.15,0,0,1,9.72,101.16c-7.6,64.47-32.56,123.06-70.3,165a220.55,220.55,0,0,1-74.3,54.35C2348.68,1531.56,2314.3,1538.49,2277.07,1538.49Zm95.43-465.31c-97.44,0-188.14,82.92-231.06,211.25-21.89,65.45-12.38,140.58,24.22,191.42,19,26.33,53.67,57.71,111.41,57.71,158,0,229.08-126.89,241.88-235.55,7.68-65.17-11.53-129.1-52.69-175.39C2438.33,1091.2,2404.15,1073.18,2372.5,1073.18Z" class="color1f4480 svgShape"/><path fill="#1f2180" d="M2277.07,1517.71c-51,0-81.76-27.8-98.55-51.12-16.34-22.69-27.1-51.36-31.1-82.88a213.8,213.8,0,0,1,9-94.25c19.56-58.48,50-108.4,88-144.37,38.73-36.68,83-56.07,128.07-56.07,26.73,0,57.35,16.5,81.92,44.12,17.53,19.72,31.35,44.17,39.95,70.69a215.46,215.46,0,0,1,8.84,92.32c-7.09,60.24-30.21,114.76-65.09,153.51C2397.47,1494.82,2343.28,1517.71,2277.07,1517.71ZM2372.5,1094c-43.77,0-86.89,18.92-124.69,54.72-37.39,35.41-67.37,84.64-86.67,142.35a208.92,208.92,0,0,0-8.84,92.07c3.91,30.71,14.35,58.59,30.22,80.62,16.11,22.39,45.6,49.08,94.55,49.08,64.76,0,117.71-22.35,157.38-66.43,34.21-38,56.9-91.55,63.87-150.78a210.52,210.52,0,0,0-8.64-90.23c-8.39-25.88-21.86-49.72-38.94-68.93C2427.09,1109.83,2397.85,1094,2372.5,1094Z" class="color1f4480 svgShape"/><rect width="436.22" height="4.93" x="2102.64" y="1300.91" fill="#1f2180" transform="rotate(-76.28 2320.692 1303.377)" class="color1f4480 svgShape"/><path fill="#1f2180" d="M2346.57 1507.37l-4.2-2.58 17.07-27.82c-12 .3-41.28-.42-46.92-14.18-6.76-16.53 28-42.89 32-45.84l2.93 4c-13.86 10.28-34.35 30.22-30.35 40 4.57 11.15 35.27 11.67 46.73 10.94l4.74-.31zM2412.7 1473.61l-3.22-3.74c.44-.38 10.93-9.83 4.8-26.56-6-16.47-40.93-9.58-41.28-9.51l-6.38 1.3 3.92-5.2c.29-.38 29.1-38.9 23.8-60.61a16 16 0 00-9.28-11.15 25.56 25.56 0 00-20.23-1.27c-18.32 6.52-30.37 31.69-30.49 32l-4.45-2.1c.52-1.11 13-27.26 33.27-34.48a30.34 30.34 0 0124 1.45 21 21 0 0111.94 14.44c4.71 19.32-13.39 48.49-21.23 59.94 11.28-1.36 35.21-2.24 41 13.55C2426.24 1461.64 2413.26 1473.13 2412.7 1473.61z" class="color1f4480 svgShape"/><rect width="4.93" height="44.48" x="2431.89" y="1393.05" fill="#1f2180" transform="rotate(-44.9 2434.187 1415.265)" class="color1f4480 svgShape"/><rect width="34.04" height="4.93" x="2402.68" y="1394.46" fill="#1f2180" transform="rotate(-64.72 2419.793 1396.92)" class="color1f4480 svgShape"/><path fill="#1f2180" d="M2314.76 1335.33l-2.62-4.17c1.29-.81 30.75-19 51.22-7 3.86-5.76 13.6-25-9.42-47.53l3.44-3.53c30.38 29.66 8.68 55.73 8.46 56l-1.47 1.71-1.84-1.31C2344.73 1316.81 2315.06 1335.14 2314.76 1335.33zM2442.72 1368l0-3.77c.05-11.42-3.45-20.38-10.42-26.63-14.67-13.15-40.12-10.4-40.38-10.38l-.56-4.89c1.13-.13 27.87-3 44.21 11.59 7.28 6.52 11.3 15.46 12 26.62l42.72-18.43 1.95 4.52zM2431.42 1315.93l-.62-2.89c-6.05-28.12-36.63-35.67-36.94-35.74l1.14-4.79c1.34.31 31.81 7.85 39.87 36.5 5.92-3 20.05-11.2 23.3-23 1.71-6.21.1-12.72-4.79-19.35-20.06-27.18-68.55-6.34-69-6.13l-3.06 1.34-.37-3.32c0-.16-2.11-17-14.38-26.72-7.11-5.6-16.33-7.76-27.39-6.42l-.6-4.89c12.44-1.51 22.89 1 31.07 7.47 10.61 8.38 14.41 21 15.65 26.86 11.36-4.35 52.49-17.66 72.08 8.89 5.84 7.9 7.71 15.84 5.57 23.6-4.76 17.24-27.78 27-28.75 27.44z" class="color1f4480 svgShape"/><rect width="19.71" height="4.93" x="2333.18" y="1250.04" fill="#1f2180" class="color1f4480 svgShape"/><rect width="4.93" height="22.21" x="2303.42" y="1399.68" fill="#1f2180" transform="rotate(-82.13 2305.736 1410.819)" class="color1f4480 svgShape"/><rect width="47.52" height="4.93" x="2273.4" y="1491.28" fill="#1f2180" transform="rotate(-6.79 2296.41 1493.324)" class="color1f4480 svgShape"/><path fill="#1f2180" d="M2482.08 1242c-1.55-.19-38.06-4.66-46.86-21.24-2.8-5.27-2.58-11.11.65-17.34 3.61-7 9-11.37 15.91-13 18.14-4.38 40.72 11.5 41.67 12.17l-2.85 4c-.22-.16-21.72-15.26-37.67-11.4-5.57 1.35-9.72 4.79-12.69 10.52-2.47 4.78-2.69 9-.67 12.77 6.31 11.89 33.24 17.5 43.08 18.65zM2416.17 1190a23.3 23.3 0 01-8.8-1.73c-15.8-6.35-23.91-28-24.25-28.88l-.6-1.62 50.24-42.46 3.18 3.76-47.55 40.2c2.11 4.9 9.33 19.82 20.83 24.43 5.27 2.12 10.88 1.76 16.68-1.06 7.14-3.48 11.36-8 12.53-13.42 2.08-9.63-5.89-19.4-6-19.49l3.78-3.15c.39.47 9.58 11.66 7 23.65-1.5 7-6.61 12.65-15.2 16.84A27.08 27.08 0 012416.17 1190z" class="color1f4480 svgShape"/><rect width="28.88" height="4.93" x="2376.52" y="1106.52" fill="#1f2180" transform="rotate(-67.51 2391.007 1108.976)" class="color1f4480 svgShape"/><path fill="#1f2180" d="M2402.58,1222.48c-25-10.67-36.94-27.47-42.57-39.68-6.12-13.28-6.3-24-6.3-24.41l4.92-.05c0,1.64,1,40.45,45.89,59.61Z" class="color1f4480 svgShape"/><rect width="4.93" height="35.18" x="2483.99" y="1249.7" fill="#1f2180" transform="rotate(-64.34 2486.614 1267.275)" class="color1f4480 svgShape"/><rect width="46.71" height="4.93" x="2454.32" y="1313.17" fill="#1f2180" transform="rotate(-22.23 2478.287 1315.81)" class="color1f4480 svgShape"/><path fill="#1f2180" d="M2148.17,1358.38l0-4.93a139.86,139.86,0,0,0,40.06-7.22c26.71-9.29,41.92-25.54,45.22-48.29,1.12-7.72,1.35-17.51-3.91-20.32-11.48-6.13-42.6,18.34-53.62,28.28l-3.3-3.65c4.31-3.9,42.67-37.83,59.24-29,6.34,3.38,8.45,11.68,6.47,25.37-3.54,24.4-20.35,42.48-48.6,52.28A142.53,142.53,0,0,1,2148.17,1358.38Z" class="color1f4480 svgShape"/><rect width="51.81" height="4.93" x="2169.59" y="1250.98" fill="#1f2180" transform="rotate(-13.92 2194.809 1253.148)" class="color1f4480 svgShape"/><path fill="#1f2180" d="M2253 1242.22a27.11 27.11 0 01-3.55-.19l-2-.25-.15-2c-1.28-17.44-6.56-29.12-15.72-34.7-13-7.9-29.62-.94-29.79-.87l-1.93-4.53c.77-.33 19.17-8 34.28 1.2 10.19 6.21 16.21 18.44 17.9 36.4 4 .09 13.15-.4 20.14-6.26 5.7-4.78 8.84-12.19 9.35-22l4.92.25c-.58 11.27-4.33 19.87-11.14 25.56C2267.58 1241.24 2258 1242.22 2253 1242.22zM2262 1191.94l-.2-3.34c-.65-10.76-3.91-18.57-9.68-23.19-7.56-6.05-16.93-4.62-17-4.61l-.79-4.86c.47-.08 11.64-1.78 20.89 5.62 6.22 5 10 12.79 11.21 23.21 7.92-3.92 28.93-16.54 32.41-41.29l4.88.69c-4.7 33.39-37.19 46.06-38.57 46.58zM2273.56 1380.48c-24.42 0-44.71-14-45-14.24l-3.68-2.61 4.18-1.69c.26-.1 26.36-11.22 36.54-50 10-38.16-15.24-49.85-15.5-50l2-4.5c.3.13 29.32 13.56 18.26 55.72-8.47 32.33-27.1 46.44-35.38 51.29 10.35 6 41.35 20.7 68.5 1.87l2.81 4A56.33 56.33 0 012273.56 1380.48z" class="color1f4480 svgShape"/><rect width="4.93" height="28.08" x="2295.26" y="1324.5" fill="#1f2180" transform="rotate(-78.89 2297.862 1338.515)" class="color1f4480 svgShape"/><path fill="#1f2180" d="M2320.94 1312.92l-4.86-.8c6.37-38.94-21.78-50-22.07-50.14l1.74-4.61C2296.07 1257.49 2328 1270 2320.94 1312.92zM2302 1242l-1.39-4.72 36.23-10.65c.57-5.32 1.77-23.14-6.58-31.84-3.77-3.94-8.95-5.49-15.83-4.72l-.55-4.89c8.39-.93 15.11 1.15 20 6.2 11.5 12 7.85 36.5 7.69 37.54l-.24 1.54zM2326.38 1160.54l-2.3-4.35 33.21-17.54c-4.18-6.47-18.22-24.81-39.77-19l-1.28-4.76c29.23-7.83 46.5 23.27 46.68 23.58l1.18 2.19zM2162.4 1433.47l-.82-4.85c.48-.08 47.59-8.3 47.59-31.7 0-5.48-1.61-9.34-4.94-11.8-8.63-6.38-25.63-1.28-25.8-1.23l-1.44-4.71c.79-.24 19.56-5.86 30.17 2 4.6 3.41 6.94 8.71 6.94 15.76C2214.1 1424.46 2164.51 1433.12 2162.4 1433.47zM2255.15 1444.84a36.54 36.54 0 01-7.39-.67l-1.43-.34-12.16-46.28 4.77-1.25 11.38 43.34c6 .91 28.94 2.4 40.83-25.32l4.52 1.94C2285 1441.13 2265.71 1444.84 2255.15 1444.84zM2206 1493.17l-2-4.47 40.18-18.39c-1.66-7.19-5.33-12.69-10.93-16.36-14.4-9.47-36.92-4.29-37.15-4.24l-1.13-4.79c1-.24 24.83-5.71 41 4.91 7.24 4.76 11.77 12 13.45 21.48l.34 1.88z" class="color1f4480 svgShape"/><rect width="19.2" height="4.93" x="2240.81" y="1500.23" fill="#1f2180" transform="rotate(-68.85 2250.618 1502.694)" class="color1f4480 svgShape"/><circle cx="2412.43" cy="1286.09" r="70.63" fill="#1f2180" transform="rotate(-45 2412.438 1286.095)" class="color1f4480 svgShape"/><rect width="94.17" height="11.08" x="2189.37" y="1635.65" fill="#ffffff" class="colorfff svgShape"/><rect width="94.17" height="11.08" x="1971.26" y="1635.65" fill="#ffffff" class="colorfff svgShape"/><rect width="94.17" height="11.08" x="2080.32" y="1635.65" fill="#ffffff" class="colorfff svgShape"/><path fill="#0f103e" d="M1950.1,1825l28.05,18.18s1.55,10.9,3.63,26H1802.62s17.66-17.65,40.51-26l62.83-23.37Z" class="color0f213e svgShape"/><path fill="#0f103e" d="M1814.05,1835.4l11.42,7.79a56.3,56.3,0,0,1,9.35,26H1643.71s18.18-19.73,53-26l46.74-16.1s41.54,3.12,42.58,4.67S1814.05,1835.4,1814.05,1835.4Z" class="color0f213e svgShape"/><path fill="#167ffc" d="M1740.3,1324.92l-31.15,14.54L1684.22,1569l12.46,274.19h128.79l-61.28-284.58,44.66-174.49h21.81l-12.46,174.49,24.93,284.58h135l-67.51-286.66,34.27-231.61-132.94-28s-41.55,14.54-45.7,18.69S1740.3,1324.92,1740.3,1324.92Z" class="color3d86f8 svgShape"/><path fill="#595bd4" d="M1882.59,1360.57l4.21,202.19,41.8,280.43h49.55l-67.51-286.66,34.27-231.61-132.94-28s-41.55,14.54-45.7,18.69-26,9.35-26,9.35l-31.15,14.54-2.3,21.11Z" class="color3370cf svgShape"/><path fill="#167ffc" d="M1821.55,1008.15l-25.68-3.12h-65.95l-90.36,126.71s-97.63-39.47-160-72.7l-23.89,29.08s56.09,100.74,195.26,162l59.2-54-11.42,143.33h263.81l-30.12-202.53L1918,998.73l-54.6,5.26-28.56,9.35-7-4.16Z" class="color3d86f8 svgShape"/><path fill="#595bd4" d="M1710.18 1196.13s2.43-92.74 23.89-145.9l-70.62 172.56s-143-79.38-203-140.44l-4.74 5.77s56.09 100.74 195.26 162zM1811.32 1339.46h151.25l-30.85-206.61-7.78-43.75-1.62 10.7L1890 1055.38S1893.76 1265.85 1811.32 1339.46z" class="color3370cf svgShape"/><rect width="63.36" height="23.89" x="1806.68" y="1094.35" fill="#ffffff" class="colorfff svgShape"/><path fill="#595bd4" d="M1644.36,1184l-4.28-49.77,4.53,3.09a64.51,64.51,0,0,1,21,27.5l-4.82,1.92a61.17,61.17,0,0,0-14.55-21.25l3.28,38.07Z" class="color3370cf svgShape"/><path fill="#b3b4ff" d="M1782.18,858.88s9.54-46.25,19.66-75.59c0,0,53.49-22.85,105.42,21.81,0,0-7.26,46-19.08,76.9l-49-6.28s-31.16-4.67-31.94-4.67-9.08-4.93-9.08-4.93Z" class="colorb3d1ff svgShape"/><path fill="#f5c695" d="M1856.63,936l6.75,68s-31.16,47.26-67.51,46.22,0-45.18,0-45.18l7.27-47.26s37.39-17.65,38.95-19.21S1856.63,936,1856.63,936Z" class="colorf595a9 svgShape"/><path fill="#fe9526" d="M1803.14,957.77l-6.3,41c36.86-5.57,54.46-28.12,61.87-41.75l-2.08-21s-13,1-14.54,2.6S1803.14,957.77,1803.14,957.77Z" class="coloree4e70 svgShape"/><path fill="#f5c695" d="M1791.72,843c-18.26,24.34-35.32,79.45-15.58,116.84s93.47,0,108.53-59.46-13.12-71.93-38.43-79.71C1826,814.45,1802.62,828.47,1791.72,843Z" class="colorf595a9 svgShape"/><path fill="#b3b4ff" d="M1789.07 843.64s33.47 17.21 100.91 16.56l8.52-36s-65-16.68-65.3-16.63-19.35 8.06-20.86 8.55-13 11.56-12.89 10.57c1.62-11.49-4.93-.58-4.93-.58zM1909.55 936.94c-10.51 0-27.5-15.8-28.33-58.21l0-2.6 2.6 0h0c1 0 22.23.43 34.51 35.39 3.13 8.91 3 16.42-.34 21.13A10 10 0 011909.55 936.94zm-23-55.29c1.38 34.15 14.39 50.1 23 50.1a4.87 4.87 0 004.16-2.15c2.27-3.21 2.15-9.34-.33-16.41C1904.71 888.51 1892 882.91 1886.5 881.65z" class="colorb3d1ff svgShape"/><path fill="#b3b4ff" d="M1888.54 954.39a9 9 0 01-2.49-.35c-3.86-1.08-7.11-4.06-9.42-8.63-6.69-13.26-5.06-38.3 4.06-62.3l1.51-4 2.85 3.19c.37.42 9.07 10.35 14.09 31.78 3.51 14.93 2.22 29.55-3.2 36.39A9.34 9.34 0 011888.54 954.39zm-4.66-64.82c-8.22 24.18-7.37 44.08-2.61 53.5 1.65 3.28 3.73 5.29 6.18 6 1.69.48 3.08-.1 4.42-1.8 3.73-4.7 5.68-17.19 2.22-32C1891.09 902.49 1886.69 894 1883.88 889.57zM1771.82 949.72h75.46l8.31-67.72h-82.37C1766.84 903.58 1764.63 928.53 1771.82 949.72z" class="colorb3d1ff svgShape"/><polygon fill="#b3b4ff" points="1847.29 949.63 1844.01 945.6 1869.87 924.55 1872.32 883.63 1850.12 888.7 1848.96 883.63 1877.91 877.02 1874.92 927.14 1847.29 949.63" class="colorb3d1ff svgShape"/><path fill="#0f103e" d="M1836.09 869.13c1.07-3.65.75-7-.72-7.38s-3.51 2.19-4.58 5.83-.74 7 .73 7.38S1835 872.78 1836.09 869.13zM1800.45 869.13c1.06-3.65.74-7-.73-7.38s-3.51 2.19-4.57 5.83-.75 7 .72 7.38S1799.38 872.78 1800.45 869.13z" class="color0f213e svgShape"/><path fill="#f5c695" d="M1866.24,886.11s15.83-18.44,29.08-7.79-15.31,66.21-36.61,47l8.56-25.71Z" class="colorf595a9 svgShape"/><polygon fill="#595bd4" points="1764.19 1558.61 1808.85 1384.12 1794.52 1384.12 1720.21 1570.03 1795.48 1843.19 1825.47 1843.19 1764.19 1558.61" class="color3370cf svgShape"/><rect width="58.78" height="5.19" x="1769.33" y="895.93" fill="#9496ff" class="color94beff svgShape"/><rect width="68.01" height="5.19" x="1767.34" y="926.73" fill="#9496ff" class="color94beff svgShape"/><path fill="#9496ff" d="M1867.36,845c-40.56,0-70.13-12.27-71.53-12.86l2-4.78c.37.16,38.19,15.81,85.75,11.76l.44,5.18C1878.31,844.75,1872.74,845,1867.36,845Z" class="color94beff svgShape"/><rect width="5.19" height="86.19" x="1841.48" y="772.5" fill="#9496ff" transform="rotate(-82.54 1843.986 815.628)" class="color94beff svgShape"/><rect width="601.77" height="5.19" x="1484.05" y="1866.56" fill="#0f103e" class="color0f213e svgShape"/><path fill="#fe9526" d="M1868.69,913.48l-4.92-1.66c.39-1.13,9.58-27.78,27.08-30l.65,5.15C1877.22,888.78,1868.78,913.24,1868.69,913.48Z" class="coloree4e70 svgShape"/><rect width="15.66" height="5.19" x="1875.59" y="891.25" fill="#fe9526" transform="rotate(-8.06 1883.6 893.92)" class="coloree4e70 svgShape"/><path fill="#167ffc" d="M1901.46,1028.92,1918,998.73,2085.82,1112s-56.78,118.74-142.64,173.1L1921.71,1263,1966,1139l-58.77-11.08-20.46-85.86,20.46-13.15Z" class="color3d86f8 svgShape"/><polygon fill="#595bd4" points="1889.98 1055.38 1900.86 1145.05 1931.78 1132.56 1966.03 1139.01 1921.71 1262.95 1943.18 1285.11 1986.31 1128.63 1889.98 1055.38" class="color3370cf svgShape"/><path fill="#595bd4" d="M1966.74,1138.78l3.44-12.16a142.31,142.31,0,0,1,20.94-42.92l4.14,3.13a141.33,141.33,0,0,0-16.73,31.13,102.37,102.37,0,0,1,42.36-20.94l1.2,5c-31.38,7.47-47.24,26.69-47.39,26.89Z" class="color3370cf svgShape"/><path fill="#0f103e" d="M1171.13,1038h0a199.19,199.19,0,1,1,116.25-5.48A198.05,198.05,0,0,1,1171.11,1038Zm96.5-378.61c-77.19-19.66-157,9.56-203.2,74.42A191.58,191.58,0,0,0,1173,1030.55c76,19.36,157.65-10.54,203.2-74.42,61.3-86,41.23-205.76-44.72-267.06A190.8,190.8,0,0,0,1267.63,659.38Z" class="color0f213e svgShape"/><rect width="10.39" height="730.07" x="1670.41" y="811.92" fill="#0f103e" transform="rotate(-54.51 1675.502 1176.948)" class="color0f213e svgShape"/><rect width="86.74" height="660.62" x="1660.51" y="866.81" fill="#0f103e" transform="rotate(-54.51 1703.772 1197.1)" class="color0f213e svgShape"/><path fill="#b3b4ff" d="M1921.71,1263H1877.4s-11.42,12.64-14,39.12c0,0,0,27.35,39.9,43.41l17-25.75s22.2-1.21,22.89-34.62Z" class="colorb3d1ff svgShape"/><path fill="#9496ff" d="M1872.57,1321l-5.07-1.08c.17-.84,4.43-20.59,11.89-31.78l4.33,2.88C1876.81,1301.41,1872.62,1320.83,1872.57,1321Z" class="color94beff svgShape"/><rect width="35.26" height="5.19" x="1869.9" y="1312.81" fill="#9496ff" transform="rotate(-60.92 1887.576 1315.404)" class="color94beff svgShape"/><rect width="30.92" height="5.19" x="1882.97" y="1323.36" fill="#9496ff" transform="rotate(-60.85 1898.532 1325.968)" class="color94beff svgShape"/><path fill="#b3b4ff" d="M1422,1074.92l-16.38-9.84s-2-21.38,27.34-36.89c0,0,30.83,7.75,40.09,38.39l-34.5,13Z" class="colorb3d1ff svgShape"/><path fill="#9496ff" d="M1417.44 1070.28l-5.11-.92c3.58-20 19-31.7 19.68-32.19l3.1 4.16C1435 1041.44 1420.65 1052.36 1417.44 1070.28zM1424.44 1075.72l-4.94-1.6c5.06-15.54 22.57-27 23.32-27.49l2.82 4.36C1445.47 1051.1 1428.92 1062 1424.44 1075.72zM1438.06 1082.57l-4.34-2.85c8.47-12.88 22.08-21.11 22.65-21.45l2.67 4.45C1458.91 1062.8 1445.86 1070.71 1438.06 1082.57z" class="color94beff svgShape"/><path fill="#b3b4ff" d="M2503.44,872s14.81-44.83,28.25-72.81c0,0,55.77-16.53,102.2,33.83,0,0-12.53,44.9-27.83,74.18l-47.89-11.88s-30.41-8.24-31.19-8.33-8.46-5.94-8.46-5.94Z" class="colorb3d1ff svgShape"/><path fill="#f5c695" d="M2577.51,946.24l18.2,65.9s-94.37,64-58.69,57c4.13-.81-7.67-44.53-7.67-44.53l-.85-47.8s33.85-23.74,35.12-25.54S2577.51,946.24,2577.51,946.24Z" class="colorf595a9 svgShape"/><path fill="#fe9526" d="M2528.5,976.81l.74,41.43c35.38-11.74,48.89-37,53.89-51.65l-5.62-20.35s-12.62,3.23-13.89,5S2528.5,976.81,2528.5,976.81Z" class="coloree4e70 svgShape"/><path fill="#f5c695" d="M2514.74,857.29c-20.94,22.08-44.24,74.85-28.95,114.27s92.85,10.78,114.67-46.54-4.74-73-29-83.62C2552.08,832.88,2527.25,844.11,2514.74,857.29Z" class="colorf595a9 svgShape"/><path fill="#b3b4ff" d="M2512 857.61s31.26 21 98.32 28.1L2623 850.92s-62.63-24.06-62.94-24-20.15 5.78-21.7 6.08-14.28 10-14 9c2.94-11.23-4.83-1.15-4.83-1.15zM2622.23 964.27c-3.91 0-8-2.15-11.55-6-4.47-4.93-14.52-20.16-11.15-55.12l.25-2.59 2.59.26c.89.08 21.93 2.56 30.19 39.13 2 8.81 1.16 16.07-2.33 20.44A10.13 10.13 0 012622.23 964.27zm-17.79-57.66c-1.61 21.48 2.1 39.33 10.09 48.12 2.54 2.8 5.28 4.34 7.7 4.34a4.87 4.87 0 003.94-2c2.45-3.07 2.94-8.92 1.33-16.05C2621.73 915.52 2609.75 908.49 2604.44 906.61z" class="colorb3d1ff svgShape"/><path fill="#b3b4ff" d="M2599.05 979.16a9 9 0 01-3.41-.69c-3.71-1.52-6.6-4.86-8.36-9.66-5.12-13.95-.61-38.63 11.21-61.42l2-3.79 2.46 3.49c.32.46 7.81 11.33 10.33 33.19 1.68 14.59-1.05 28.72-6.79 35.16A9.93 9.93 0 012599.05 979.16zm1.87-65c-11 23.06-12.41 42.93-8.77 52.84 1.27 3.44 3.1 5.68 5.45 6.64a3.75 3.75 0 001.45.31 4.93 4.93 0 003.53-2c3.88-4.36 7.26-16 5.51-31.11C2606.59 927.84 2603.2 918.94 2600.92 914.18zM2482.67 961l74.95 8.71 16.07-66.32-81.82-9.5C2483 914.59 2478 939.12 2482.67 961z" class="colorb3d1ff svgShape"/><polygon fill="#b3b4ff" points="2557.64 969.61 2554.85 965.24 2582.97 947.31 2590.12 906.94 2567.49 909.41 2566.92 904.25 2596.44 901.02 2587.68 950.46 2557.64 969.61" class="colorb3d1ff svgShape"/><path fill="#0f103e" d="M2555.81 888.36c1.48-3.5 1.54-6.82.14-7.41s-3.75 1.76-5.22 5.26-1.54 6.82-.14 7.42S2554.33 891.86 2555.81 888.36zM2520.4 884.25c1.48-3.5 1.54-6.82.13-7.41s-3.74 1.76-5.22 5.26-1.53 6.82-.13 7.41S2518.92 887.75 2520.4 884.25z" class="color0f213e svgShape"/><path fill="#f5c695" d="M2583.79,908.7s17.86-16.48,29.79-4.38-22.84,64-41.78,42.46l11.47-24.54Z" class="colorf595a9 svgShape"/><rect width="5.19" height="58.78" x="2512.7" y="883.86" fill="#9496ff" transform="rotate(-83.37 2515.442 913.183)" class="color94beff svgShape"/><rect width="5.19" height="68.01" x="2511.75" y="910.14" fill="#9496ff" transform="rotate(-83.37 2514.506 944.081)" class="color94beff svgShape"/><path fill="#9496ff" d="M2606.3,869.19c-49-1.5-84.72-21.4-86.21-22.24l2.55-4.52c.36.2,36.12,20.11,83.82,21.57Z" class="color94beff svgShape"/><rect width="5.19" height="86.19" x="2567.32" y="793.01" fill="#9496ff" transform="rotate(-75.91 2569.961 836.09)" class="color94beff svgShape"/><rect width="526.71" height="5.19" x="2388.58" y="1870.76" fill="#14141a" class="color14151a svgShape"/><path fill="#ffffff" d="M2915.63,1485.84c-35.81,0-75.17-12.77-110.81-36-35.45-23.07-63-53.71-77.56-86.28-14.73-32.95-14.47-64,.75-87.37s43.22-36.08,79.07-36.08,75.17,12.77,110.81,36c35.46,23.07,63,53.71,77.57,86.28,14.73,32.95,14.47,64-.75,87.37S2951.48,1485.84,2915.63,1485.84Zm-108.55-240.5c-34,0-60.57,12-74.72,33.72-29.61,45.51,4.17,120.19,75.3,166.47,34.8,22.65,73.15,35.12,108,35.12,34,0,60.57-12,74.72-33.72s14.36-51.13.37-82.42c-14.17-31.67-41-61.52-75.66-84C2880.25,1257.81,2841.91,1245.34,2807.08,1245.34Z" class="colorfff svgShape"/><rect width="5.19" height="892.83" x="2426.8" y="761.96" fill="#ffffff" transform="rotate(-57.58 2429.443 1208.372)" class="colorfff svgShape"/><path fill="#ffffff" d="M2795.33,1670.74h0c-35.82,0-75.17-12.78-110.81-36-35.45-23.06-63-53.7-77.56-86.27-14.74-33-14.48-64,.74-87.38s43.23-36.08,79.08-36.08,75.17,12.77,110.81,36c35.45,23.07,63,53.71,77.56,86.28,14.74,33,14.47,64-.75,87.37S2831.18,1670.74,2795.33,1670.74Zm-108.55-240.51c-34,0-60.57,12-74.72,33.72s-14.36,51.14-.36,82.42c14.16,31.68,41,61.52,75.65,84.05,34.8,22.65,73.15,35.12,108,35.12,34,0,60.57-12,74.72-33.72,29.61-45.51-4.17-120.18-75.29-166.47C2760,1442.71,2721.6,1430.23,2686.78,1430.23Z" class="colorfff svgShape"/><rect width="5.19" height="892.82" x="2421.77" y="769.7" fill="#ffffff" transform="rotate(-56.4 2424.181 1216.117)" class="colorfff svgShape"/><path fill="#ffffff" d="M2257.4,1121.19a18.84,18.84,0,1,1,15.81-8.57A18.81,18.81,0,0,1,2257.4,1121.19Zm0-32.49a13.66,13.66,0,1,0,7.43,2.21A13.6,13.6,0,0,0,2257.43,1088.7Z" class="colorfff svgShape"/><path fill="#167ffc" d="M2579.41,1024.34l14.84-17.29s88.43,14.08,165.09,70.08c0,0-3.16,93.56-60.11,138.58s-66.12-62.85-66.12-62.85-21.11-18.81-31.21-54.62-13.31-56.45-13.31-56.45Z" class="color3d86f8 svgShape"/><path fill="#595bd4" d="M2649.45,1061.34c52.1,36.89,78.37,81.55,88.7,102.82-8,17.17-18.9,34-33.92,47.36l-7.72-3.78Z" class="color3370cf svgShape"/><path fill="#0f103e" d="M2587.12 1831.31l26.06 16.89s1.45 10.14 3.38 24.14H2450s16.41-16.42 37.65-24.14l58.4-21.72zM2926.84 1753.56l29.69-9.1s8.7 5.41 20.66 12.93L2870.1 1884.91s-2-23.12 5.73-44.35l20.93-58.69z" class="color0f213e svgShape"/><path fill="#167ffc" d="M2531.21,1320.4l-25.7,241.44L2481,1850.56h135.57s-3.67-168.46-32.13-281.38l26.62-164.32,13.9,2.75L2664.32,1594l211.15,241.44s38.55-42.23,84.46-93.64c0,0-120.26-136.78-229.51-199.21l-4.59-233.17h-64.26s-67.93,1.83-70.69,0S2531.21,1320.4,2531.21,1320.4Z" class="color3d86f8 svgShape"/><path fill="#595bd4" d="M2661.57 1309.39h64.26l.9 45.85-202.64 32 7.12-66.88s56.92-12.85 59.67-11S2661.57 1309.39 2661.57 1309.39zM2560.87 1850.56l3.85-286 26.16-163.86 20.2 4.13-26.62 164.32c28.46 112.92 32.13 281.38 32.13 281.38z" class="color3370cf svgShape"/><path fill="#167ffc" d="M2594.25,1007.05,2529.32,1023l-17.08,318.22h225.22S2750.31,1121.5,2594.25,1007.05Z" class="color3d86f8 svgShape"/><path fill="#595bd4" d="M2519.41,1186.12c9.88-14.54,21.19-29.72,23.74-34.1,4.59-7.88,17.44-32.2,17.44-32.2L2625,1134.5s-17.26,98.74-111.32,176Z" class="color3370cf svgShape"/><path fill="#167ffc" d="M2490.21,1217.58s-6.12-25.39-15.3-41l-5.51,30.91" class="color3d86f8 svgShape"/><path fill="#167ffc" d="M2529.32,1023l-55.48,151.14-101.9-54.31-34.89,61,135.87,99.61s112.25-67,152.06-146l-34.1-67Z" class="color3d86f8 svgShape"/><path fill="#b3b4ff" d="M2371.94,1119.82s-27.31-21.91-51.71-16.2-45.7,32.81-45.7,32.81l44.66,25.87,17.86-23.14,10.61,23.14Z" class="colorb3d1ff svgShape"/><path fill="#9496ff" d="M2283.75,1142.76l-3.39-3.94a191,191,0,0,1,25.23-18.23l2.62,4.49A187.62,187.62,0,0,0,2283.75,1142.76Z" class="color94beff svgShape"/><rect width="27.52" height="5.19" x="2291.63" y="1136.03" fill="#9496ff" transform="rotate(-50.37 2305.501 1138.63)" class="color94beff svgShape"/><rect width="23.75" height="5.19" x="2302.47" y="1143.34" fill="#9496ff" transform="rotate(-51.17 2314.26 1145.931)" class="color94beff svgShape"/><path fill="#14141a" d="M2482.28,1241.63l-5-1.59c9.88-30.71,1.66-54.24,1.58-54.47l-4.28-11.9,8.62,9.25a142.45,142.45,0,0,1,25.85,40.16l-4.83,1.91a141.89,141.89,0,0,0-17.95-30.44A102.36,102.36,0,0,1,2482.28,1241.63Z" class="color14151a svgShape"/><path fill="#fe9526" d="M2585.7,937.3l-4.92-1.66c.38-1.14,9.57-27.79,27.07-30l.65,5.16C2594.23,912.59,2585.78,937.05,2585.7,937.3Z" class="coloree4e70 svgShape"/><rect width="15.66" height="5.19" x="2592.59" y="915.06" fill="#fe9526" transform="rotate(-8.06 2601.19 917.874)" class="coloree4e70 svgShape"/><polygon fill="#595bd4" points="2930.72 1774.05 2706.79 1537.38 2706.72 1536.47 2691.21 1347.77 2696.39 1347.34 2711.82 1535.13 2934.49 1770.48 2930.72 1774.05" class="color3370cf svgShape"/><path fill="#0f103e" d="M535.54,1192.5H474.23s-13.59-68,40.55-138.52c42.81-55.79,87.58-29.19,134.94-125.86l45.42-52.55h42.17s27.53,7.13,45.23,35,6.09,59.55,50.14,103.06c44.76,44.21,53.2,100-13,143.61l-207-11.16-77.85,43.47Z" class="color0f213e svgShape"/><polygon fill="#fadec1" points="1062.99 1108.8 871.59 1236.5 798.29 1182.73 823.6 1122.43 847.92 1127.29 886.88 1164.78 1045.58 1091.95 1062.99 1108.8" class="colorfac1cc svgShape"/><path fill="#f5c695" d="M864.34,1143.09,835.43,1210l-28.38-20.82c9.05-12.41,40.24-55.21,39.9-54.84s3-1.14,5.82-2.37Z" class="colorf595a9 svgShape"/><path fill="#8f91ff" d="M758.72,1078,774,1050.41s50.47,22,98.29,68.29L792,1218.24l-44.31-49.42s7.78-22.06,7.78-26.6.65-31.15.65-33.09S758.72,1078,758.72,1078Z" class="color8fbcff svgShape"/><path fill="#0f103e" d="M662.51,1809.43l-14.28,14.39s-11.84,12.69-15.08,38.08H839s-27.24-28.77-56.44-38.08l-44.44-19.46Z" class="color0f213e svgShape"/><path fill="#0f103e" d="M466,1809.43l-14.27,14.39s-7.78,12.69-11,38.08h192.5s-18-28.77-47.17-38.08l-44.44-19.46Z" class="color0f213e svgShape"/><polygon fill="#167ffc" points="595.68 1506.49 570.36 1541.2 451.65 1823.82 595.68 1823.82 673.53 1506.49 595.68 1506.49" class="color3d86f8 svgShape"/><polygon fill="#167ffc" points="741.66 1520.45 648.23 1823.82 782.53 1823.82 825.35 1526.8 772.8 1533.15 741.66 1520.45" class="color3d86f8 svgShape"/><polygon fill="#595bd4" points="816.45 1588.53 730.14 1557.86 740.81 1523.19 742.78 1520.91 772.8 1533.15 797.85 1530.12 823.54 1539.36 816.45 1588.53" class="color3370cf svgShape"/><path fill="#595bd4" d="M654.4,1530.19c2,1.11,6.87,3.86,11.7,6.59l-9.7,39.56-91.16-22.9,5.12-12.24,16.86-22.49C606.16,1521.49,650.83,1528.19,654.4,1530.19Z" class="color3370cf svgShape"/><path fill="#b3b4ff" d="M719.47,1040.68l54.49,9.73,45.74,106.86s-8.76,19.59-35,31.3l87.58,354.27H541.38L590,1139l11.68-30.17v-58.39s41.85-16.54,84.67-15.57Z" class="colorb3d1ff svgShape"/><path fill="#fadec1" d="M741.2 1012.46L738 1079.93s-39.73 1.36-66.9-44.73l14.67-84.59s17.12 26.32 20.4 28.52 17.55 18.9 19.5 21.58S741.2 1012.46 741.2 1012.46zM560.19 1108.48s-24.65 33.74-51.25 101.21c0 0 103.15 63.09 190.74 100.32l7.13-12.09s-68.77-75.26-107-103.15l27.89-48.66-31.15-23.86z" class="colorfac1cc svgShape"/><path fill="#f5c695" d="M681.69,973.89h0l2.8-16.13,1.56,7.34,6.35-4.44c5.18,7.69,11.81,17.19,13.73,18.47,3.28,2.19,17.55,18.9,19.5,21.58s15.57,11.75,15.57,11.75L739,1058.78C686.31,1045.63,681.69,973.89,681.69,973.89Z" class="colorf595a9 svgShape"/><rect width="65.85" height="26.08" x="663.67" y="1139.08" fill="#ffffff" transform="rotate(180 696.595 1152.125)" class="colorfff svgShape"/><path fill="#f5c695" d="M544.24,1134.33l70.7,34-10.1,17.61L536.33,1149C539.15,1143.57,541.8,1138.67,544.24,1134.33Z" class="colorf595a9 svgShape"/><path fill="#b3b4ff" d="M601.71,1050.41s-55.14,19.79-92.77,80.78L642.59,1187S666.59,1099.4,601.71,1050.41Z" class="colorb3d1ff svgShape"/><path fill="#fadec1" d="M774.29,922.28s15.89,47.36,3.57,82.07-66.83,26.92-94.73-36.66l-12.07-15.24-8.69-30.17L664,905.09l16.22-10.38s31.47,11,37,13.3,41.2,10.38,41.2,10.38Z" class="colorfac1cc svgShape"/><path fill="#0f103e" d="M782.54,940.73S739.9,945.64,664,905.09l27.67-25.5L738,894.71s30.16,8.11,33.73,11.35,5.52,8.43,5.84,9.41,4.51,17.19,5,18.81S782.54,940.73,782.54,940.73Z" class="color0f213e svgShape"/><polygon fill="#0f103e" points="679.89 905.65 673.4 940.77 659.13 938.74 652.07 932.09 649.72 928.12 673.18 900.98 679.89 905.65" class="color0f213e svgShape"/><path fill="#b3b4ff" d="M742.93,877.53s-42,4.44-93.21,50.59l-37.79-66.5s27.74-42.33,103.16-49.15Z" class="colorb3d1ff svgShape"/><path fill="#fadec1" d="M673.4,940.77s-16.7-15.23-23.6-5.34,4.79,54,44,43.94S689,954.24,689,954.24s-3.29-14.12-4.26-14.44S673.4,940.77,673.4,940.77Z" class="colorfac1cc svgShape"/><path fill="#f5c695" d="M677.59,968c-.08-.23-8-23.15-21.37-24.84l.61-4.83c16.39,2.07,25,27,25.37,28.11Z" class="colorf595a9 svgShape"/><rect width="4.87" height="14.68" x="661.36" y="942.25" fill="#f5c695" transform="rotate(-81.94 663.817 949.593)" class="colorf595a9 svgShape"/><path fill="#8f91ff" d="M644.59 1190.46L614.74 1178l1.87-4.49 23.95 10c7.94-70.39-24.49-116.51-24.82-117l4-2.84c.36.5 8.89 12.48 16.34 33.78a197 197 0 019 89.82zM705.72 1192.47c-13.9 0-31.37-3.62-49.47-16.51l2.82-4c18.1 12.89 37.62 17.85 58 14.75a73.36 73.36 0 0025.44-8.63l2.59 4.11c-.43.28-10.87 6.78-27.08 9.3A81.19 81.19 0 01705.72 1192.47z" class="color8fbcff svgShape"/><rect width="543.78" height="4.87" x="371.14" y="1859.47" fill="#0f103e" class="color0f213e svgShape"/><path fill="#0f103e" d="M724.61 956.09c-1-3.42-.69-6.52.68-6.92s3.29 2.05 4.29 5.47.69 6.51-.68 6.91S725.61 959.51 724.61 956.09zM758 956.09c-1-3.42-.69-6.52.68-6.92s3.29 2.05 4.29 5.47.69 6.51-.68 6.91S759 959.51 758 956.09z" class="color0f213e svgShape"/><rect width="232.96" height="4.87" x="495.29" y="1423.99" fill="#8f91ff" transform="rotate(-88.07 611.858 1426.46)" class="color8fbcff svgShape"/><rect width="291.94" height="4.87" x="402.58" y="1680.9" fill="#595bd4" transform="rotate(-74.25 548.509 1683.3)" class="color3370cf svgShape"/><rect width="284.68" height="4.87" x="582.53" y="1680.9" fill="#595bd4" transform="rotate(-80.76 724.886 1683.333)" class="color3370cf svgShape"/><path fill="#fadec1" d="M696.6,1294.68l10.21,3.24s21.24-9.1,51.09-7.6L745,1307.2l46,32.73c-5.08,9.25-15.08,22.21-30.65,25.79,0,0-53.2-18-60.66-55.71Z" class="colorfac1cc svgShape"/><rect width="4.87" height="45.34" x="764.33" y="1313" fill="#f5c695" transform="rotate(-57.27 766.86 1335.73)" class="colorf595a9 svgShape"/><rect width="4.87" height="41.96" x="758.4" y="1324.41" fill="#f5c695" transform="rotate(-62.38 760.88 1345.424)" class="colorf595a9 svgShape"/><rect width="4.87" height="38.06" x="751.19" y="1334.45" fill="#f5c695" transform="rotate(-64.87 753.602 1353.456)" class="colorf595a9 svgShape"/><path fill="#fadec1" d="M1034.48,1122.1s28.37,17.24,62.84,3.51l-24.58-6.37s33.73-9.46,51.48-30.11c0,0-33.8-26.56-107.15,16.11l-3.88,21.41Z" class="colorfac1cc svgShape"/><path fill="#f5c695" d="M1070.21 1089.89l-1.27-4a162.11 162.11 0 0133.22-6.39l.32 4.15A159.59 159.59 0 001070.21 1089.89zM1073 1096l-1-4c.26-.06 26.08-6.1 45.12-8.52l.52 4.13C1098.86 1089.94 1073.25 1095.93 1073 1096z" class="colorf595a9 svgShape"/><rect width="39.89" height="4.16" x="1076.89" y="1098.12" fill="#f5c695" transform="rotate(-10.02 1097.093 1100.418)" class="colorf595a9 svgShape"/></svg>