<svg id="SvgjsSvg1110" width="360" height="360" xmlns="http://www.w3.org/2000/svg" version="1.1" xmlns:xlink="http://www.w3.org/1999/xlink" xmlns:svgjs="http://svgjs.com/svgjs"><defs id="SvgjsDefs1111"></defs><g id="SvgjsG1112" transform="matrix(1,0,0,1,0,0)"><svg xmlns="http://www.w3.org/2000/svg" data-name="Layer 1" viewBox="0 0 700 550" width="360" height="360"><defs><clipPath id="a"><rect width="104.567" height="68.076" x="435.765" y="160.983" fill="none"></rect></clipPath></defs><path fill="#96ea6e" d="M428.20136,455.30291c16.25-5.08,30.83-10.27,48.37-20.12,18.09-10.16,98.45-58.51,108.9-142.19a159.61541,159.61541,0,0,0-6.66-68.16c-3.23-9.47-9.93-28.49-26.84-47.3-20.7-23.04-44.32-31.97-58.17-37.02-29.14-10.63-53.58-10.07-65.22-9.69-12.56.41-34.73,1.33-59.93,12.34-16.44,7.18-26.66,15.37-41.72,27.61-23.86,19.41-27,27.49-68.74,67.57-11.46,11-20.88,19.67-35.26,28.21-9.97,5.92-18.03,9.23-32.9,15.27-36.55,14.85-46.95657,17.85676-58.91657,26.21676-23.26,16.27-21.75343,34.01324-22.75343,37.83324a75.12694,75.12694,0,0,0-1.77,29.97c3.05,20.07,13.86,33.19,20.57,41.13a113.09822,113.09822,0,0,0,32.9,26.44,210.24676,210.24676,0,0,0,26.96,11.89Z" class="colorefedef svgShape"></path><path fill="#96ea6e" d="M480.0377,441.55359l-.98047-1.74414C502.90684,426.412,581.53281,376.18934,591.984,292.44715a165.79388,165.79388,0,0,0-6.88964-70.54883c-2.96875-8.70312-9.91993-29.08594-27.74707-48.92285-21.83692-24.29688-46.78614-33.39746-60.18946-38.28613a173.673,173.673,0,0,0-67.56054-10.03907c-12.39063.40332-35.45313,1.15332-62.0586,12.76953l-.80078-1.832c26.957-11.7705,51.16211-12.55761,62.79492-12.93554a175.46786,175.46786,0,0,1,68.31055,10.1582c13.56738,4.94824,38.82129,14.16016,60.99219,38.8291,18.09961,20.13965,25.14355,40.79395,28.15136,49.61328a167.90471,167.90471,0,0,1,6.98145,71.44239C583.401,377.36609,504.09238,428.03992,480.0377,441.55359Z" class="colorefedef svgShape"></path><path fill="#dd965e" d="M308.4155 185.11219a6.70653 6.70653 0 012.02185-.38709 7.09008 7.09008 0 011.02649.02393 4.463 4.463 0 011.02271.20007 10.03432 10.03432 0 01-2.02539.28784A8.57677 8.57677 0 01308.4155 185.11219zM316.82554 187.49915c1.66162-.25537 3.3164-.41675 4.96655-.61792 1.65308-.19019 3.29016-.38782 4.93542-.71985a11.55573 11.55573 0 01-2.39184.80225 21.30391 21.30391 0 01-2.4845.42663c-.83447.09241-1.6709.15955-2.50976.17334A21.24487 21.24487 0 01316.82554 187.49915zM317.48386 189.89124c1.833-.14465 3.65015-.24023 5.45447-.43945.90356-.08533 1.79846-.22095 2.68579-.38587a9.42228 9.42228 0 002.58179-.821 6.50565 6.50565 0 01-2.48841 1.20422 15.55256 15.55256 0 01-2.72473.51221 23.2134 23.2134 0 01-2.75866.12524A20.43114 20.43114 0 01317.48386 189.89124zM318.62986 191.96888l4.55395-.3971c.755-.068 1.50428-.16992 2.25769-.25964.75183-.10193 1.49659-.238 2.25721-.36939a13.7041 13.7041 0 01-4.46436 1.13892 19.753 19.753 0 01-2.3064.08789A14.91676 14.91676 0 01318.62986 191.96888z" class="colordd765e svgShape"></path><path fill="#f9b27a" d="M297.43585,190.43086s1.64339-3.4195,9.38222-6.602,14.16831-4.8622,9.369-1.43265l-3.70051,2.55287s6.72231.26822,10.741.07728a4.982,4.982,0,0,1,4.97828,3.21854c.663,1.88746-.01361,3.34191-4.58831,4.45722a47.80178,47.80178,0,0,1-13.10329,1.63222,2.83834,2.83834,0,0,0-1.758.51734l-1.40872.98835Z" class="colorf9977a svgShape"></path><path fill="#161607" d="M228.5973,181.46953a39.23428,39.23428,0,0,0-12.47359-10.69175c1.97564-.28809,3.57718-.43793,5.07374-.81134,9.94172-2.48035,20.43-16.14555,17.3773-26.90914-2.66058-9.381-11.48462-16.074-14.3999-16.99353a43.85979,43.85979,0,0,0-14.1874-.823c-1.17792.16373-7.50035,2.17-10.90151,7.35569-4.72875,7.20988-4.15255,9.71471-5.0829,12.01577C192.24538,148.95945,185.17252,202.00409,228.5973,181.46953Z" class="color160b07 svgShape"></path><path fill="#f9b27a" d="M164.81874,263.77687s-.827,3.70267-7.64492,8.55381-12.70056,7.94215-8.80178,3.51555l3.02685-3.324s-6.60865,1.25989-10.47991,2.35525a4.982,4.982,0,0,1-5.57746-2.00854c-1.07288-1.68848-.743-3.2583,3.46069-5.37987a47.80153,47.80153,0,0,1,12.39406-4.555,2.83837,2.83837,0,0,0,1.59533-.90173l1.14853-1.28148Z" class="colorf9977a svgShape"></path><path fill="#dd965e" d="M155.84006 271.44214a6.70874 6.70874 0 01-1.88177.8346 7.09638 7.09638 0 01-1.00519.20886 4.45972 4.45972 0 01-1.0415.03662 10.02916 10.02916 0 011.90771-.73865A8.572 8.572 0 01155.84006 271.44214zM147.10813 271.02015c-1.56079.62463-3.13617 1.15637-4.69788 1.7257-1.56713.55933-3.11706 1.12232-4.64459 1.818a11.561 11.561 0 012.14832-1.32263 21.29771 21.29771 0 012.32348-.97779c.79187-.27881 1.59143-.53357 2.40552-.73681A21.28537 21.28537 0 01147.10813 271.02015zM145.92557 268.839c-1.75268.55579-3.50109 1.05994-5.21356 1.66248-.86078.28748-1.70178.62207-2.52881.98352a9.42548 9.42548 0 00-2.329 1.38391 6.50629 6.50629 0 012.15137-1.73608 15.54459 15.54459 0 012.53809-1.11536 23.21005 23.21005 0 012.65881-.74634A20.46433 20.46433 0 01145.92557 268.839zM144.33915 267.07471l-4.34589 1.41724c-.72015.23706-1.42688.50586-2.14038.76379-.70935.26941-1.40393.57056-2.11517.87061a13.70429 13.70429 0 014.09088-2.11963 19.75327 19.75327 0 012.22668-.60755A14.90281 14.90281 0 01144.33915 267.07471z" class="colordd765e svgShape"></path><path fill="#f9b27a" d="M183.3441 237.16827l-19.67527 28.59108-9.71951-4.85662 17.04283-32.92794a17.17986 17.17986 0 014.87047-6.49336 13.4392 13.4392 0 014.80208-2.55837C184.20161 217.94829 183.3441 237.16827 183.3441 237.16827zM214.79987 165.23619s.75363 9.70371-5.42506 15.15807l-10.05132 5.9231c-4.60826 2.71558 1.98832 27.22974 1.98832 27.22974s7.75215 15.50428-.55372 27.13252c.33362-.07752 24.199 8.0599 24.199 8.0599l22.311-.5688s10.89273-29.27095 5.35549-45.51353L248.163 179.31681s-20.64161-1.01141-20.64161-11.72278z" class="colorf9977a svgShape"></path><path fill="#7197de" d="M252.22634,200.55439l.66642,2.94907s5.92843-20.50655,2.70173-21.71046l-6.62227-2.22182a6.62449,6.62449,0,0,0-1.55652-.32094c-2.59583-.24609-10.95174-1.28828-15.96691-4.82316-.0905-.06459-.50933,18.9772-5.79363,20.34458-5.18578,1.34211-15.22964-14.99645-16.27846-14.37684l-8.434,3.84594c-.0025-.04556-6.65447,1.43072-16.93623,20.44684-6.2131,11.49112-11.9888,21.23631-11.9888,21.23631s9.47946,14.37759,11.6054,10.92583c4.68634-7.60925,13.153-20.76241,15.76213-26.52561a15.444,15.444,0,0,0,.7429,3.70812s2.94819,8.95961,2.96509,16.66224c.01,4.6011,47.59657,11.6999,49.62812,2.352s2.67094-22.26874-.09763-30.38994Z" class="color6c7fd8 svgShape"></path><path fill="#f9b27a" d="M251.99322,180.25859s7.948-.39794,19.10474,23.22808l4.67311,9.896s14.15675-18.28008,22.6783-23.77785l8.89818,6.23523-21.70687,30.05859a17.17987,17.17987,0,0,1-5.77376,5.70518c-5.3794,3.15024-11.09207,2.54137-14.52941-3.03993-5.37684-8.73052-11.94178-22.11619-12.71391-25.90668Z" class="colorf9977a svgShape"></path><path fill="#dd965e" d="M275.77109,213.3827c.06311,1.11694.04944,2.23315.01453,3.34863-.03052,1.116-.11719,2.22937-.22839,3.34118a30.51416,30.51416,0,0,1-.52137,3.31629,16.50753,16.50753,0,0,1-.44909,1.62622,2.9436,2.9436,0,0,1-.87732,1.4248,3.13811,3.13811,0,0,0,.63635-1.49633c.13037-.53443.22376-1.07947.30225-1.62659q.23052-1.64264.39966-3.29871C275.2894,217.812,275.48167,215.59876,275.77109,213.3827Z" class="colordd765e svgShape"></path><path fill="#7197de" d="M251.99322,180.25859s7.948-.39794,19.10474,23.22808l4.67311,9.896s-.05743,20.07777-2.062,20.11791c-3.24945.06508-6.24569-1.48481-8.37159-4.93669-5.37684-8.73052-11.94178-22.11619-12.71391-25.90668Z" class="color6c7fd8 svgShape"></path><path fill="#f9b27a" d="M297.43585 190.43086s1.64339-3.4195 9.38222-6.602 14.16831-4.8622 9.369-1.43265l-3.70051 2.55287zM235.14729 147.792c-2.05364-10.64311-9.61464-18.1333-16.888-16.72989-5.61372 1.08321-9.41192 7.14949-9.91026 14.75432a2.07051 2.07051 0 00-1.73757-.27024c-1.58249.56984-1.94513 3.58715-.81 6.73927.95835 2.66137 2.677 4.56082 4.14169 4.747 2.9773 8.35839 9.47091 13.78375 15.753 12.57161C232.96956 168.20063 237.20094 158.43506 235.14729 147.792zM215.8194 432.08361s-.97071 9.70708 23.47557 19.48189a1.27907 1.27907 0 01.83639 1.14241c.00486 1.27965-1.99731 3.03951-16.19594-.48508a90.34916 90.34916 0 00-20.93111-2.651h0a3.70106 3.70106 0 01-3.72047-4.33431l1.89265-13.15389z" class="colorf9977a svgShape"></path><path fill="#7197de" d="M198.67446,447.48544a1.04192,1.04192,0,0,1,1.28117-.70848,187.08537,187.08537,0,0,0,22.24419,4.94558,13.244,13.244,0,0,1,3.70691-4.99066,2.7958,2.7958,0,0,1,3.006-.32193l5.55812,2.78673a.45708.45708,0,0,1-.03138.83,3.35421,3.35421,0,0,0-1.7265,2.67947,23.35959,23.35959,0,0,0,6.61495-.49668,1.0412,1.0412,0,0,1,1.31969.62436,1.02144,1.02144,0,0,1-.62968,1.30981,21.02835,21.02835,0,0,1-6.29225.64339c-4.90652,0-13.08785-.74816-25.89889-3.83855l.18935,3.34869H199.24S198.55481,447.90427,198.67446,447.48544Z" class="color6c7fd8 svgShape"></path><path fill="#f9b27a" d="M256.836,432.08361s-.9707,9.70708,23.47557,19.48189a1.27907,1.27907,0,0,1,.83639,1.14241c.00486,1.27965-1.99731,3.03951-16.19594-.48508a90.34909,90.34909,0,0,0-20.93111-2.651h0a3.70105,3.70105,0,0,1-3.72046-4.33431l1.89264-13.15389Z" class="colorf9977a svgShape"></path><path fill="#7197de" d="M239.69108,447.48544a1.04191,1.04191,0,0,1,1.28116-.70848,187.0858,187.0858,0,0,0,22.24419,4.94558,13.244,13.244,0,0,1,3.70692-4.99066,2.79578,2.79578,0,0,1,3.006-.32193l5.55812,2.78673a.45708.45708,0,0,1-.03138.83,3.35423,3.35423,0,0,0-1.7265,2.67947,23.35959,23.35959,0,0,0,6.615-.49668,1.04121,1.04121,0,0,1,1.3197.62436,1.02145,1.02145,0,0,1-.62969,1.30981,21.02835,21.02835,0,0,1-6.29225.64339c-4.90652,0-13.08785-.74816-25.89889-3.83855v3.58294h-8.77619S239.57143,447.90427,239.69108,447.48544Z" class="color6c7fd8 svgShape"></path><path fill="#f9b27a" d="M227.52143,245.94653s-9.18772,34.751.041,70.66817L243.62259,432.4l13.59971,1.20853,1.22565-34.44075,5.10931-81.90828A122.54492,122.54492,0,0,0,245.948,245.94656l0,0Z" class="colorf9977a svgShape"></path><path fill="#f9b27a" d="M200.75809,240.67959s-23.441,40.01791-14.21226,75.93511L200.64039,410.566c.483,3.2196,1.79219,22.666,1.79219,22.666l13.76826.51281,1.2305-34.577,7.506-120.33069,2.58405-32.89056-26.76334-5.26694" class="colorf9977a svgShape"></path><path fill="#e2853b" d="M245.948,245.94657v-.00006H227.52143l-26.76334-5.267s-20.29833,34.65291-15.681,68.40787c1.5037,10.99286,3.03372,21.9821,4.22795,33.01287l3.14722,76.42736-.061,20.2422a3.589,3.589,0,0,0,3.557,3.59963l64.41384.57273a3.589,3.589,0,0,0,3.61945-3.488l1.13165-40.28637-1.5559-81.9083A122.54494,122.54494,0,0,0,245.948,245.94657Z" class="colorffba55 svgShape"></path><path fill="#161607" d="M215.04951 149.36636a.51247.51247 0 01-.26366-.83359c.12988-.15 3.22966-3.65716 7.3785-2.88448a.51257.51257 0 11-.18759 1.00784c-3.57815-.66626-6.38862 2.51631-6.4167 2.54857A.51272.51272 0 01215.04951 149.36636zM228.54854 145.71372a.51274.51274 0 01-.05411-.97935 9.91337 9.91337 0 016.198-.03472.51264.51264 0 01-.35092.96336 8.93884 8.93884 0 00-5.49391.03433A.513.513 0 01228.54854 145.71372zM216.10954 151.61924a5.69777 5.69777 0 011.446-1.377 5.46106 5.46106 0 011.8645-.81356 3.93336 3.93336 0 012.05055.1022 3.97648 3.97648 0 011.682 1.09214 6.18054 6.18054 0 00-1.78441-.70537 4.42659 4.42659 0 00-1.84312.01248 7.13381 7.13381 0 00-1.76561.65464A12.52475 12.52475 0 00216.10954 151.61924z" class="color160b07 svgShape"></path><circle cx="220.739" cy="150.727" r="1.15" fill="#161607" class="color160b07 svgShape"></circle><path fill="#161607" d="M227.85242,150.612a5.69683,5.69683,0,0,1,1.446-1.377,5.4654,5.4654,0,0,1,1.86455-.8138,3.90127,3.90127,0,0,1,3.73246,1.19459,6.18863,6.18863,0,0,0-1.78435-.70562,4.43123,4.43123,0,0,0-1.84318.01272,7.13377,7.13377,0,0,0-1.7656.65465A12.5053,12.5053,0,0,0,227.85242,150.612Z" class="color160b07 svgShape"></path><circle cx="232.482" cy="149.72" r="1.15" fill="#161607" class="color160b07 svgShape"></circle><circle cx="207.62" cy="155.551" r="2.282" fill="#ff8d33" class="colorffcb33 svgShape"></circle><circle cx="225.463" cy="144.423" r="1.105" fill="#dd7522" class="colordd2f22 svgShape"></circle><path fill="#dd965e" d="M230.28538,173.53073a8.10285,8.10285,0,0,1-2.62951-4.55933c-2.1095.88452-6.33326,1.81213-10.93982-1.95654C216.71605,167.01486,220.2346,174.88717,230.28538,173.53073Z" class="colordd765e svgShape"></path><path fill="#dd7522" d="M220.77084,161.61134s6.362,4.07536,10.04035-.33175" class="colordd2f22 svgShape"></path><path fill="#373715" d="M231.12577,210.14563a16.93211,16.93211,0,0,0,2.58313,1.12977,16.39627,16.39627,0,0,0,2.70044.73938,12.04869,12.04869,0,0,0,5.49689-.14563,10.35606,10.35606,0,0,0,4.74542-2.72144l.52081-.465.44421-.53979.88862-1.08594c.54742-.75867,1.00293-1.584,1.53424-2.36951-.42762.838-.84314,1.6952-1.327,2.51172l-.84662,1.15064-.42786.57458-.51007.50476a10.40687,10.40687,0,0,1-4.88928,2.9347,11.95673,11.95673,0,0,1-5.70917.03527A15.587,15.587,0,0,1,231.12577,210.14563Z" class="color153037 svgShape"></path><path fill="#dd7522" d="M224.64219,135.70008a.77045.77045,0,0,1-.72754-.51856l-.71387-2.07129a.76961.76961,0,0,1,1.45508-.50195l.71387,2.07129a.7694.7694,0,0,1-.72754,1.02051Z" class="colordd2f22 svgShape"></path><path fill="#161607" d="M223.92839,132.85894c-1.6.36651-2.49542,1.58139-4.28631,4.0111-3.45937,4.6934-5.54629,11.17455-7.919,12.303a1.45666,1.45666,0,0,1-.865.16655c-.92212-.14443-1.28207-1.34425-2.29157-3.0377-.7629-1.27977-1.09821-1.50191-1.5432-2.21906a10.2824,10.2824,0,0,1-.3692-9.28042,10.89421,10.89421,0,0,1,6.04373-5.22477c5.40231-2.24885,10.58055-.18389,11.89381.33979,7.88988,3.1463,11.192,11.02258,10.9097,11.25049C235.1695,141.43582,229.26108,131.63739,223.92839,132.85894Z" class="color160b07 svgShape"></path><path fill="#828206" d="M204.83089,212.87033c6.07881,5.66029,17.40622,3.1993,19.61771-.9844" class="color065082 svgShape"></path><path fill="#e2853b" d="M200.75809,240.67962s18.54378-52.13086,42.8645-62.12182c0,0,7.17923-.42483,12.25142,1.88785a5.09876,5.09876,0,0,1,2.89677,5.5672l-11.50267,62.15787S220.52936,268.77354,200.75809,240.67962Z" class="colorffba55 svgShape"></path><path fill="#dd965e" d="M226.41477 146.8451a6.87481 6.87481 0 00.31274 3.71679 15.30506 15.30506 0 001.59437 3.40979l.54254.78833a1.49294 1.49294 0 01.29486 1.05921 2.44377 2.44377 0 01-1.19837 1.65881 4.40952 4.40952 0 01-3.82147.11731 4.73333 4.73333 0 003.60162-.4447 2.19356 2.19356 0 00.95423-1.38086c.08868-.509-.453-.95483-.79987-1.51453a13.95354 13.95354 0 01-1.54059-3.56994A6.03361 6.03361 0 01226.41477 146.8451zM206.38859 149.21778a2.58693 2.58693 0 01.545-1.2887 1.195 1.195 0 01.66461-.43188 1.07427 1.07427 0 01.81561.15124 2.649 2.649 0 01.92762 1.10962 5.14535 5.14535 0 01.45172 1.30078c-.29321-.36047-.51392-.74817-.7862-1.09179a3.43872 3.43872 0 00-.8515-.8761.73179.73179 0 00-.94311.11462A5.00725 5.00725 0 00206.38859 149.21778z" class="colordd765e svgShape"></path><path fill="#dd965e" d="M208.2338,152.71558a5.4179,5.4179,0,0,0,.15357-1.244,10.87822,10.87822,0,0,0-.06-1.22986c-.06983-.82251-.23224-1.63635-.33508-2.50512.12255.18225.21466.37768.32385.569l.242.60608a5.60035,5.60035,0,0,1,.27934,1.282,4.39558,4.39558,0,0,1-.06,1.32239A2.53657,2.53657,0,0,1,208.2338,152.71558Z" class="colordd765e svgShape"></path><circle cx="225.655" cy="201.251" r=".907" fill="#161607" class="color160b07 svgShape"></circle><circle cx="227.476" cy="201.189" r=".907" fill="#161607" class="color160b07 svgShape"></circle><circle cx="226.624" cy="202.159" r=".692" fill="#dd7522" class="colordd2f22 svgShape"></circle><path fill="#161607" d="M210.83478 179.752a.2666.2666 0 01-.0681-.009.25669.25669 0 01-.17949-.31493c.04155-.15171.08136-.31193.11791-.48567a.2564.2564 0 11.50169.10614c-.03905.18376-.08086.354-.12492.51471A.25649.25649 0 01210.83478 179.752zM226.14616 201.70685a.25644.25644 0 01-.00876-.51271 3.53 3.53 0 00.93779-.15872.25629.25629 0 11.15472.48867 4.03826 4.03826 0 01-1.07449.18276zm-1.01765-.08011a.29227.29227 0 01-.04632-.004 6.96338 6.96338 0 01-1.02566-.27538.25652.25652 0 01.16823-.48467 6.41043 6.41043 0 00.94956.25535.25646.25646 0 01-.04581.50871zm2.95633-.50871a.25617.25617 0 01-.12568-.47966 6.94137 6.94137 0 00.82114-.54525.25637.25637 0 01.31243.40656 7.35617 7.35617 0 01-.88272.58531A.2519.2519 0 01228.08484 201.118zm-4.89125-.1457a.25357.25357 0 01-.1084-.024c-.29166-.13669-.59457-.2919-.92628-.47566a.25638.25638 0 11.24834-.44862c.32144.17775.6141.32846.89524.45964a.25639.25639 0 01-.1089.48867zm-1.795-.98285a.25408.25408 0 01-.13319-.03756c-.28113-.17123-.55576-.343-.82263-.5097l.08562-.24884.14219-.2133-.14044.2143.14921-.20879c.30041.18776.57329.35849.85292.52873a.25639.25639 0 01-.13368.47516zm8.311-.10665a.25636.25636 0 01-.17825-.44061c.23007-.22281.46014-.46765.684-.728a.25619.25619 0 11.389.33346c-.23407.27287-.47515.52973-.71648.763A.25623.25623 0 01229.70958 199.88283zm-10.0361-.99988a.25433.25433 0 01-.147-.04657c-.25234-.17674-.53323-.38052-.83565-.61134a.25646.25646 0 11.31143-.40756c.29641.22681.57129.42558.81863.59932a.25634.25634 0 01-.14745.46615zm11.37244-.54776a.25225.25225 0 01-.15171-.05007.25613.25613 0 01-.05432-.35849q.291-.39505.57179-.82965a.25637.25637 0 01.43059.27839q-.28989.44836-.58981.85568A.25591.25591 0 01231.04592 198.33519zm-13.00019-.696a.25613.25613 0 01-.16348-.05908q-.37926-.31468-.78207-.67794a.2563.2563 0 11.34347-.38052c.26236.23683.51872.45813.76606.66392a.25636.25636 0 01-.164.45362zm14.113-1.02091a.25634.25634 0 01-.22206-.384q.23283-.40555.45839-.83815l.02478-.04757a.25638.25638 0 11.45863.22932l-.02954.05708q-.22944.43935-.46764.85467A.25588.25588 0 01232.15871 196.61832zm-15.63258-.35248a.25662.25662 0 01-.17949-.07311q-.359-.35223-.72375-.74a.25628.25628 0 01.374-.35048q.35637.37927.70873.724a.25636.25636 0 01-.1795.43961zm16.56512-1.469a.2563.2563 0 01-.23408-.36q.20766-.46939.37953-.93329a.25632.25632 0 11.48066.17825q-.17762.47916-.39154.96233A.25574.25574 0 01233.09125 194.79681zm-17.966-.025a.25553.25553 0 01-.19452-.08912q-.33045-.38527-.65741-.7991a.25633.25633 0 01.40256-.31744q.31956.40555.64389.78208a.25663.25663 0 01-.19452.42358zM213.86 193.16305a.25537.25537 0 01-.20853-.10714q-.297-.41384-.58356-.85569a.25616.25616 0 11.43009-.27838q.27939.4311.57.83565a.25624.25624 0 01-.208.40556zm19.94153-.28439a.26456.26456 0 01-.0731-.01051.25637.25637 0 01-.17249-.31894q.14569-.48968.2556-.97385a.25628.25628 0 01.49969.11416c-.0761.335-.165.67393-.26411 1.00589A.25638.25638 0 01233.80148 192.87866zm-21.05431-1.43348a.25625.25625 0 01-.22181-.12717q-.25724-.44161-.49919-.90826a.25618.25618 0 11.45513-.23532q.23546.45438.48717.88522a.25628.25628 0 01-.09263.35048A.25091.25091 0 01212.74717 191.44518zm21.50818-.56177a.28045.28045 0 01-.04055-.003.25653.25653 0 01-.2128-.2934q.07962-.50244.12468-.99938a.26146.26146 0 01.27863-.23182.25676.25676 0 01.23207.27888c-.03154.344-.07485.69146-.12918 1.03243A.25648.25648 0 01234.25535 190.88341zm-22.44973-1.25574a.25627.25627 0 01-.23332-.1497q-.21293-.46564-.40632-.95332a.25643.25643 0 01.47666-.18926q.18814.47541.3958.92928a.25617.25617 0 01-.23282.363zm22.638-.78158h-.00751a.25672.25672 0 01-.24909-.26336q.00677-.23883.00676-.47465c0-.17875-.003-.357-.00851-.53374a.2567.2567 0 01.24859-.26437.27748.27748 0 01.26411.24835q.00827.27412.00852.54976c0 .16222-.00226.32545-.00676.48867A.25653.25653 0 01234.44361 188.84609zm-23.39153-1.12054a.256.256 0 01-.24284-.17424q-.1641-.48442-.30617-.99037a.25633.25633 0 11.49368-.13819q.13819.49192.29816.96433a.25636.25636 0 01-.16072.325A.26126.26126 0 01211.05208 187.72555zm23.3287-.92478a.25622.25622 0 01-.25511-.23432q-.04394-.50546-.1129-1.00439a.25626.25626 0 01.5077-.07009q.07059.5122.11591 1.03042a.25593.25593 0 01-.23332.27738zm-23.88222-1.04394a.25617.25617 0 01-.24984-.19977q-.11265-.49944-.202-1.01641a.25633.25633 0 11.5052-.08712q.08675.504.197.99037a.2563.2563 0 01-.19377.30642A.24362.24362 0 01210.49856 185.75683zm23.60508-.98386a.25634.25634 0 01-.25184-.21029q-.092-.50019-.203-.99287a.2563.2563 0 11.50019-.11215q.11265.50169.207 1.0129a.25637.25637 0 01-.20578.29841A.29791.29791 0 01234.10364 184.773zm-23.9498-1.03292a.256.256 0 01-.2546-.22982 8.61148 8.61148 0 01-.05107-.90475l.00175-.1487a.267.267 0 01.26186-.25085.25643.25643 0 01.25085.26186l-.00176.13919a8.14627 8.14627 0 00.04807.85018.256.256 0 01-.22806.28139zm23.50344-.96634a.25632.25632 0 01-.24784-.19176q-.12843-.49494-.26888-.98186a.25632.25632 0 01.49268-.14169q.142.49342.27238.99437a.2566.2566 0 01-.18375.31293A.26068.26068 0 01233.65728 182.77371zm-23.43309-1.07a.26207.26207 0 01-.05533-.006.25639.25639 0 01-.19527-.30542 8.4339 8.4339 0 01.30342-1.00839.25645.25645 0 01.48417.16923 8.0473 8.0473 0 00-.2869.94931A.25645.25645 0 01210.22419 181.70374zm22.86906-.89774a.25646.25646 0 01-.24484-.18075q-.15208-.49042-.30943-.97184a.25651.25651 0 01.48768-.15922q.15771.48516.31143.97985a.256.256 0 01-.169.32044A.25036.25036 0 01233.09325 180.806zm-.63012-1.94869a.25668.25668 0 01-.24334-.17574l-.32244-.97185a.25634.25634 0 01.48667-.16122l.32245.97184a.25637.25637 0 01-.16273.32395A.25149.25149 0 01232.46313 178.85731zm-.63888-1.94519a.25664.25664 0 01-.24434-.17874q-.15848-.49719-.30242-.98336a.25634.25634 0 01.49168-.1452q.14157.48141.29942.97334a.25648.25648 0 01-.16648.322A.26283.26283 0 01231.82425 176.91212zM231.31035 174.92964a.26381.26381 0 01-.06152.01026.25749.25749 0 01-.25122-.195c-.04106-.169-.08205-.33321-.12305-.50244a.24418.24418 0 01.04613-.205c.16917.13343.34867.26161.5281.38978.01534.0666.03073.12818.04613.19477A.25014.25014 0 01231.31035 174.92964z" class="color160b07 svgShape"></path><path fill="#e67d2a" d="M247.2682 248.17063c-1.32913 3.89446-2.85306 7.71762-4.36941 11.55482-1.67551 3.75748-3.442 7.48408-5.25783 11.18991-.976 1.8167-1.95958 3.63228-2.98443 5.42485-1.038 1.78414-1.9694 3.63341-3.1054 5.36365-2.23523 3.47959-4.4292 6.98949-6.9151 10.31244-2.41179 3.36954-5.08688 6.55158-7.75355 9.73025l-4.2779 4.53615c-1.40828 1.52533-3.00071 2.88562-4.51538 4.30372-.74947.718-1.55424 1.38106-2.36042 2.04127-.80309.663-1.59916 1.33165-2.41572 1.97446-.80534.65516-1.68478 1.22891-2.52127 1.84477-.85726.59172-1.66372 1.24127-2.56477 1.774l-2.65825 1.63312c-.91228.50358-1.82456 1.00379-2.74611 1.47818a31.09529 31.09529 0 01-5.77488 2.28435 46.23224 46.23224 0 005.10793-3.37123l2.40562-1.86161 2.313-1.97109c.7885-.626 1.50737-1.34962 2.25937-2.02106.73516-.69446 1.506-1.339 2.20773-2.0699 1.39452-1.46919 2.90919-2.79186 4.2473-4.30933a179.17213 179.17213 0 0015.33784-18.71048c4.87046-6.45615 9.16493-13.33728 13.60647-20.15329 2.05559-3.50709 4.23355-6.9558 6.3652-10.44436C242.96167 255.17808 245.01753 251.639 247.2682 248.17063zM222.73839 297.00463c-.19276 7.35465-.84078 14.63219-1.5798 21.89246q-1.14777 10.88478-2.69848 21.6987c-1.00839 7.21321-2.165 14.40438-3.3858 21.5858q-.92677 5.3853-1.9239 10.76435c-.68732 3.5882-1.36 7.16714-2.00251 10.78564a92.22614 92.22614 0 01-.251-11.02071c.09213-3.66756.3058-7.32411.57642-10.9734.55389-7.29782 1.40094-14.55684 2.41947-21.78957q1.55165-10.8446 3.69109-21.59481C219.0314 311.191 220.65977 304.05936 222.73839 297.00463zM225.24573 414.638c-.7394-8.99467-1.01953-17.97832-1.16186-26.95871q-.18456-13.47022.14721-26.92767.31731-13.45782 1.13782-26.90363c.57116-8.96337 1.28352-17.92324 2.45927-26.87209.7454 8.99491 1.02729 17.97856 1.168 26.959q.1842 13.46983-.15333 26.92741-.3269 13.45784-1.14408 26.90364C227.12607 396.729 226.41547 405.68914 225.24573 414.638zM240.6772 298.87635c2.20154 7.35565 3.9666 14.79167 5.524 22.266.79184 3.73441 1.49344 7.48584 2.16274 11.24252q.50619 2.81714.96583 5.64154l.87658 5.65731c1.1233 7.55017 2.03018 15.13764 2.61987 22.76717.15709 1.90513.275 3.81677.37126 5.72991.11241 1.90988.1636 3.82953.21092 5.74543.0194.95807.00688 1.92165.01176 2.88047.00464.95858-.00125 1.9204-.04356 2.88223a35.8618 35.8618 0 01-.51771 5.74944c-.04769-.95707-.189-1.90138-.32207-2.84468-.14407-.94455-.26837-1.8846-.437-2.8249-.30329-1.87909-.61184-3.75794-.94731-5.631l-1.92778-11.24727c-.62562-3.74943-1.25586-7.50111-1.84179-11.25654l-.88973-5.63478-.8503-5.641q-.82671-5.64593-1.59345-11.3031-.75516-5.65944-1.418-11.3369C241.7821 314.14242 240.99614 306.5522 240.6772 298.87635zM206.0784 269.41555a169.85692 169.85692 0 015.39144-22.19589 212.23887 212.23887 0 017.8954-21.45085 149.76121 149.76121 0 0110.56545-20.36511 88.21554 88.21554 0 016.75671-9.34215 43.77657 43.77657 0 018.36867-7.88788 69.81759 69.81759 0 00-6.53189 9.21446c-1.9418 3.20343-3.73328 6.48746-5.44339 9.8158-3.40607 6.6662-6.49208 13.50339-9.48183 20.39665-2.9835 6.89652-5.86147 13.85538-8.7258 20.84027C211.99619 255.42374 209.1395 262.4264 206.0784 269.41555zM246.3481 197.63923a78.7918 78.7918 0 01-2.96934 11.47459q-1.84869 5.58095-4.172 10.95712-2.30982 5.3823-5.08214 10.56558a77.88657 77.88657 0 01-6.29644 10.04312 77.874 77.874 0 012.96359-11.47709q1.849-5.58059 4.17764-10.95487 2.31864-5.37855 5.088-10.56283A78.7617 78.7617 0 01246.3481 197.63923zM221.04906 279.13722c2.103-4.62664 3.9845-9.18894 5.87836-13.77527l5.646-13.75373c1.9035-4.58107 3.84155-9.15839 5.86985-13.71668 2.04808-4.55254 4.15461-9.09055 6.61275-13.5467a95.63559 95.63559 0 01-3.20642 14.79617 135.23414 135.23414 0 01-5.01493 14.23415 111.15 111.15 0 01-6.66782 13.59276c-.62737 1.09827-1.2799 2.18452-1.991 3.24122-.7076 1.058-1.36989 2.13145-2.15122 3.14484-.77545 1.0144-1.53224 2.03256-2.353 3.0049Q222.3936 277.79224 221.04906 279.13722zM232.52628 280.50485c1.895 10.89629 3.21168 21.85342 4.34549 32.82631q1.6551 16.46347 2.51723 32.99529c.5654 11.01946.86219 22.0607.71786 33.11446q-.11208 8.29032-.6907 16.58063c-.12092 1.38091-.21567 2.75981-.36788 4.13921-.14658 1.37866-.25823 2.75681-.469 4.13071a70.47173 70.47173 0 01-1.49119 8.17353c.31919-5.51887.238-11.00119.063-16.496-.13744-5.49058-.42321-10.9789-.67193-16.467l-1.697-32.93871c-.56415-10.98466-1.0905-21.97633-1.51734-32.981C232.86625 302.57507 232.50575 291.56212 232.52628 280.50485z" class="colore6952a svgShape"></path><path fill="#e67d2a" d="M232.40418,276.288a89.32567,89.32567,0,0,0,5.41643,10.62345,62.27517,62.27517,0,0,0,6.92436,9.33278c1.24323,1.48042,2.69726,2.73853,4.07832,4.08759l2.247,1.81894a21.88083,21.88083,0,0,0,2.33684,1.71959c3.14723,2.32309,6.72254,3.92926,10.38359,5.76113a30.93,30.93,0,0,1-11.76773-3.45264l-1.3979-.70288c-.464-.23972-.8727-.56421-1.31284-.84379-.86569-.57937-1.73165-1.16716-2.57656-1.78133l-2.36464-2.05587a27.55541,27.55541,0,0,1-2.185-2.23944,38.93313,38.93313,0,0,1-6.74471-10.40787A34.25172,34.25172,0,0,1,232.40418,276.288Z" class="colore6952a svgShape"></path><path fill="#e67d2a" d="M239.008 278.53025a49.19449 49.19449 0 014.99032 4.73937c1.53712 1.64772 2.999 3.33137 4.41348 5.04253 1.42989 1.69488 2.807 3.41166 4.19453 5.12225q.53515.61559 1.05516 1.26316c.35.42611.72365.80955 1.0821 1.239.3433.457.76043.76913 1.14218 1.20085a3.87819 3.87819 0 00.626.55242l.67537.57038a7.49438 7.49438 0 01-1.7732-.29136 12.65838 12.65838 0 01-1.67972-.67257c-.519-.28182-1.067-.55747-1.55818-.88589q-.73137-.49433-1.44982-1.0212a33.69433 33.69433 0 01-4.96422-4.87074 42.62794 42.62794 0 01-3.93657-5.641A29.07283 29.07283 0 01239.008 278.53025zM243.62272 271.02259a25.55544 25.55544 0 013.8605 3.60309 47.88057 47.88057 0 013.15649 3.98036c.97432 1.37207 1.87846 2.78288 2.736 4.23242.85867 1.46134 1.63565 2.94681 2.44183 4.603a13.1246 13.1246 0 01-4.544-2.88954 24.522 24.522 0 01-3.44478-3.94892 28.06761 28.06761 0 01-2.60913-4.50022A19.043 19.043 0 01243.62272 271.02259z" class="colore6952a svgShape"></path><path fill="#ffebcb" d="M157.14625,290.39938a5.72216,5.72216,0,0,0,4.04564-2.367c1.45951-2.17529,1.00373-5.59106-1.29649-8.27126a61.34641,61.34641,0,0,0-25.4453-17.19688,42.07283,42.07283,0,0,0-18.012-2.34952c-4.49757.43658-9.36872,1.02282-12.7343,4.73686a14.50954,14.50954,0,0,0-3.68886,9.95551c.12872,2.62377,1.13322,6.11292,7.40859,12.27294a67.3495,67.3495,0,0,0,23.43313,14.9503c2.54212.92412,20.1354,7.31993,25.79791,1.69985a4.20866,4.20866,0,0,0,1.50005-3.03987c-.20181-2.67844-4.75365-4.80979-6.86116-5.7966-2.61243-1.22323-4.14253-1.43712-4.591-2.8044a2.88107,2.88107,0,0,1,.89489-2.93466c.37242-.30787,1.07484-.66293,3.65422-.247C153.15322,289.31941,156.27506,290.48731,157.14625,290.39938Z" class="colorffe3cb svgShape"></path><path fill="#9d9d36" d="M109.182,272.38223c3.86072,0,3.86711-6,0-6-3.86071,0-3.8671,6,0,6Z" class="color8b9d36 svgShape"></path><path fill="#e2853b" d="M108.97309,281.64031c3.86071,0,3.8671-6,0-6-3.86072,0-3.86711,6,0,6Z" class="colorffba55 svgShape"></path><path fill="#ff0000" d="M116.95907,289.85416c3.86071,0,3.86711-6,0-6-3.86072,0-3.86711,6,0,6Z" class="color065ea5 svgShape"></path><path fill="#f78f3c" d="M127.29258,296.43951c3.86071,0,3.8671-6,0-6-3.86072,0-3.86711,6,0,6Z" class="colorf73c4f svgShape"></path><path fill="#9d9d36" d="M138.75168,300.64115c3.86071,0,3.86711-6,0-6-3.86071,0-3.86711,6,0,6Z" class="color8b9d36 svgShape"></path><path fill="#f78f3c" d="M121.64924 279.10468c3.86072 0 3.86711-6 0-6-3.86071 0-3.86711 6 0 6zM140.8899 288.89362c3.86072 0 3.86711-6 0-6-3.86071 0-3.86711 6 0 6z" class="colorf73c4f svgShape"></path><path fill="#e2853b" d="M149.82006 301.87635c3.86071 0 3.86711-6 0-6-3.86072 0-3.86711 6 0 6zM132.07827 284.31868c3.86071 0 3.86711-6 0-6-3.86071 0-3.86711 6 0 6z" class="colorffba55 svgShape"></path><path fill="#ff0000" d="M119.43813,268.8869c3.86071,0,3.8671-6,0-6-3.86072,0-3.86711,6,0,6Z" class="color065ea5 svgShape"></path><path fill="#9d9d36" d="M131.81118,271.3687c3.86072,0,3.86711-6,0-6-3.86071,0-3.86711,6,0,6Z" class="color8b9d36 svgShape"></path><path fill="#ff0000" d="M143.34491,277.05682c3.86071,0,3.86711-6,0-6-3.86071,0-3.86711,6,0,6Z" class="color065ea5 svgShape"></path><path fill="#9d9d36" d="M154.49878,287.37761c3.86071,0,3.86711-6,0-6-3.86071,0-3.86711,6,0,6Z" class="color8b9d36 svgShape"></path><path fill="#f9b27a" d="M164.81874,263.77687s-.827,3.70267-7.64492,8.55381-12.70056,7.94215-8.80178,3.51555l3.02685-3.324Z" class="colorf9977a svgShape"></path><path fill="#9d9d36" d="M144.319,411.18445c-10.41114,0-32.54688-16.08008-35.18848-18.02734a1.71042,1.71042,0,1,1,2.0293-2.75391c10.13281,7.4668,28.38281,18.7461,34.20312,17.25a1.71059,1.71059,0,1,1,.85547,3.3125A7.62608,7.62608,0,0,1,144.319,411.18445Z" class="color8b9d36 svgShape"></path><path fill="#9d9d36" d="M144.15488 412.46473a1.711 1.711 0 01-1.7041-1.58692l-4.12988-56.61719a1.71056 1.71056 0 013.41211-.248l4.12988 56.61719a1.711 1.711 0 01-1.582 1.83007C144.23887 412.46277 144.19688 412.46473 144.15488 412.46473zM161.525 413.96863a1.76493 1.76493 0 01-.30078-.02636 1.71121 1.71121 0 01-1.38574-1.9834c.18847-1.06153 4.88183-26.1211 28.72656-37.248a1.71042 1.71042 0 111.44726 3.09961c-22.251 10.38281-26.76171 34.50293-26.80468 34.74609A1.712 1.712 0 01161.525 413.96863z" class="color8b9d36 svgShape"></path><path fill="#7c7c24" d="M159.48 406.42267c-1.39087-2.72392-8.86522-2.7277-13.63806.61888a13.07 13.07 0 00-4.597 6.03231c-.81266 2.09329-2.11332 5.4428-.30636 7.73371 1.47151 1.86546 4.51512 2.41007 7.50844 1.39175a36.59831 36.59831 0 006.436-6.34154C157.65187 412.35218 160.60112 408.61833 159.48 406.42267zM165.3033 406.11344c-.52085 1.36783.51253 2.9358 2.45168 5.87748a28.23886 28.23886 0 006.74234 7.11525 8.0441 8.0441 0 009.50079 1.08252 7.69572 7.69572 0 003.52414-6.49637c-.03159-4.00741-3.45555-6.48713-4.75-7.42448C176.50339 401.72756 166.56281 402.80714 165.3033 406.11344zM183.69134 380.43761c.45683-.77874 1.64069-.38307 4.29066-.7737 2.10209-.31007 2.14075-.67469 6.58936-2.01063 3.10056-.931 4.651-1.39679 5.66989-1.39217.80309.00377 5.34232.02433 6.8953 3.09357 1.627 3.21524-1.385 7.08546-1.53219 7.26965-2.91185 3.63819-7.88671 3.4607-9.5008 3.4028a14.66794 14.66794 0 01-10.26689-4.94937C185.47336 384.67118 182.89781 381.7895 183.69134 380.43761zM141.85808 365.43383c-1.61741-.81441-.6709-5.98868-.15338-8.81623.15671-.856.476-2.4 2.91142-8.81665 2.68156-7.0649 3.29344-7.826 4.29066-8.19735 2.33363-.86937 5.7684.76993 7.04911 3.248 1.77288 3.4305-.94484 7.76728-3.83091 12.37386C149.35322 359.64907 143.96184 366.49285 141.85808 365.43383z" class="color5e7c24 svgShape"></path><path fill="#ce986e" d="M141.245,379.04545c1.18967-1.93595-.9993-5.72183-3.21779-7.73372-1.86225-1.68881-3.76773-2.14783-7.04911-2.93874-3.68542-.88825-7.74205-1.86587-8.88766-.15482-1.09241,1.63133,1.0446,4.83608,1.53261,5.56825a13.54624,13.54624,0,0,0,6.2826,4.795C133.17992,379.93664,139.70985,381.54321,141.245,379.04545Z" class="colorc4ce6e svgShape"></path><path fill="#7c7c24" d="M141.39834 394.04881c.04365-1.54028-2.18315-1.85958-6.74234-5.56825-3.61933-2.9442-3.72242-3.968-5.82326-4.64015-3.21612-1.02881-7.4145-.04909-8.12157 2.01064-.17292.50433-.1484 1.10643 2.60507 5.56825 2.142 3.47077 3.23441 5.21959 4.29065 5.87749 3.0087 1.87468 6.46508 1.0565 7.66183.77328C137.19207 397.61483 141.33932 396.13623 141.39834 394.04881zM143.07406 376.24659c-1.50186-1.70053.00933-5.81 1.8519-8.17713 1.5467-1.987 3.34555-2.77 6.44324-4.11884 3.47913-1.51489 7.30869-3.18228 8.72881-1.69564 1.35413 1.41735-.2049 4.94538-.56087 5.75136a13.60966 13.60966 0 01-5.37183 5.81432C151.17075 375.72421 145.01193 378.44059 143.07406 376.24659zM144.18532 392.23052c-.30548-1.50975 1.83372-2.21092 5.69295-6.6559 3.06365-3.52872 2.99074-4.55514 4.94573-5.582 2.99286-1.57188 7.29562-1.3357 8.34315.57056.25629.46679.33474 1.06417-1.61734 5.93756-1.51861 3.79095-2.29672 5.70336-3.22511 6.53485-2.64438 2.36913-6.18867 2.16326-7.41584 2.092C148.93659 395.01307 144.59919 394.27657 144.18532 392.23052zM119.63871 400.23553c-.2149-1.67832-2.97876-2.60476-6.28259-3.712-2.985-1.00028-5.3548-1.795-8.12157-.92811-.48925.15314-4.84143 1.51636-5.21014 4.795-.33088 2.94084 2.80668 5.08783 3.06481 5.259 2.52194 1.67371 5.34233 1.13119 7.20209.77329C114.60025 405.59358 119.95505 402.70434 119.63871 400.23553z" class="color5e7c24 svgShape"></path><path fill="#ce986e" d="M132.05093,407.96924c-2.30744-1.64643-6.66252,1.1463-8.73469,2.47511a18.31822,18.31822,0,0,0-5.36311,5.2586c-1.59621,2.39539-3.11511,4.67539-2.29871,6.6512,1.17388,2.84014,6.24144,2.79776,6.89572,2.78392a11.021,11.021,0,0,0,7.50844-3.4028,11.72329,11.72329,0,0,0,2.91184-5.87749C133.24934,414.57093,134.328,409.59428,132.05093,407.96924Z" class="colorc4ce6e svgShape"></path><path fill="#9d9d36" d="M113.66247 392.19259c-1.29817-1.8877-.84341-3.22574-1.37922-6.49637-.85173-5.19944-2.66368-5.86532-1.99194-8.507.52874-2.079 2.32032-4.29818 4.29065-4.33091 2.7597-.04615 4.53507 4.2193 4.90337 5.1042 1.33932 3.21734.84549 6.02224 0 10.82728-.552 3.13678-.97311 5.38238-2.2983 5.72308C115.9059 394.84224 114.38077 393.23692 113.66247 392.19259zM172.352 391.72853c.40945-1.15846 2.57972-1.33385 5.21014-1.54657 3.28637-.2656 5.74969-.4649 8.12157 1.08252.365.2379 4.205 2.81538 3.52414 5.8779-.53207 2.39287-3.50544 3.64826-5.66947 3.712-2.34818.06923-3.94481-1.25832-6.89572-3.712C174.31775 395.20937 171.84777 393.15511 172.352 391.72853z" class="color8b9d36 svgShape"></path><path fill="#7c7c24" d="M176.1829,382.9123c-.58985-.13426-.62643-.9558-1.37922-3.24839-1.68226-5.12182-2.99914-5.58714-2.758-7.73371.26686-2.37483,2.2268-4.90364,3.98388-4.795,1.91545.11832,3.06107,3.33776,3.52455,4.64056a10.03441,10.03441,0,0,1,.61313,4.795C179.73739,379.89594,177.462,383.20391,176.1829,382.9123Z" class="color5e7c24 svgShape"></path><path fill="#9d9d36" d="M138.18014,360.63928c-.89413,1.268-5.97083-.23371-9.3474-3.24839-.86213-.76952-4.67766-4.17651-3.67753-7.42449.41568-1.34937,1.68642-2.74993,3.06481-2.78391,1.43161-.03525,2.36231,1.419,4.7504,4.94937C137.88085,359.39229,138.57213,360.08333,138.18014,360.63928Z" class="color8b9d36 svgShape"></path><path fill="#ce986e" d="M166.0694,394.8221c-2.5714.69986-5.93592-4.73077-6.74234-6.03231a19.95456,19.95456,0,0,1-3.06481-11.13651c.11015-2.45958.31093-6.94406,2.91142-8.043,2.49159-1.05272,5.86193,1.56168,7.50844,3.55721,3.249,3.93693,2.73227,9.03022,2.29871,13.302C168.64329,389.79762,168.19186,394.24434,166.0694,394.8221Z" class="colorc4ce6e svgShape"></path><path fill="#e1a474" d="M166.44216,453.92356h-25.267l-8.12865-43.125a1.71405,1.71405,0,0,1,1.67262-2.03982h38.179a1.71407,1.71407,0,0,1,1.67263,2.03982Z" class="colore19974 svgShape"></path><path fill="#d6884b" d="M173.98355,413.91451l.58736-3.116a1.71407,1.71407,0,0,0-1.67263-2.03984H134.71912a1.71407,1.71407,0,0,0-1.67262,2.03984l.58736,3.116Z" class="colord6694b svgShape"></path><polygon fill="#d6884b" points="143.195 441.71 137.857 436.323 143.195 430.935 148.532 436.323 143.195 441.71" class="colord6694b svgShape"></polygon><polygon fill="#d6884b" points="153.87 441.71 148.532 436.323 153.87 430.935 159.207 436.323 153.87 441.71" class="colord6694b svgShape"></polygon><polygon fill="#d6884b" points="164.422 441.71 159.084 436.323 164.422 430.935 169.759 436.323 164.422 441.71" class="colord6694b svgShape"></polygon><polygon fill="#ffebcb" points="294.062 134.615 288.541 281.974 387.063 281.974 393.858 134.615 294.062 134.615" class="colorffe3cb svgShape"></polygon><polygon fill="#ffcdab" points="287.766 134.615 283.095 281.974 289.465 281.974 294.985 134.615 287.766 134.615" class="colorfcd1b1 svgShape"></polygon><rect width="125.063" height="10.404" x="272.87" y="281.974" fill="#696947" class="colorb25442 svgShape"></rect><rect width="115.063" height="10.404" x="282.87" y="281.974" fill="#d6884b" class="colord6694b svgShape"></rect><rect width="125.063" height="10.404" x="278.732" y="124.211" fill="#696947" class="colorb25442 svgShape"></rect><rect width="115.063" height="10.404" x="288.732" y="124.211" fill="#d6884b" class="colord6694b svgShape"></rect><polygon fill="#d6884b" points="300.007 292.378 271.024 454.812 282.172 454.812 311.473 292.378 300.007 292.378" class="colord6694b svgShape"></polygon><polygon fill="#696947" points="299.079 297.58 310.535 297.58 311.473 292.378 300.007 292.378 299.079 297.58" class="colorb25442 svgShape"></polygon><polygon fill="#d6884b" points="375.102 292.378 404.085 454.812 392.938 454.812 363.636 292.378 375.102 292.378" class="colord6694b svgShape"></polygon><polygon fill="#696947" points="375.102 292.378 363.636 292.378 364.575 297.58 376.03 297.58 375.102 292.378" class="colorb25442 svgShape"></polygon><polygon fill="#696947" points="339.076 94.697 353.09 94.697 349.693 281.974 359.036 455.089 339.076 455.089 329.309 281.974 339.076 94.697" class="colorb25442 svgShape"></polygon><rect width="108.51" height="171.848" x="464.82" y="283.076" fill="#ffcdab" class="colorfcd1b1 svgShape"></rect><rect width="108.51" height="171.848" x="453.137" y="283.076" fill="#ffebcb" class="colorffe3cb svgShape"></rect><rect width="45.983" height="42.058" x="476.97" y="307.759" fill="#e2853b" class="colorffba55 svgShape"></rect><rect width="45.983" height="42.058" x="499.962" y="325.518" fill="#e2853b" class="colorffba55 svgShape"></rect><rect width="45.983" height="42.058" x="480.615" y="377.67" fill="#7197de" class="color6c7fd8 svgShape"></rect><rect width="22.992" height="24.3" x="499.962" y="325.518" fill="#7197de" class="color6c7fd8 svgShape"></rect><rect width="22.992" height="24.3" x="511.458" y="367.576" fill="#f78f3c" class="colorf73c4f svgShape"></rect><path fill="#f78f3c" d="M512.20859 378.83777H463.88926V334.44324h48.31933zm-45.98339-2.33593h43.64746V336.77918H466.2252zM554.54355 445.79871H506.22422V401.40516h48.31933zm-45.98339-2.33594h43.64746V403.74109H508.56016z" class="colorf73c4f svgShape"></path><rect width="104.567" height="68.076" x="435.765" y="160.983" fill="#ffebcb" class="colorffe3cb svgShape"></rect><circle cx="512.244" cy="184.248" r="6.839" fill="#e2853b" class="colorffba55 svgShape"></circle><path fill="#75bfd2" fill-rule="evenodd" d="M467.91465 185.25239H450.51021a4.40444 4.40444 0 01-4.26408-4.35111 4.24338 4.24338 0 013.65493-4.26409v-.087a5.21512 5.21512 0 019.57244-2.87173 3.94167 3.94167 0 016.17857 3.21982v.174a4.52159 4.52159 0 012.17556-.60915 4.35111 4.35111 0 110 8.70222zm0 0M501.05029 174.30609H490.60763a2.64267 2.64267 0 01-2.55845-2.61067 2.546 2.546 0 012.193-2.55845v-.05221a3.12907 3.12907 0 015.74346-1.723 2.365 2.365 0 013.70715 1.93189v.10443a2.71278 2.71278 0 011.30533-.3655 2.61067 2.61067 0 010 5.22134zm0 0M526.46974 188.42484H516.02707a2.64266 2.64266 0 01-2.55845-2.61066 2.546 2.546 0 012.193-2.55845v-.05222a3.12907 3.12907 0 015.74347-1.723 2.365 2.365 0 013.70714 1.9319v.10442a2.71289 2.71289 0 011.30533-.36549 2.61067 2.61067 0 110 5.22133zm0 0" class="colora2aee6 svgShape"></path><g clip-path="url(#a)" fill="#000000" class="color000 svgShape"><path fill="#dd965e" d="M521.24841,230.841c-9.75815.32852-21.75263-16.67911-24.43452-23.06341s-12.56906-20.51386-17.56589-15.71439-6.194,14.7048-12.98847,28.97038c-.04452.09345-.08822.17727-.1326.26914a57.476,57.476,0,0,1-9.09789-13.52513c-2.68192-6.38416-12.569-20.51386-17.56585-15.71439s-6.194,14.7048-12.98847,28.97038c-2.88019,6.04715-5.47085,8.72336-7.5025,9.80742Z" class="colordd765e svgShape"></path><path fill="#5d5d5a" d="M436.87278 222.646a3.39673 3.39673 0 011.44128-.39233 3.521 3.521 0 011.51343.24585 3.60764 3.60764 0 011.269.85962 3.88506 3.88506 0 01.4635.58789 4.39955 4.39955 0 00.38721.61145 5.86043 5.86043 0 01-1.25207-.71253 6.93015 6.93015 0 00-1.16773-.59607A11.49526 11.49526 0 00436.87278 222.646zM433.97971 211.52637a1.72248 1.72248 0 01-.84033-.33764c-.2373-.14429-.443-.303-.65417-.45093a11.14589 11.14589 0 01-1.25879-1.06067 2.09857 2.09857 0 011.7417.41284 2.71634 2.71634 0 01.61315.65173A7.31633 7.31633 0 01433.97971 211.52637zM447.367 210.62073a3.39673 3.39673 0 011.44129-.39233 3.519 3.519 0 011.51342.24585 3.6079 3.6079 0 011.269.85962 3.87814 3.87814 0 01.4635.58789 4.3995 4.3995 0 00.3872.61145 5.86656 5.86656 0 01-1.25207-.71253 6.92088 6.92088 0 00-1.16773-.59607A11.489 11.489 0 00447.367 210.62073zM462.29038 225.26124a3.399 3.399 0 011.44141-.39246 3.52169 3.52169 0 011.51342.246 3.6102 3.6102 0 011.269.85962 3.89327 3.89327 0 01.4635.58789 4.38717 4.38717 0 00.38708.61145 5.867 5.867 0 01-1.25207-.71252 6.92014 6.92014 0 00-1.16773-.59607A11.48751 11.48751 0 00462.29038 225.26124zM472.928 208.98194a3.399 3.399 0 011.44141-.39234 3.52159 3.52159 0 011.51343.246 3.6083 3.6083 0 011.269.85962 3.8873 3.8873 0 01.4635.58789 4.401 4.401 0 00.38709.61145 5.86827 5.86827 0 01-1.252-.71253 6.93525 6.93525 0 00-1.16784-.59619A11.49379 11.49379 0 00472.928 208.98194zM486.68516 204.57a3.398 3.398 0 011.44128-.39233 3.52173 3.52173 0 011.51343.246 3.60726 3.60726 0 011.269.85962 3.89327 3.89327 0 01.4635.58789 4.38629 4.38629 0 00.38709.61145 5.86272 5.86272 0 01-1.252-.71253 6.92452 6.92452 0 00-1.16772-.59606A11.48988 11.48988 0 00486.68516 204.57zM498.28269 222.22034a3.399 3.399 0 011.44141-.39233 3.52169 3.52169 0 011.51342.246 3.60847 3.60847 0 011.269.85962 3.89327 3.89327 0 01.4635.58789 4.38717 4.38717 0 00.38708.61145 5.863 5.863 0 01-1.25195-.71252 6.92572 6.92572 0 00-1.16785-.59607A11.48688 11.48688 0 00498.28269 222.22034zM484.18284 216.53248a3.39609 3.39609 0 011.44128-.39234 3.52163 3.52163 0 011.51343.24585 3.609 3.609 0 011.269.85962 3.89863 3.89863 0 01.4635.58789 4.38629 4.38629 0 00.38709.61145 5.858 5.858 0 01-1.252-.71252 6.93348 6.93348 0 00-1.16772-.59607A11.4967 11.4967 0 00484.18284 216.53248zM444.46 210.28362a.6068.6068 0 000-1.21287.6068.6068 0 000 1.21287zM454.45183 218.61066a.6068.6068 0 000-1.21287.6068.6068 0 000 1.21287zM431.2708 225.39478a.6068.6068 0 000-1.21287.6068.6068 0 000 1.21287zM475.63449 220.9427a.6068.6068 0 000-1.21287.6068.6068 0 000 1.21287zM497.51658 218.61066a.6068.6068 0 000-1.21287.6068.6068 0 000 1.21287zM479.63122 201.01434a.6068.6068 0 000-1.21287.6068.6068 0 000 1.21287z" class="color935b50 svgShape"></path><path fill="#dd965e" d="M501.192,231.31029c.04452.09345,8.735-10.09946,8.7794-10.00759a57.47622,57.47622,0,0,0,9.09788-13.52513c2.68193-6.38416,12.569-20.51386,17.56585-15.71439s6.194,14.7048,12.98847,28.97038c2.88019,6.04715,5.47085,8.72336,7.5025,9.80742Z" class="colordd765e svgShape"></path><path fill="#5d5d5a" d="M539.22556 222.646a11.49526 11.49526 0 00-2.65466.60388 6.93015 6.93015 0 00-1.16773.59607 5.86043 5.86043 0 01-1.25207.71253 4.39955 4.39955 0 00.38721-.61145 3.89264 3.89264 0 01.4635-.58789 3.60764 3.60764 0 011.269-.85962 3.52132 3.52132 0 011.51343-.24585A3.39673 3.39673 0 01539.22556 222.646zM542.11863 211.52637a7.31633 7.31633 0 01.39844-.78467 2.71634 2.71634 0 01.61315-.65173 2.09857 2.09857 0 011.7417-.41284 11.14589 11.14589 0 01-1.25879 1.06067c-.21118.148-.41687.30664-.65417.45093A1.72248 1.72248 0 01542.11863 211.52637zM528.7313 210.62073a11.489 11.489 0 00-2.65466.60388 6.92088 6.92088 0 00-1.16773.59607 5.86068 5.86068 0 01-1.25207.71253 4.3995 4.3995 0 00.3872-.61145 3.89327 3.89327 0 01.4635-.58789 3.6079 3.6079 0 011.26905-.85962 3.51934 3.51934 0 011.51342-.24585A3.39673 3.39673 0 01528.7313 210.62073zM513.808 225.26124a11.48751 11.48751 0 00-2.65466.60388 6.92014 6.92014 0 00-1.16773.59607 5.867 5.867 0 01-1.25207.71252 4.38717 4.38717 0 00.38708-.61145 3.88653 3.88653 0 01.46362-.58789 3.608 3.608 0 011.269-.85962 3.5211 3.5211 0 011.51342-.246A3.39847 3.39847 0 01513.808 225.26124zM531.63835 210.28362a.6068.6068 0 000-1.21287.6068.6068 0 000 1.21287zM521.64652 218.61066a.6068.6068 0 000-1.21287.6068.6068 0 000 1.21287zM544.82755 225.39478a.6068.6068 0 000-1.21287.6068.6068 0 000 1.21287z" class="color935b50 svgShape"></path></g><rect width="500" height="2" x="100" y="453.924" fill="#5d5d5a" class="color935b50 svgShape"></rect></svg></g></svg>