<svg xmlns="http://www.w3.org/2000/svg" viewBox="0 0 2000 1808.49"><defs><linearGradient id="a" x1="203.26" x2="854.8" y1="215.68" y2="215.68" gradientUnits="userSpaceOnUse"><stop offset="0" stop-color="#ffffff" class="stopColorfff svgShape"/><stop offset=".53" stop-color="#cdf7f2" class="stopColorcdd2f7 svgShape"/><stop offset="1" stop-color="#ffffff" class="stopColorfff svgShape"/></linearGradient></defs><g data-name="Secondary shapes" fill="#000000" class="color000 svgShape"><path d="M176.86 1575.81c0-13.56 135.53-24.55 302.72-24.55s302.71 11 302.71 24.55-135.53 24.56-302.71 24.56-302.72-10.99-302.72-24.56Z" style="mix-blend-mode:multiply" fill="#e6fffc" class="colore6edff svgShape"/><path fill="#e6fffc" d="M402.58 1437.64c0-18.76 323.47-34 722.46-34s722.46 15.2 722.46 34-323.45 34-722.46 34-722.46-15.24-722.46-34Z" class="colore6edff svgShape"/><path fill="#e8f6f4" d="M1200.26 470.1a2.77 2.77 0 0 1-2.27-4.33c33-47.77 116.43-224.85 147.07-329a2.76 2.76 0 1 1 5.29 1.56c-30.76 104.61-114.65 282.56-147.81 330.6a2.77 2.77 0 0 1-2.28 1.17Z" class="colore8ecf6 svgShape"/><path fill="none" stroke="#e8f6f4" stroke-linecap="round" stroke-linejoin="round" stroke-width="5" d="M1355.78 137.85a12.83 12.83 0 1 0-15.88-8.75 12.82 12.82 0 0 0 15.88 8.75ZM1370.8 252.32a12.42 12.42 0 1 0-15.38-8.47 12.41 12.41 0 0 0 15.38 8.47ZM1248.9 290.92a14.09 14.09 0 1 0-17.46-9.62 14.1 14.1 0 0 0 17.46 9.62ZM1307.66 381a16.31 16.31 0 1 0-20.2-11.13 16.31 16.31 0 0 0 20.2 11.13ZM1312.73 146.42a10.65 10.65 0 1 0-13.19-7.26 10.65 10.65 0 0 0 13.19 7.26Z" class="colorStrokee8ecf6 svgStroke"/><path fill="#e8f6f4" d="M1328.37 197.75h-.2a2.76 2.76 0 0 1-2.56-2.95c.63-8.8-7.56-30.59-12-42.3-.86-2.29-1.59-4.23-2.11-5.68a2.76 2.76 0 1 1 5.2-1.85c.51 1.42 1.23 3.33 2.08 5.59 6.29 16.75 13 35.4 12.3 44.63a2.76 2.76 0 0 1-2.71 2.56ZM1297.65 274.54a2.76 2.76 0 0 1-1.72-4.92c18.45-14.65 49.35-25.71 58.72-28.42a2.76 2.76 0 1 1 1.53 5.3c-7.4 2.15-38.76 13.1-56.82 27.44a2.74 2.74 0 0 1-1.71.6ZM1266.1 345.15h-.17a2.76 2.76 0 0 1-2.58-2.93c.72-11.34-11.83-43.65-16.6-49.57a2.76 2.76 0 1 1 4.29-3.46c5.41 6.69 18.64 40.48 17.82 53.38a2.77 2.77 0 0 1-2.76 2.58ZM1235.4 408a2.77 2.77 0 0 1-1.77-4.89c7.23-6 48.33-27.49 55-30.84a2.76 2.76 0 0 1 2.47 4.94c-8.8 4.4-47.51 24.79-53.95 30.15a2.73 2.73 0 0 1-1.75.64Z" class="colore8ecf6 svgShape"/><path fill="#3f196f" d="M380.77 1387.06c27.87 60.33-8.13 111-83 133.71-14.33-59.48 10.34-133.97 83-133.71Z" class="color20196f svgShape"/><path fill="#5a2e93" d="M401.63 1319.05c-99-58.68-192.64-5.55-244.85 119.61 99.9 35.08 232.51 5.67 244.85-119.61Z" class="color362e93 svgShape"/><path fill="#3f196f" d="M186.07 1425.36a2.76 2.76 0 0 1-1.34-5.18c35.24-19.58 84.2-41.83 127.39-61.45 35.54-16.14 69.1-31.39 88.15-42.09a2.76 2.76 0 0 1 2.71 4.82c-19.26 10.81-52.93 26.1-88.57 42.3-43.1 19.58-92 41.77-127 61.25a2.68 2.68 0 0 1-1.34.35Z" class="color20196f svgShape"/><path fill="#6f3eae" d="M1173.54 526.12c68.63 23.13 119.35-21.81 135.12-105.64-66.1-8.48-143.91 26.96-135.12 105.64Z" class="color423eae svgShape"/><path fill="#fb9906" d="M1163.92 529c78.83-52 73.31-140.17-.19-223.61C1102 366.55 1076 475 1163.92 529Z" class="colorfbb906 svgShape"/><path fill="#ec8e00" d="M1163.92 531.79a2.75 2.75 0 0 1-2.75-2.6c-1.05-18.11-.23-48.44.64-80.55 1-38.84 2.24-82.85.47-115.69a2.76 2.76 0 0 1 5.52-.3c1.78 33.07.58 77.2-.47 116.14-.87 32-1.69 62.21-.65 80.08a2.77 2.77 0 0 1-2.6 2.92Z" class="colorec9e00 svgShape"/><path fill="#bf67e8" d="M407.75 1282.82c20.39-24.72 50.34-102.25-3.72-147-24.47-20.23-32.08-24.09-44.73-22.22-8.23 1.21-14.54 6.42-20.48 2-10.85-8.15 19.61-48.77-17-82.12s-66.27-12.93-76-22-.84-28.09-22.76-36.94-37.17 26.87-66.91 19.38c-30.93-7.78-85.07-9.33-92.45 20s16.79 34.19 24.88 53.3-7.94 76.69 37.76 88.18c45.41 11.43 63.92 9 70.5 67.28s59 84.78 87.11 79 21.19 9.29 6.74 17.93 8.58 20.48 29.34 17.38 62.11-23.14 87.72-54.17Z" class="color6b67e8 svgShape"/><path fill="#8752cb" d="M416.54 1299a2.77 2.77 0 0 1-2.42-1.42C337.08 1158.85 208.49 1071 113.84 1035a2.76 2.76 0 1 1 2-5.16c95.56 36.33 225.38 125 303.14 265.1a2.77 2.77 0 0 1-1.07 3.76 2.84 2.84 0 0 1-1.37.3Z" class="color5652cb svgShape"/><path fill="#8752cb" d="M194.6 1073.92a2.75 2.75 0 0 1-2.76-2.67c-.23-7.82 3-39.83 12.22-57a2.76 2.76 0 0 1 4.87 2.6c-8.59 16-11.78 47.06-11.57 54.27a2.75 2.75 0 0 1-2.68 2.84ZM132.91 1084.89a2.76 2.76 0 0 1-1.77-4.88c6.55-5.48 30.77-19.89 42.29-23a2.76 2.76 0 1 1 1.44 5.32c-10.68 2.91-34.1 16.84-40.19 21.94a2.75 2.75 0 0 1-1.77.62ZM275.49 1130.88a2.75 2.75 0 0 1-2.74-2.45c-.91-8.21-3.66-33.16 13.94-65.36a2.76 2.76 0 1 1 4.84 2.65c-15 27.49-14.78 48.61-13.3 62.1a2.76 2.76 0 0 1-2.44 3ZM188.56 1130.94a2.76 2.76 0 0 1-1.42-5.13c13.89-8.3 46.39-23.79 57.81-24.17a2.7 2.7 0 0 1 2.85 2.67 2.76 2.76 0 0 1-2.67 2.85c-10 .33-41.75 15.37-55.16 23.39a2.68 2.68 0 0 1-1.41.39ZM289.3 1203.75a2.76 2.76 0 0 1-1.42-5.13c1.84-1.1 3.79-2.33 5.85-3.61 10.8-6.75 24.24-15.16 37.86-16.69a2.76 2.76 0 0 1 .62 5.49c-12.38 1.39-25.23 9.42-35.55 15.88-2.09 1.31-4.08 2.55-6 3.67a2.78 2.78 0 0 1-1.36.39ZM360.6 1216.61a2.75 2.75 0 0 1-2.67-2.1c-3.65-14.76-.23-43.65 7.63-64.39a2.76 2.76 0 0 1 5.16 2c-7.39 19.51-10.8 47.5-7.43 61.11a2.76 2.76 0 0 1-2 3.34 2.56 2.56 0 0 1-.69.04Z" class="color5652cb svgShape"/><path fill="#dcf7f4" d="M1529 1083.21c40.17 44.53 95 32.64 140.41-21.49-44.25-32.94-114.81-38.89-140.41 21.49Z" class="colordce1f7 svgShape"/><path fill="#5fe4d4" d="M1529 1086a2.76 2.76 0 0 1-.57-5.46c11.33-2.4 30.5-4.79 50.79-7.32 24.45-3 52.17-6.49 72.57-10.73a2.76 2.76 0 0 1 1.12 5.41c-20.62 4.28-48.45 7.74-73 10.8-20.17 2.51-39.22 4.89-50.32 7.24a2.86 2.86 0 0 1-.59.06Z" class="colorbabfe5 svgShape"/><path fill="#ec8e00" d="M1438.4 1071.5c-.05-99.76 81-146.16 197.39-129.82-17.96 90.03-98.48 175.96-197.39 129.82Z" class="colorec9e00 svgShape"/><path fill="#d8a353" d="M1438.4 1074.26a2.76 2.76 0 0 1-1.38-5.15c16.39-9.48 42.58-27.78 70.32-47.16 33.72-23.55 71.94-50.25 102.13-67.9a2.76 2.76 0 0 1 2.79 4.77c-30 17.53-68.12 44.16-101.76 67.66-27.84 19.44-54.13 37.81-70.72 47.41a2.75 2.75 0 0 1-1.38.37Z" class="colorffcf3e svgShape"/><path fill="#fb9906" d="M1308.09 1075.6c8.08 8.22 115.84-4.06 114.84-24.82-.78-16.17-17.94-15.71-24.16-15-9.8 1-33.21 5.06-32.83-2.31.69-13.34 61.19-16 75.89-17.53s42.82-8.56 50.13-23.18 8.61-21.39-17-17.25-74.88 18.49-64.85 2.49 50.89-18.38 73.89-28.31 63.29-36.61 47.38-46.55c-14.23-8.89-77.16 29.78-78.52 16.94-1.08-10.27 19.93-14.22 48.85-30s56-30.9 48.28-49c-6.25-14.49-22.63-.49-38.33 7.8s-38 19-36.49 9 82.21-43.1 77.34-68.75c-3.22-17-18.19-4.43-37 4.19s-26.06 10.25-26.52 6 23-20 36.16-28.34 29.11-24.71 21.79-37.21-27 3-32.9 10.4-14.75 11.94-16.94 10.15 15.66-27.62.91-34.72-29.4 19.26-27.69 35.53 3.47 38.3-2.46 38.92-7.93-18.2-9.49-33-5.58-20.38-9.54-20c-13.19 1.39-22.27 21.87-21.12 32.72s15.47 70.79 6.71 71.71-11.77-22.13-13-34.12-4.22-39.94-18.91-38.39-18.64 40.05-14.82 62.73 12.8 59 6 59.67-18.87-27.15-20.41-41.7 3.07-41.3-15-39.39-19.42 24.52-16.4 53.09c1.26 11.94 4.68 41.46 16.41 56.43 13.35 17 17.21 27.73 13.4 31-7.59 6.58-17.34-10-21.62-23.39s-15-55.83-34.54-45.7-2.14 42.07 3.58 55.6 30 59.45 20 64.83-16.35-22.22-19.23-30.58-14.37-23.72-19.54-17.26-6.65 102.7 7.75 117.3Z" class="colorfbb906 svgShape"/><path fill="#bf67e8" d="M627.39 497.38h34.85v84.23h-34.85zM1345.35 497.38h34.85v84.23h-34.85z" class="color6b67e8 svgShape"/><path fill="#8752cb" d="M1345.35 544.14h34.85v37.47h-34.85zM627.39 544.14h34.85v37.47h-34.85z" class="color5652cb svgShape"/><path fill="#cdf7f2" d="M662.25 511.32h683.11v56.34H662.25z" class="colorcdd2f7 svgShape"/><path fill="#5fe4d4" d="M662.25 552.27h683.11v15.39H662.25z" class="colorbabfe5 svgShape"/><path fill="#e8f6f4" d="M686.64 567.66h634.31v526.85H686.64z" class="colore8ecf6 svgShape"/><path fill="#dcf7f4" d="M686.64 567.66h634.31v32.24H686.64zM686.64 751.8c28.49-16 50.22-42.37 66.8-33.11-9.29-27.36 12.49-55.77 45.89-33.11 8.43-6.43 22.08-3.49 41.83 3.48s17.13 36.52 17.13 48.32 34.42 50.62 20.91 64.08-51.11 14.48-57.9 26.54c-11.33 20.11 23.23 64.38-10.06 78.89-28.4 12.38-49.2 10.92-53.55 35.32-6.21 34.73 94 92.31 26.8 152.3h-97.85ZM1072.55 1094.51c-10.85-10.84 1.8-26.4 13.15-25.22 5.29-19.2 10.52-33.71 39.62-27.8 14.8-10.7 9-37.21 45-32.56 7.52-7.52 19.34-21.55 29.6-31.81 0-21.21 24.46-28.65 55.35-6.33 15.44-11.16 20.59-43.72 65.64-31.62v155.34ZM1177.47 654.41c15 10.88 21.35 33.55 3.49 66.22-12.2 27 26.14 60.12 9.58 76.68s-78-16.12-85.38-8.71-35.73 50.53-51.41 34.85 1.57-46.85-18.3-68.84c-18.11-20-22.26-46.26-16.39-66.37 6.81-23.37 42.93-27.28 67.8-22.5 22.65 4.36 61.86-32.24 90.61-11.33ZM1018.9 910.79c18.9-6.08 54.53-8.45 64.19 8.66s-76.68 95-115 74.11-8.72-117.62 7.84-117.62c24.4 0 26.71 40.06 42.97 34.85Z" class="colordce1f7 svgShape"/><path fill="#dcf7f4" d="M1035.17 1094.51c0-21.2 48.66-56.63 48.66-79.43s54.92-10.23 76.48-35.15 36-74.24 76.13-60.13 84.56-33.87 84.56-33.87v-20.86c-13.48 7.38-31.52 39-74.58 30-51.7-10.83-76.16 19.19-96.2 54s-55.3 11.88-81.77 26.33c-21 11.48-12.33 29-24.53 49.08s-48 37.17-56.68 70Z" class="colordce1f7 svgShape"/><path fill="#dcf7f4" d="M1176.32 859.04h53.15v21.49h-53.15z" transform="rotate(-14.75 1203.068 869.891)" class="colordce1f7 svgShape"/><path fill="#dcf7f4" d="M779.93 648.02h53.15v21.49h-53.15z" transform="rotate(10.45 806.172 658.453)" class="colordce1f7 svgShape"/><path fill="#dcf7f4" d="M783.03 939.63h63.74v25.77h-63.74z" transform="rotate(-49.83 814.994 952.563)" class="colordce1f7 svgShape"/><path fill="#dcf7f4" d="M1242.77 868.44h32.07v12.96h-32.07z" transform="rotate(10.34 1258.426 874.611)" class="colordce1f7 svgShape"/><path fill="#dcf7f4" d="M731.02 667.67h32.07v12.96h-32.07z" transform="rotate(-40.15 747.011 674.136)" class="colordce1f7 svgShape"/><path fill="#dcf7f4" d="M808.62 1013.25h32.07v12.96h-32.07z" transform="rotate(74.1 824.662 1019.766)" class="colordce1f7 svgShape"/><path fill="#bf67e8" d="M847.52 693.28h87.13v34.85h-87.13z" transform="rotate(-45 891.094 710.707)" class="color6b67e8 svgShape"/><path fill="#bf67e8" d="M931.24 634.54h61.72v24.69h-61.72z" transform="rotate(-45 962.09 646.89)" class="color6b67e8 svgShape"/><path fill="#bf67e8" d="M796.41 769.37h61.72v24.69h-61.72z" transform="rotate(135 827.268 781.713)" class="color6b67e8 svgShape"/><path fill="#bf67e8" d="M1002.18 818.3c-25.92-30.79-71.74-84.84-85.34-98.43l-8.29 8.29-8.3 8.3c13.59 13.6 67.64 59.41 98.43 85.34l-8.7 8.7s14.6 4.54 30.49 9.59c-5.05-15.9-9.58-30.49-9.58-30.49Z" class="color6b67e8 svgShape"/><path fill="#ec8e00" d="M1095.08 940.84h87.13v34.85h-87.13z" transform="rotate(135 1138.652 958.27)" class="colorec9e00 svgShape"/><path fill="#ec8e00" d="M1195.2 720.22h51.44v20.57h-51.44z" transform="rotate(135 1220.92 730.511)" class="colorec9e00 svgShape"/><path fill="#ec8e00" d="M1072.42 895.54c25.93 30.8 26.88 40 40.48 53.57l8.29-8.3 8.3-8.3c-13.59-13.59-22.77-14.54-53.57-40.47l8.71-8.7s-14.6-4.54-30.5-9.59l9.59 30.49Z" class="colorec9e00 svgShape"/><path fill="#bf67e8" d="M966.23 865.37c-29.7-11.27-82-39.78-118.55-76.34l-6.55 6.55-6.54 6.54c39.84 39.84 99.39 61 130.57 67l-2.66 9.35s11.81-2.49 24.7-5.11c-9.59-9-18.32-17.33-18.32-17.33ZM1045.75 785.85c-11.26-29.7-39.78-82-76.34-118.55l6.55-6.55 6.54-6.55c39.85 39.85 61 99.4 67 130.58l9.34-2.66s-2.48 11.8-5.11 24.7c-9-9.59-17.33-18.32-17.33-18.32Z" class="color6b67e8 svgShape"/><path fill="#ec8e00" d="m1108.46 690.82-3.86-9.32-17.79 20 26.74 1.56-3-7.32c42.17-7.27 78.52 13.93 92.83 28.24l9.3-9.3c-39.86-33.08-86.68-30.22-104.22-23.86Z" class="colorec9e00 svgShape"/><path fill="#ec8e00" d="M885.18 1030.25h51.44v20.57h-51.44z" transform="rotate(-45 910.897 1040.544)" class="colorec9e00 svgShape"/><path fill="#ec8e00" d="m876.15 930.13 7.32 3-1.56-26.74-20 17.79 9.31 3.86c-6.35 17.5-9.22 64.35 23.9 104.19l9.3-9.3c-14.34-14.28-35.54-50.62-28.27-92.8Z" class="colorec9e00 svgShape"/><path fill="#dcf7f4" d="M917 1336.73h204.14a22.07 22.07 0 0 0 22-22v-66.09a22.08 22.08 0 0 0-22-22.06H917Z" class="colordce1f7 svgShape"/><path fill="#e8f6f4" d="M1107 1226.53h-31.37a22.08 22.08 0 0 1 22 22.06v66.09a22.07 22.07 0 0 1-22 22H1107a22.07 22.07 0 0 0 22-22v-66.09a22.08 22.08 0 0 0-22-22.06ZM961.72 1226.53h-31.37a22.09 22.09 0 0 1 22 22.06v66.09a22.08 22.08 0 0 1-22 22h31.37a22.07 22.07 0 0 0 22-22v-66.09a22.08 22.08 0 0 0-22-22.06ZM1032.86 1226.53h-4a22.08 22.08 0 0 1 22.05 22.06v66.09a22.07 22.07 0 0 1-22.05 22h4a22.07 22.07 0 0 0 22.05-22v-66.09a22.08 22.08 0 0 0-22.05-22.06Z" class="colore8ecf6 svgShape"/><path fill="#e8f6f4" d="M1023.12 1226.53h-4a22.09 22.09 0 0 1 22.06 22.06v66.09a22.08 22.08 0 0 1-22.06 22h4a22.07 22.07 0 0 0 22.05-22v-66.09a22.08 22.08 0 0 0-22.05-22.06Z" class="colore8ecf6 svgShape"/><path fill="#e9f7f5" d="M752.38 1229.67H917a18.92 18.92 0 0 1 18.91 18.92v66.09A18.92 18.92 0 0 1 917 1333.6H752.38Z" class="colore9edf7 svgShape"/><path fill="#cef8f3" d="M752.38 1281.27H935.9v3.39H752.38zM752.38 1290.51H935.9v1.69H752.38zM752.38 1276.54H935.9v1.69H752.38zM752.38 1271.06H935.9v1.69H752.38zM752.38 1253.64H935.9v3.39H752.38zM752.38 1247.89H935.9v3.39H752.38zM752.38 1241.43H935.9v1.69H752.38zM752.38 1297.05H935.9v1.69H752.38zM752.38 1321.98H935.9v1.69H752.38zM752.38 1309.52H935.9v1.69H752.38z" class="colorced3f8 svgShape"/><path fill="#5fe4d4" d="M738.28 1336.73H917a22.08 22.08 0 0 0 22-22v-66.09a22.09 22.09 0 0 0-22-22.06H738.28v6.27H917a15.8 15.8 0 0 1 15.78 15.79v66.09a15.81 15.81 0 0 1-15.78 15.74H738.28Z" class="colorbabfe5 svgShape"/><path fill="#cdf7f2" d="M905.76 1379.77a43.08 43.08 0 0 0-43-43h251.34a43 43 0 0 1 0 86.08H862.73a43.08 43.08 0 0 0 43.03-43.08Z" class="colorcdd2f7 svgShape"/><path fill="#5fe4d4" d="M1015.78 1379.77a43.08 43.08 0 0 0-43-43h31.33a43 43 0 0 1 0 86.08h-31.36a43.08 43.08 0 0 0 43.03-43.08Z" class="colorbabfe5 svgShape"/><path fill="#e9f7f5" d="M728.63 1419.67h134.1a39.9 39.9 0 0 0 0-79.8h-134.1Z" class="colore9edf7 svgShape"/><path fill="#cef8f3" d="M728.63 1361.48h170.38v3.39H728.63zM728.63 1370.73h174v1.69h-174zM728.63 1356.06h167.12v1.69H728.63zM728.63 1387.79h174v1.69h-174zM728.63 1393.27h170.38v1.69H728.63zM728.63 1403.65h165.41v1.69H728.63zM728.63 1351.16h162.75v1.69H728.63z" class="colorced3f8 svgShape"/><path fill="#5fe4d4" d="M713 1422.81h149.73a43 43 0 0 0 0-86.08H713v6.27h149.73a36.77 36.77 0 0 1 0 73.54H713Z" class="colorbabfe5 svgShape"/><ellipse cx="959.46" cy="1379.77" fill="#5fe4d4" rx="8.44" ry="11.37" class="colorbabfe5 svgShape"/><path fill="#5fe4d4" d="M1089.64 1379.77c0-6.28 3.78-11.37 8.44-11.37s8.44 5.09 8.44 11.37-3.78 11.37-8.44 11.37-8.44-5.09-8.44-11.37Z" class="colorbabfe5 svgShape"/><path fill="#8752cb" d="M1740.38 1272.1h-153.32l-488 32a66.77 66.77 0 0 0 0 133.53h449.51c1.21 0 2.41 0 3.6-.1 44.11-1 101-20.73 136.92-38.13l1.35-.65c36.73-18 87.79-49.61 87.79-88.77a37.89 37.89 0 0 0-37.85-37.88Z" class="color5652cb svgShape"/><path fill="#5a2e93" d="M1099.1 1428.79a57.92 57.92 0 0 1 0-115.83h.29l488-32h153a29.08 29.08 0 0 1 29 29c0 25.9-29.42 54.61-82.84 80.82-.41.21-.8.39-1.19.57-36.9 17.91-92.37 36.35-133.39 37.31-1.3.06-2.34.1-3.4.1Z" class="color362e93 svgShape"/><circle cx="1099.1" cy="1370.87" r="32.01" fill="#bf67e8" transform="rotate(-22.71 1099.19 1370.952)" class="color6b67e8 svgShape"/><circle cx="1099.1" cy="1370.87" r="23" fill="#8752cb" transform="rotate(-82 1104.977 1372.131)" class="color5652cb svgShape"/><circle cx="1211.48" cy="1370.87" r="32.01" fill="#bf67e8" transform="rotate(-50.52 1211.613 1370.931)" class="color6b67e8 svgShape"/><circle cx="1211.48" cy="1370.87" r="23" fill="#8752cb" transform="rotate(-50.41 1211.485 1370.873)" class="color5652cb svgShape"/><circle cx="1323.85" cy="1370.87" r="32.01" fill="#bf67e8" transform="rotate(-26.04 1323.855 1370.864)" class="color6b67e8 svgShape"/><circle cx="1323.85" cy="1370.87" r="23" fill="#8752cb" transform="rotate(-84.02 1323.735 1370.867)" class="color5652cb svgShape"/><circle cx="1436.23" cy="1370.87" r="32.01" fill="#bf67e8" transform="rotate(-26.5 1436.494 1371.043)" class="color6b67e8 svgShape"/><circle cx="1436.23" cy="1370.87" r="23" fill="#8752cb" transform="rotate(-84.05 1436.144 1370.868)" class="color5652cb svgShape"/><circle cx="1548.61" cy="1370.87" r="32.01" fill="#bf67e8" transform="rotate(-20.81 1548.948 1371.091)" class="color6b67e8 svgShape"/><circle cx="1548.61" cy="1370.87" r="23" fill="#8752cb" transform="rotate(-83.56 1548.63 1370.872)" class="color5652cb svgShape"/><circle cx="1660.98" cy="1338.86" r="32.01" fill="#bf67e8" class="color6b67e8 svgShape"/><circle cx="1660.98" cy="1338.86" r="23" fill="#8752cb" transform="rotate(-45 1660.987 1338.867)" class="color5652cb svgShape"/><path fill="#bf67e8" d="M1717.38 1310a23 23 0 1 1 23 23 23 23 0 0 1-23-23Z" class="color6b67e8 svgShape"/><circle cx="1740.38" cy="1309.99" r="16.53" fill="#8752cb" transform="rotate(-47.46 1740.27 1309.96)" class="color5652cb svgShape"/><path d="M1634.65 1272.1h-47.59l-488 32a66.71 66.71 0 0 0-19.54 2.91v31.84h488.33Z" style="mix-blend-mode:multiply" fill="#cdf7f2" class="colorcdd2f7 svgShape"/><path fill="#bf67e8" d="M1694.51 1198.78h-481.93l-19 39.34h-121.16v86.55h488.33l68.85-68.85h110.15l-45.24-57.04z" class="color6b67e8 svgShape"/><path fill="#ad59d4" d="M1703.87 1210.58h-496.99l5.7-11.8h481.93l9.36 11.8z" class="color807dfa svgShape"/><path fill="#6f3eae" d="M1466.33 1232.22h26.56v8.85h-26.56zM1542.31 1232.22h26.56v8.85h-26.56z" class="color423eae svgShape"/><path fill="#8752cb" d="M1072.42 1324.67h125.89l-36.88-41.12h-89.01v41.12z" class="color5652cb svgShape"/><path fill="#6f3eae" d="M1442.1 1232.22h13.28v8.85h-13.28z" class="color423eae svgShape"/><path fill="#8752cb" d="M1236.67 1232.22h27.29v65.9h-27.29z" class="color5652cb svgShape"/><path fill="#5a2e93" d="M1240.34 1241.07h19.96v24.1h-19.96z" class="color362e93 svgShape"/><path fill="#8752cb" d="M1270.6 1232.22h8.11v65.9h-8.11zM1284.25 1232.22h8.11v65.9h-8.11zM1297.9 1232.22h8.11v65.9h-8.11zM1311.54 1232.22h8.11v32.95h-8.11zM1325.19 1232.22h8.11v32.95h-8.11zM1338.84 1232.22h8.11v32.95h-8.11z" class="color5652cb svgShape"/><path fill="#5a2e93" d="M1037.51 1167.31h156.07l19 31.47-19 39.34h-156.07v-70.81z" class="color362e93 svgShape"/><path fill="#3f196f" d="M1053.49 1183.29h91.22v4.18h-91.22zM1053.49 1192.88h59.75v4.18h-59.75zM1060.5 1159.44h-11.93v7.87h23.85l-11.92-7.87z" class="color20196f svgShape"/><path fill="#8752cb" d="M1383.71 1324.67h-2.95v-21.17l31.4-31.4h201.16l-2.95 2.95h-196.99l-29.67 29.67v19.95zM1637.96 1109.64h230.64v15.24h-230.64z" class="color5652cb svgShape"/><path fill="#6f3eae" d="M1637.96 1120.59h230.64v4.3h-230.64z" class="color423eae svgShape"/><path fill="#6f3eae" d="M1637.96 1109.64h12.54v15.24h-12.54z" class="color423eae svgShape"/><path fill="#8752cb" d="M1568.86 1100.42h69.1v33.69h-69.1z" class="color5652cb svgShape"/><path fill="#6f3eae" d="M1568.86 1120.59h69.1v13.52h-69.1z" class="color423eae svgShape"/><path fill="#bf67e8" d="m1868.6 1100.42-9.23 9.22v15.25l9.23 9.22h69.09v-33.69h-69.09z" class="color6b67e8 svgShape"/><path fill="#8752cb" d="m1859.37 1120.59 9.23 2.15h69.09v11.37h-69.09l-9.23-9.22v-4.3z" class="color5652cb svgShape"/><path fill="#6f3eae" d="M1281.42 1198.78h249.33l72.66-72.66h-394.64l72.65 72.66z" class="color423eae svgShape"/><path fill="#bf67e8" d="m1281.42 1053.46-72.65 72.66h394.64l-72.66-72.66h-249.33z" class="color6b67e8 svgShape"/><path fill="#8752cb" d="M1457.51 1042.89h-75.27v10.57h84.89l-9.62-10.57z" class="color5652cb svgShape"/><circle cx="1511.08" cy="1077.8" r="9.04" fill="#8752cb" class="color5652cb svgShape"/><path fill="#df9bff" d="M1507.14 1077.8a3.94 3.94 0 1 1 3.94 3.94 3.94 3.94 0 0 1-3.94-3.94Z" class="color9e9bff svgShape"/><path fill="#8752cb" d="M1317.26 1098.89H1236l2.95-2.95h77.09l42.47-42.48h4.17l-45.42 45.43zM1420.35 1081.74h-60.3l-17.16 17.15h77.46v-17.15zM1306.01 1105.96h61.23v4.06h-61.23z" class="color5652cb svgShape"/><path fill="#5a2e93" d="M1374.24 1105.96h11.06v4.06h-11.06zM1436.08 1198.78h-4.17l47.08-47.09h98.85l-2.95 2.95h-94.67l-44.14 44.14z" class="color362e93 svgShape"/><path fill="#bf67e8" d="M429.41 433.15v13.14l16.9-13.14h-16.9z" class="color6b67e8 svgShape"/><path fill="#5a2e93" d="M419.52 447.67a9.89 9.89 0 1 1 9.89 9.88 9.89 9.89 0 0 1-9.89-9.88Z" class="color362e93 svgShape"/><path fill="#8752cb" d="M425.88 447.67a3.53 3.53 0 1 1 3.53 3.52 3.52 3.52 0 0 1-3.53-3.52Z" class="color5652cb svgShape"/><path fill="#bf67e8" d="M662.25 433.15v13.14l16.9-13.14h-16.9z" class="color6b67e8 svgShape"/><path fill="#5a2e93" d="M652.36 447.67a9.89 9.89 0 1 1 9.89 9.88 9.89 9.89 0 0 1-9.89-9.88Z" class="color362e93 svgShape"/><path fill="#8752cb" d="M658.73 447.67a3.52 3.52 0 1 1 3.52 3.52 3.51 3.51 0 0 1-3.52-3.52Z" class="color5652cb svgShape"/><path fill="#bf67e8" d="M768 433.6c28.14 0 61.75-25 89.64-52.92s63.1-64.17 73.29-74.36 11.53-22.79 2.69-31.64-25.75-.54-37.55 4.82-100.64 51.85-127.81 51.85h-76c-14.43 0-64.48-73.66-118.31-73.66H459.44c-48.63 0-123.59 63.16-123.59 125.25s97.85 50.66 117.87 50.66Z" class="color6b67e8 svgShape"/><path fill="#ad59d4" d="M923.51 270.81c-8.69-.13-19.29 5-27.46 8.69-11.79 5.37-100.64 51.85-127.81 51.85h-76c-14.43 0-64.48-73.66-118.31-73.66H459.44c-9.24 0-19.42 2.29-29.86 6.41h138.6c12.34 0 27 1.82 44.16 14.69s54.34 47.91 61.85 55.42 12.87 6.43 25.38 6.43h71.15c12.16 0 30-7.51 44.34-15s73.29-39.29 82.94-44.14c8.32-4.19 18-10.06 25.51-10.69Z" class="color807dfa svgShape"/><path fill="#8752cb" d="M938.68 293.72C893 317 824.53 413.22 751.91 413.22H397.46c-49 0-55.86-13.86-60.19-18.2 12 48.45 97.84 38.58 116.45 38.58H768c28.15 0 61.75-25 89.64-52.92s63.1-64.17 73.29-74.36a29.26 29.26 0 0 0 7.75-12.6Z" class="color5652cb svgShape"/><path fill="#3f196f" d="M346.59 340.64h106.06a5 5 0 0 0 4.19-2.3l33.8-53.55a5 5 0 0 0-4.18-7.58h-82c-23.46 15.26-45.38 38.08-57.87 63.43ZM357.05 348.51h43.66a4.49 4.49 0 0 1 4.13 6.27c-7.26 16.66-19 38.42-31.07 38.42-15 0-24.5.8-27.18-6.71-2.55-7.14-1.23-18.89 6.39-35.4a4.47 4.47 0 0 1 4.07-2.58Z" class="color20196f svgShape"/><path fill="#5a2e93" d="M562.35 277.21h-41.51a6.36 6.36 0 0 0-5.39 3l-32 50.69a6.37 6.37 0 0 0 5.39 9.77h101.22a6.37 6.37 0 0 0 5.59-9.43l-27.71-50.69a6.38 6.38 0 0 0-5.59-3.34Z" class="color362e93 svgShape"/><path fill="#8752cb" d="M659.68 369.43h55.98v15.02h-55.98z" class="color5652cb svgShape"/><path fill="#5a2e93" d="m387.34 290 24.83 50.68h40.48a5 5 0 0 0 4.19-2.3l33.8-53.55a5 5 0 0 0-4.18-7.58h-82A172.52 172.52 0 0 0 387.34 290Z" class="color362e93 svgShape"/><path fill="#6f3eae" d="M567.94 280.52a6.38 6.38 0 0 0-5.59-3.31h-41.51a6.36 6.36 0 0 0-5.39 3l-22.68 35.89 68.56 24.54h28.73a6.37 6.37 0 0 0 5.59-9.43ZM486.46 277.21h-82c-2.33 1.52-4.65 3.13-6.95 4.8l77.37 27.69 15.73-24.91a5 5 0 0 0-4.15-7.58Z" class="color423eae svgShape"/><path fill="none" stroke="#8752cb" stroke-linecap="round" stroke-linejoin="round" stroke-width="2.5" d="M523.58 366.89H414.17l6.44-15.56h109.4l-6.43 15.56z" class="colorStroke5652cb svgStroke"/><path fill="#8752cb" d="M498.03 359.59h22.2l1.63-3.93h-22.2l-1.63 3.93z" class="color5652cb svgShape"/><path fill="#5a2e93" d="M488.24 360.11a1.64 1.64 0 1 1 1.64 1.64 1.65 1.65 0 0 1-1.64-1.64Z" class="color362e93 svgShape"/><path fill="#8752cb" d="M481.54 360.11a1.64 1.64 0 1 1 1.64 1.64 1.64 1.64 0 0 1-1.64-1.64Z" class="color5652cb svgShape"/><path fill="#6f3eae" d="M474.84 360.11a1.64 1.64 0 1 1 1.63 1.64 1.64 1.64 0 0 1-1.63-1.64Z" class="color423eae svgShape"/><path fill="#5a2e93" d="M687.67 364.07h37.64v5.36h-37.64z" class="color362e93 svgShape"/><path fill="#8752cb" d="m536.69 399.99-13.36 17.88h114.65l-8.42-17.88h-92.87zM610.16 300.15h-22.11l2.25 4.11h23.64ZM617.72 308.37h-25.18l2.25 4.11h26.73ZM601.14 324.1l4.5 8.22H640c-1.13-1.13-4.06-4.25-7.76-8.22ZM640.04 332.32h1.16l-.79-1.44-.37 1.44zM625.31 316.58H597l2.25 4.11h29.84Z" class="color5652cb svgShape"/><circle cx="920.53" cy="289.83" r="79.68" fill="#dcf7f4" opacity=".5" transform="rotate(-88.79 920.495 289.841)" class="colordce1f7 svgShape"/><path fill="#bf67e8" d="M920.53 224.1a65.73 65.73 0 1 0 65.72 65.73 65.73 65.73 0 0 0-65.72-65.73Zm0 123.78a58.06 58.06 0 1 1 58.05-58.05 58.05 58.05 0 0 1-58.05 58.05Z" opacity=".5" class="color6b67e8 svgShape"/><circle cx="920.53" cy="289.83" r="34.09" fill="#bf67e8" opacity=".5" transform="rotate(-4.08 921.232 290.02)" class="color6b67e8 svgShape"/><path fill="#6f3eae" d="M912.18 289.83a8.35 8.35 0 1 1 8.35 8.34 8.35 8.35 0 0 1-8.35-8.34Z" class="color423eae svgShape"/><path fill="#8752cb" d="M509.9 242h38.26a5.18 5.18 0 0 1 5.18 5.18v10.55h-48.62v-10.59a5.18 5.18 0 0 1 5.18-5.14Z" class="color5652cb svgShape"/><path fill="#6f3eae" d="M547.62 242H538a5.72 5.72 0 0 1 5.72 5.72v10h9.65v-10a5.72 5.72 0 0 0-5.75-5.72ZM513.84 231.95h30.39v10.01h-30.39z" class="color423eae svgShape"/><path fill="#3f196f" d="M519.47 229.63h19.13v2.32h-19.13z" class="color20196f svgShape"/><path fill="#3f196f" d="M519.47 229.63h19.13v2.32h-19.13zM524.92 218.37h8.22v11.26h-8.22zM524.92 208.87h8.22V213h-8.22z" class="color20196f svgShape"/><path fill="#6f3eae" d="M521.13 195.13h15.8a7.29 7.29 0 0 1 7.29 7.29v6.45h-30.38v-6.45a7.29 7.29 0 0 1 7.29-7.29Z" class="color423eae svgShape"/><path fill="#5a2e93" d="M536.17 195.13h-9.28a7.11 7.11 0 0 1 7.11 7.11v6.63h10.23v-5.69a8.05 8.05 0 0 0-8.06-8.05ZM533.86 231.95h10.37v10.01h-10.37z" class="color362e93 svgShape"/><path fill="url(#a)" d="M203.26 213H854.8v5.36H203.26z"/><path fill="#df9bff" d="M507.71 213h42.65v5.36h-42.65z" class="color9e9bff svgShape"/><path fill="#ec8e00" d="M420.63 863c-47 51-49.17 132.84-49.17 141.47 0 20.31 39.84 76.57 39.84 76.57Z" class="colorec9e00 svgShape"/><path fill="#3f196f" d="M396.22 1103.13c1.41 113.9 21.14 132.18 27.95 242.56 5.57 90-25.39 158.73-29.26 189.12h20.69c15.21-40.31 112.2-187.55 83.63-431.68Z" class="color20196f svgShape"/><path fill="#ffe9c9" d="M390.1 1542.37a83.63 83.63 0 0 0 4.81-7.56h20.69c-2 5.85-3.24 10.83-2.45 13.76-5.38 2.06-13.24-3.26-23.05-6.2Z" class="colorffd3c9 svgShape"/><path fill="#3f196f" d="M390.1 1542.37c9.81 2.94 17.67 8.26 23 6.2 2.85 2.06 44.8 17.16 49.07 20.07s3.73 7.63-.89 7.63c-6.77 0-62.47-2.44-62.47-2.44a35.697 35.697 0 0 0-2.05 2.44h-12.67c-3.8-6.57-2.77-26.33 6.01-33.9Z" class="color20196f svgShape"/><path fill="#5b2e94" d="M396.22 1103.13c0 103.8 67.76 108.48 113.29 209.26 31.26 69.17 22 204.14 23.45 222.42h20.69c11.24-49.22 37.65-243.52-5.26-431.68Z" class="color362e94 svgShape"/><path fill="#ffe9c9" d="M533 1542.37c-.06-3.43-.06-7.56-.06-7.56h20.69c-.78 5.85 1.63 10.83 2.43 13.76-5.36 2.06-13.23-3.26-23.06-6.2Z" class="colorffd3c9 svgShape"/><path fill="#3f196f" d="M533 1542.37c9.81 2.94 17.68 8.26 23.06 6.2 2.84 2.06 44.79 17.16 49.07 20.07s3.72 7.63-.9 7.63c-6.77 0-62.47-2.44-62.47-2.44-1.12 1.22-2 2.44-2 2.44H527c-3.79-6.57-2.76-26.33 6-33.9Z" class="color20196f svgShape"/><path fill="#fb9906" d="M394.91 998.59c.18.07 2.37-51.92 5-70.38 7.83-54.72 14.48-68.19 44.22-78.76 0 0 33.89-6.83 55.72.8 10 3.49 18.9 9.59 26.71 21.45 23.86 39.11 26.12 116.42 25.44 173.3h.06c0 108.3 55.53 326.83 88.5 376.89-58 16.48-237.7 20.75-276.1-16-.01-75.7 28.77-375.08 30.45-407.3Z" class="colorfbb906 svgShape"/><path fill="#ffe9c9" d="M498.2 762.56c1.9 12.66 11.55 50 4.38 63.67-5.87 11.25-18.39 13.39-38.75 6.94S441.86 790 439 779.45c-4.56-16.71 55.21-43.53 59.2-16.89Z" class="colorffd3c9 svgShape"/><path fill="#ffe9c9" d="M482.9 832.25c1.12 6.46 4 15.93 4 15.93-2.79 3.78-43.94 8.55-39.93 1.83 1.43-11.85.48-39.35.48-39.35Z" class="colorffd3c9 svgShape"/><path fill="#3f196f" d="M444.29 750.15c20.68-9.82 47.55-30.49 50.6-27.95.56.47-.74 1.92-.09 2.49 1.06.91 10.37-13.79 18.91-8.21s4.11 33.33-15.51 46.08-.72 25.41-9.45 32.49-7.6 31.86-22.41 32.4-23.28 9.79-23 .48-8.56-27.63-8-43.45-2.52-28.87 8.95-34.33Z" class="color20196f svgShape"/><path fill="#ffe9c9" d="M483.85 790.16c-.25-3.72 1.49-6.87 3.88-7s4.54 2.73 4.78 6.45-1.48 6.87-3.88 7-4.53-2.72-4.78-6.45Z" class="colorffd3c9 svgShape"/><path fill="#f7e5c9" d="M653.07 898.14c1.31-3.18 12-10.56 19.1-21.65 10.65-16.64 13.32-39.71-2.87-45.2-14-4.75-19.72 33.65-24.9 32.45-4.42-1-7.76-16.93-10.95-17.63s2.2 18.95.93 28.34c-.75 5.53 1.84 11-.77 16.33 1.86.63 19.46 7.36 19.46 7.36Z" class="colorf7d3c9 svgShape"/><path fill="#d8a353" d="M531.89 879.35C541.75 907.11 565.9 965 578 972l-1.46 58.63c-21.59 4.85-77.12-88.57-91.6-113.1-14.87-31.88 31.67-75.22 46.95-38.18Z" class="colorffcf3e svgShape"/><path fill="#d8a353" d="M631.68 889.62a183.83 183.83 0 0 1 26 6.23c-9.88 32.29-62.75 130.55-81.07 134.78l-4.36-56.81c17.22-3.09 59.43-84.2 59.43-84.2Z" class="colorffcf3e svgShape"/><path fill="#d37dfb" d="m608.82 822.51-46.48 114.88 83.03 25.75 46.49-114.88-83.04-25.75z" class="color807dfb svgShape"/><path fill="#ffffff" d="m610.85 830.3-41.34 102.15 73.83 22.9 41.34-102.16-73.83-22.89z" class="colorfff svgShape"/><path fill="#8526fe" d="m562.34 937.39 3.43 2.97 83.03 25.75-3.43-2.97-83.03-25.75z" class="color5652cc svgShape"/><path fill="#703eaf" d="m645.37 963.14 3.43 2.97 46.49-114.88-3.43-2.97-46.49 114.88z" class="color423eaf svgShape"/><path fill="#ddf8f5" d="m607.66 851.49 52.16 16.17 1-2.53L608.68 849Zm-2.4 5.91 64.47 20 1-2.53-64.46-20Zm-2.39 5.91 64.47 20 1-2.53-64.46-20Zm-2.39 5.91 64.47 20 1-2.53-64.47-20Zm-2.39 5.91 64.46 20 1-2.53-64.47-20ZM595.7 881l64.46 20 1-2.53-64.47-20Zm-2.4 6 64.47 20 1-2.53-64.46-20Zm-2.39 5.92 64.47 20 1-2.53-64.46-20Zm-2.39 5.91 64.47 20 1-2.53-64.47-20Zm-2.39 5.91 64.46 20 1-2.53-64.47-20Zm-2.39 5.91 64.46 20 1-2.53-64.46-20Zm-2.4 5.91 64.47 20 1-2.53-64.46-20Zm12 7.52-1 2.53 51.14 15.85 1-2.53Z" class="colordde2f8 svgShape"/><path fill="#cef8f3" d="M663.44 839.45c-3.55-1.1-4.27 5-4.27 10.55l-28.91-9c0-5.58.71-11.65 4.27-10.55Z" class="colorced3f8 svgShape"/><path fill="#d8a353" d="m545.43 1214.51 9.55-7.61c-.38-.48-38.08-48.44-31.11-88.33 4.41-25.26 1.84-43.79-7.63-55.07-5.88-7-14.07-10.68-23.7-10.68-2.56 0-6.21.07-10.61.16-19.11.41-81.31.19-90.56-10.16-4.26 2.67-4.86 9.18-1.18 13.73 7.2 5.07 42.47 9.68 92 8.64 4.3-.09 7.86-.17 10.36-.17 6 0 10.82 2.13 14.35 6.34 4.85 5.77 9.64 18.27 4.95 45.11-7.93 45.33 31.88 95.91 33.58 98.04Z" class="colorffcf3e svgShape"/><path fill="#ec8e00" d="M397 1063.25c2.11 7.07 9.38 6 7.81 1.82a19.18 19.18 0 0 1 4.42-19c6-6-3.2-7.15-7.81-1.82s-6.52 11.93-4.42 19ZM476.9 1070.27c3.85 6.29 10.62 3.43 8-.25s-4.82-12.15-.58-19.44-4.93-6.1-8 .24-3.27 13.18.58 19.45Z" class="colorec9e00 svgShape"/><path fill="#d8a353" d="M976.65 1631.61 947.3 1620a6.92 6.92 0 0 0-6.84 1l-24.78 19.58a6.93 6.93 0 0 0-2.56 6.43l4.58 31.25a6.89 6.89 0 0 0 4.29 5.42l29.35 11.67a6.92 6.92 0 0 0 6.84-1l24.82-19.64a6.92 6.92 0 0 0 2.55-6.42l-4.61-31.29a6.93 6.93 0 0 0-4.29-5.39Z" class="colorffcf3e svgShape"/><path fill="#ad59d4" d="m189 622.85 17.39 46a6.91 6.91 0 0 0 11.82 1.93l31.1-38a6.91 6.91 0 0 0-4.23-11.2l-48.5-7.92a6.91 6.91 0 0 0-7.58 9.19Z" class="color807dfa svgShape"/><path fill="#dcf7f4" d="m1768 304.57-33.57 35.88a6.91 6.91 0 0 0 3.48 11.46l47.83 11.09a6.92 6.92 0 0 0 8.19-8.75l-14.3-47a6.91 6.91 0 0 0-11.63-2.68Z" class="colordce1f7 svgShape"/></g></svg>